<mxfile host="app.diagrams.net" agent="Mozilla/5.0 (X11; Linux x86_64) AppleWebKit/537.36 (KHTML, like Gecko) Chrome/126.0.0.0 Safari/537.36" version="24.7.17">
  <diagram name="PÃ¡gina-1" id="KVeEI6y07E5M54RuIT6p">
    <mxGraphModel dx="1769" dy="706" grid="1" gridSize="10" guides="1" tooltips="1" connect="1" arrows="1" fold="1" page="1" pageScale="1" pageWidth="827" pageHeight="1169" math="0" shadow="0">
      <root>
        <mxCell id="0" />
        <mxCell id="1" parent="0" />
        <mxCell id="6P_Zupyn003xEf8hD23l-90" value="" style="rounded=0;whiteSpace=wrap;html=1;" vertex="1" parent="1">
          <mxGeometry x="30" y="32" width="1450" height="818" as="geometry" />
        </mxCell>
        <mxCell id="ppfQhNkfrTPM0ce_duGg-8" value="SAP HANA" style="shape=image;verticalLabelPosition=bottom;labelBackgroundColor=default;verticalAlign=top;aspect=fixed;imageAspect=0;image=data:image/png,iVBORw0KGgoAAAANSUhEUgAAAlgAAACvCAYAAAAhbqBUAAAABGdBTUEAALGPC/xhBQAAACBjSFJNAAB6JgAAgIQAAPoAAACA6AAAdTAAAOpgAAA6mAAAF3CculE8AAAABmJLR0QA/wD/AP+gvaeTAAAAB3RJTUUH4gcfFCQ05nGVTwAALzBJREFUeF7t3Xt0E+edN/Cv7xYgITvlKkWYa7BDWrNtgN4St1zC7qZluOzp5d2CyXvZc7ZugO42u2nak7BN027aLdBVutvt2aCkfZvubi7ifbvdBELj0PQthmzjbIi5BBPjyFwT28iAbLCk9w+NnEGW9JtnNDOaGf0+58wB7K+ML7Ln6+d55hmAMcYYY4wxxhhjjDHGGGOMMcYYY4wxxhhjjDHGGGOMMcYYY4wxxhhjjDHGGGOMMcYYY4wxZntlVCCXhl+eew6AROUYY8xhtvfcPf0hKsQYK23lVCAPLxVgjDGHCXG5YoypUUjBYoyxUhLquXv6ZirEGGMAFyzGGFODyxVjTAgXLMYYy4/LFWNMGBcsxhjLjcsVY0wTLliMMZYdlyvGmGZcsBhjbDwuV4yxgnDBYoyxG3G5YowVjAsWY4y9j8sVY0wXXLAYYyyFyxVjTDeVVCCn63EqwRhj1pcEUFEW6lkzk8sVY0w32gtWIkklGGPMDkI9a3xcrhhjuuIpQsZYKQv1rPdzuWKM6Y4LFmOsVHG5YowZhgsWY6wUcblijBmKCxZjrNRwuWKMGY4LFmOslHC5YoyZggsWY6xUcLlijJmGCxZjrBRwuWKMmYoLFmPM6bhcMcZMxwWLMeZkXK4YY0WheSf35OgoFWGMsaIpq6gI9Wy4mcsVY6woNBcsJPlWOYwxy+JyxRgrKp4iZIw5Tej052dzuWKMFRUXLMaYk3C5YoxZAhcsxphTcLlijFkGFyzGmBNwuWKMWYr2Re4WsWxqLTxV5WjyVsNdVYamuuqx1/knVMI/8cYPsWvwGqLXE+//e+Aahq4nEb2eQNfgNUSujCJyha+QZMxGuFwxxizHVgXLP7ESy6bUotFbhWVTa9Hkfb9MqZX5mGVTarPm0mXr6OB1HLw4jK6BG4uZ1TV5q+GpNmeA8uCFYSqiG09V+Q0l2gpueG7wxbU3aIvtRtvVEBUDAAQntCLoEuxJZeaXq1gw0ALgJSona3e19X6KChVTLBh4DoBE5RR2utp6t1GhYosFAyLfjZ2utt7FVMgKBD6u7a623oeoULHEgoFmAK9RuQyzXW29PVTIKjQXrGTcnLLhn1SFydXl+PEnpo4bjTJSk7caTd5qrPIBWzAZQKp0HbwwjI6LIzh4YdiyheubzXW4Z4GHiunmW50DePxElIrp4p4FHmy5dTIVK5ro9QQePxGFf0IlIldGcfDCMPwTKsb+XnLUngoAIAkkE0LfU6He/zbX1HLlNLFgwAuxcgWk8pYvWIKaY8FAq6utN0QFmW42UYEsJAA7iYxlmNdYBHiqy3HPLZOxYfYkU0sVJV267lmQ+ne6cO0+fgl9l60zrbjKN4GK6GrVTBdCRwdN2RttsnWeDll5qsqx9VZvztd3DVxD1+A1dA2MoGvgWmmWLn1wudKHRAWyaIgFA82utt5OKmgzDwIIUSGmmxYqkMUmcMHSxj+xEltvq8OG2ZOoqCWkC9eGhknYF7mCvZGr2Be5Qj3MUJ7qcniqzJkaTPNPrESZ2MiDZtFr5vw/Rmmqq05NccrP8ei1BA5eGMbeyBXs7btq+4/PJFyu9LOGCuSwBYDTvgYNsWDgIStPqzlFLBhoANBMxLJpjgUDDXaZJrREwUqPWG1d5KWiluSpLsf6OW6sn+NG9FqiqGVrpX+iaWuv0nwTK9FYV4OjAyNUlGXwVJdjlX8CVvlTo457I1exN3IFT799mXhkyeJypa8WKpCDBOcVLADYEgsGdrraegepICuIRAXykGCTUSxzz8RZbJg9Ca985mbblqtM6bL14zum4cCaALbcVmdq4UmfqM22eaF110XZySr/BHx/2RS88tmbsdXk544NcLnSUSwYkAB4iVguXvnxTuNFaqqQGUvL+qu0Qh5rqqL99PZPrMQvls/A95dNcexJxD+xEltuq0PnhgZ8b9kUw9eTearLsdI/kYoZYkWR/l+n8k+sxNZF3rFfPrwVZSiPJ213lCXUr8srS+R5O8kklyv9aZ0eTCv08Va1VZ7CYgYoYHowrdkuXx/NzaYsmdR8rPJPwK9W+7BsavYtEpxo/Rw3DqwJ4KkVMw0rlOtnu6mIYYpZ7pzMU12OrbfV4YAUwCr/BPJ7y2qHqBxvJ3T6T+dxudKfRAUIEhWwsR1UgGkmUQEVJCpgBZrP9BWjCU3Hf5/vwT99cpphJcPqfBMrDVvIXOxpunVzi1fwnM5TXY5/bJmORz82tdS+d0Jvb5rP5UpnBU4Ppjl1mhAAJHm/M6Y/Pab49HgbhjP1J/WjH5+Gb9z+ASrmaN86fBFIJHU/lk6pNXwKkrLSPxG+iZWpvY8MO5IoZevnuvHzVTPRWFdDRZ2Ay5Vx1lABlfR6O1b0IBVgYuR915qJmBq2mCY0rWA9+vFpJT/CcfBcDHtPX0YyntD9WG+RrS1WzJyAxGjCsCNpzOCfrTTW1ZRCyeJyZSyJCqgkUQEba4kFA61UiAmRqIAAiQoUmykFi8tVytd+e56KaLYqYI2CtX6eeTvIlzJPdbmTSxaXKwPJtyjxErFB+aA4eZoQ4FEsvakZ8eyhArJNVKDYDC9Y6+d6uFwB2PV6PyKXr1MxTTbM81hmXU5TfQ2a6h150rcch5YsLlfGU3Ni6gTQTmTS1Jw07aohFgw8RIUYTeC2TNupgMzy04SGnpUb62vwQImvuQJSu3U/3jVAxTRbebO1rt7jUSzzpEvW5PIkykbj1jsEdvhfHH8zzOXKFBIVQKpgvUyFZBIVsLktcjlghZGogCwM9aNYW6hAMRlasErwiqesvnX4omFXDvonVVlmejBtZcBahc/pPNXl+IflPipmeR8bffV1KsMKI08PNhAxAHgdqROdGk6fJvSCpwr1oGaks0feRb+dyKVJVKCYNLef+Gg87/GV2+rQyFNFiFy+jqdPRqmYZhssOFrkn1SFZdNdVIzpaOl0F48cMjXUTA8CQKd8v7ceIpem5uRpZ7z5aAEEpgc75T/Vjp42yL80WJLmgpWPf1IVtiy+iYqVhK+9YtzCdiB12b4V8cnefA8s5RFjRpKoAIBBV1tvp/z39jw5pdYSmEbbQQVYTi1UQJYexW7PF8qg9pcG0xny03jzrXVUpCTsO30ZHX2X6XUqGo9VvgnwT6qi3o2iWG+hhfelwlNdjlb+3mM5CEwPdir+vidXKAuJCtgcbz6qndoRznYAkEdPO/MFFSQqUCy6nwE91eXYMH8yFSsJ3zpo7OjVqlnWWnuVaZV/IlkShQ+BRdOlqLWJbxDNcmqhAjLl9Ex7rlAWak+idsZrsbSRqAAAuNp62xX/VP49H8tOE+r+k3jVLDf/gAew67V3DduWAQA81RVYOcua04NpPJJpPh7FYnmonUppT/9FdMFxCUwT8uajggRuy9SZ8W+R0VO1z21T6X5vlWKfVDvOXkXXeyOIXosjei2Bo+8Nj8v43FVjU2tNN9XCU12OpTMmjMtpFbl8HbuPGLctAwCsnDXJ8kW28aYa+N1ViAwZVzTZeK1NXuw6fIGKmSKZKO1bG1mFvEC7mYildWb8ew/Uj35JAEJExu4ehPM/Rj2pHdlsV/7D1dbbHgsGBqGunEkAtlEhs2kvWFnuCed3VxVlk8mOs1fx+JEB7Ds9REVTzmZ/sd9dhcb6WiybMQFLZ0xA003aPpZdv38X0WtxKlYQu0zDrpzlxu4j/VTMciKXr+O+l3M8URT8cll3V1eg6aYaNMqFvZg81RVYOmMCOs5epaKsdEhUQNYpj1optWfJ5bIG9isfPVC3Ni2tIRYMPORq632ICjIA6p972a4cbIe6xzfEgoFmxcUZlqC5YJXFx6+FWWXyhpfpk+BBnU4kkaHriAxdHytqnuoKrGyYhFWz3Fipcr1Tx9mreOatS1SsIP5JVbqOuBlp/fzJtixYfUPXVRWUjiwdrPGmVElvXVRXtIsQVja4Vb3/rGSonUJpz3yBq623MxYM9EBdCZFiwYA3S0mzsh6kPu7WvKkbbYkFAztt9nGaTmB6EMhe5PdAXcECUs/xTipkJl1/1W66qZaK6KbrvRHc/WyPbuUqm+i1OJ45cQl/ti+C5iffwtcOnCVPWrteezfv6/Vg9bVXSo3yqE4pOfreMHYf6cedv+jGfQfOGroWL5dlNingzHiC04O51r2Ec7w8G4kKWNB2qLv3YpoXwFYiw4A7qYAs28gpYPPnna4Fy++upiK6iF5L4Iv/3mv4NJxSumx94d97cce/dGP3kYFxu7N3nL1qaOFL27youOvcRK23yXSmEZ45cQmfebbH8FHNTI031cLvLs7omVJNcmSQyjDDSVQgLeMqLiW1Gz8C6tfcWIa8LcAuKpfhQd58lCRRAVnWYi+Xrs5sr8vCclcT6lqwzJq2eubEJVPLVabI0HV86+B53PGLbuz6/bvokxdx/1V7H8oTSUOPZdNdRZt20mr9gtItWECqnN/38lnDL3zIZIGRw9D/SPyb6EmL6U/tKEI41ytcbb1hqB/hsevVhDuh/mNM420bchDYdw3Iv87viTyvy2SpexPqWrDM8uLbl1CeSKAiHi/qcSV2DcHD5/HZp7vx2ae70Re9hrJEwtBjwzz7lRVPdTk2zPOgPJ4o+CjLcnGFUcqSSV2Pb//uHPb1qLwQQwdmTtlnEXr7z27dTIWYsQRuUQLQo1TtxOuVJCpgNfJoieiVaK28+WhOatf9DeYZOQVsPE2oW8Ey84d5GWDqiZYSvRbPuh2EEVbMts/6K6WVDW6ygKg5YNaXPZmkNz3VcPz1ryOIjpgz+rp0xgTy86n3IX99uFxZh0QFFMLE60X2JbLdNCEAuNp6Q1B//8U0HsXKTqICsnC+Vwru6m6pG49rLlhlieQNh6dK85sStqLBniWjUOtu8cJTXUHFLGlFgxueGnu+73qKjsTxxBvvUTFd+CdVoXw0YepREY9zubIWtUUnfXPnfMLE65UkG69PEn3+tljppG4FgtOD1MgpIDZ6qvY5bzjNrSizYJUlzRpaSBUNC6wvMd26BV4qYmmlWowzPXNskIrowmf+IvfQyS9/UPTkxAwiOD3YTgXkKbQwEVOSqIAVydNV7UQs0w4qUGLUTg8C6p5TIuuwJCpgFs0Fq5g81RX420/54J9UNb7oOfTwT6rC0pnm7jOmt00fvImKlIS+oWs4+q45U8omCp1s43JlMRIVUFB7AhOZJhQ5yVqN6FqshlgwsJUKlZAWKiALq9lLTN5AtIeIpVlmmtCWBQtIXSG1Z8NcNNbXAImk44/WRfXUp6RgL56KUpGCNN5UW4xRFUvqG7pGRXRh0rQslytrWkMFZD0CO2C3UwGFZrtOE8qfjxARy/SgTa+e1JVO+65lE6YCCmqf+4bSrWB19F2hIrrz1FRgz+fm4ytLplFR21sxx0NFCvLiqSgefoW+NUyh1t1irz28jGLWRRGNHzB8Kp3LlXW1UAFZmAqkCS44BsRG0ayGNx/VRqICCmEqoCBSxiQqYAbdClYxfeX2qXhp4y1Yt9CZJ+8Vsz3wGbyJa0ffFfRFrxk+srLuFm/qCr2EtiPbPTBZ0XC5sijBW5SInLgA9dOJgI2nCXnzUc3Ufs1z7d6elbw2bpCIpVlimlDXgpXecLMYfO5qfHe5Hz+T5jiuaBk9egUA+95OTQ/uM3ia0OeuwsrAJCCe0HSYeTEFy4vLlbWpnSKh9iDKJkwFFGw7TSjbCfUn9bQHqYBTCU4PihT1tDAVUFD7PWAYXQtWxODRDzWW+Cbiu8v9YyNaJq1BMYynpgIrZhtbsI6+O4y+aOprZ/Q6LABYMWcyFSm6siTIXfULOUzb1kTFqKDIgUQS4HJlBxIVkIWpQKZSmibkzUeFSVRAIUwFshAZbZWogNF0/SlfjHVYuaRHtH79pVvw3eV+M9aiGGLFbI/hJVFZqjr6rhi+EeZyE0bkCpcEtat+IYdpz8dkEkgkdDvKEgkuVxZn8PRgmsjj1E4ZWRJvPipE7aiRmn3XxhG8ZVPRpwk1F6zy0TjKR+OouD469vfj561TsNI8NRVYt7AOez43Hy9tvAUPfGKGeSc3HZgx3bnv1KUb/v3i28aOYnlqKrC20fiPy8qMXlNnkNBbWxdzubI+tSe5QfmEpUWYCijYfZoQ4M1HSfIVlC1ELE2koGcKUwEFtd8LhtBcsMZujaH4+4vdlwwf/SiEz12NTR/6QNayRd0CpBiH312FJT5j977KtieT0euwAHtMExrF56mGz2NOwToUuUxF1OJyZR8tVEAWpgK5CO5LBFhguqYQvPmoKhIVUAhTgTxepgIKrcXcOkNzwcplf/eNoyFWNa5sfXwGmupqUDaasMzRepvxG3O+ePLS2Ahk+nj1tBkFy2NaybCatY3G72mmMy5XNmHALUryCVMBBVtPE8pE12KV2uajakeLRPZdyyZMBTJIVMAolVRA1BOdF7G2yV4nEJ+7GhsXT8HGxVPQF72G/d2X8MRrF8cWfhfL8rnGj/I819U/7mXRkThe7L6EFQb//+sW1iHYcY6K3Shp76sIPTUV2PShD1AxXej0/DWzXG2KBQN3UiEL8FKBIhIpMmEqQHgC6vd9ao4FA80FnliLytXW2xkLBkIAWomo0oOxYCAksh2BHQnelilMBfJxtfUOxoKBMNT/f2sgvmmsLnQvWEcvxnAochlL/JOoqCX5PO+XrWMXY3jitYvYX4Spz8YpLsNHeKIjcRy9GMv6OjMK1trGOgR/d4aK3cje/Qr3f3Im3AZftJCmw55mZpYrIDXy0kBkWH4SFZCpukVJPnLh6IH6r9kmiF19aEXbIVawvEiV0IfypuxPogIKWrZnyLQH6v9PKRYMeAt9vmuh+xQhAPy96KiERS2c4sJ3VgWw/54mfGdVwPDCo7Rx8RQqUrB807lmTPX6PNVonOKiYsWRBDCa0PVYe0udqdODhyIFXXRidrliBRKcHixkkbFSOxVQkKiA1clXvm2nchm2OGCRP8Ws6cG0MBXIIFEBIxhSsA5FLmederIrd00F1jbVY/89TXjsM7NNGZ0zevQISI1S5ZKeJjTa2ibj15lZQdtHZ+A7qwJUTFd9l0bICykyD3kKlsuVPZk5PZgmUtQa5BJodzuhfqsAIDWK5fRtGyQqIGunAmrIo1HtRExJbQHUlSEFCwAeOdBn+rSaGZbPnYwnN8zDkxvmGVa01jbVGz6NpKZA6XgFWk5mrDMrpsYpLjz5J/PRtmw6FdXd4d4oyuIJoaM8nuByZV8SFZC16zVdIrgvESBWAi1J/tyJjmK1OqRcjiO4HYVIIaeIvC2pGFcTGlawoiNx3L+vl4rZ1hL/JDy5YZ4hU4dmXCSgZgqQKmB68HmqTRmtM5NHHvF88k/m47k/XWhYEc+nL3pNyyL30PG//AiXKxuSp6AaiFiayIlJjTAVUJCogB242np3QmybCsC52zaoHR0qZN+1bMJUIINEBfSmeZF7xSg9OvXS8X58vbIMj6xuoKK2tbapHivmTkbw4Dk88dpFKk7yeapNOSF3qBidSp+k9S6QmZbP9ZpS5kR4aiqEvg6NU1zwTa7BEv8kLLTAurL9JwepSCYuV/YmUQGFMBUQtAfqF3432P1qQoVtAJ6jQgotsWCgRcO9H61OogKyMBUQ4Wrr7YkFA51Qf+9D068m1Fyw1Aq/+R6W3OyGdKtz19q4aypw/50+LJ87GQ/8x9vouyQ8cjDGrEv4f/3WAMoTCSqG/ScHsfEPplKxgqxtqsd3XnoHl1VMKZeZtE3DQnlqz66ee/M9KqLE5cr+1E69abpFST6utt5wLCi0vtAJVxOmP+52qN/YFQB2A5hNhezCpNsy5fME1Bcs068mNGyKUOnrz/cgLPYD35aW+Cfh2Y1NWHKzm4rmtHy+l4oUbP/JQVyOXSfvl1eWSCB85F3qzeliXWM9uT6oLJ4wrWDZ2bGLMRzLsf1GFlyubE6eHmwmYml6XCKfTZgKKEhUwEZE12I1xIKBVipkI2qnB6Hz9GBaOxXIIFEBPZlSsIBUyfr68z1UzPbcNRUIfW4BpEXiI3YLp04wfDoOEJs+Onbhqpa1PMK0fL5Ydk/+/gIVSeNy5QwSFVAIUwGNREYnnHI1YfoWOiEilmlHMRZcG0SiArIwFdBCwy2bVBdCPZhWsIDUdGHrv57AkIqpILt7ZHWDcGnY+GFjp+LS9r81QEVuIJrXYuHUCfBNrqFijDA0Esf+twZUbcXA5cox1E4P9ug9PagQpgIZ1L7PdiA6iuWF+h3wLSsWDLSguNODaWEqoCCZuSeZqQULAA69M4QVP3kDh98ZoqK2J1Ky3DUVWD7PS8UKtv/koHDBNetr9WkTPn6n++mr53H56nVyKwYuV84gOD0YpgJayetawkRMSaICdlHCm4+KjAaFqUABRKe9JSqgF+2L3AtYCzM0PIpN/3IcX/7YTGz88DTD93wqpkdWNwBJkGuZls+bbMrnQWR6MC1dyox+/7704Wn46X+ep2Ish75LI3jst31ULHT0r5datVxtd7X1PkSFik3+zf0lKmeSFiqgIHoiEvUy1J+8Ghx2Rd1OAFugfkTHi9Tmo1b9XlRDogKygm/LlI/GWzbtpEJ60D6CFU8UfDz2mwjW7T6C8BvmLKQulvs/fTN87iogkch5bPzwNOrN6ELrdJ+WYibKN7kaC6dOoGIshwf+420qYuVyxbRRO4qg1y1K8glTgQyOmSYstc1Hi3RbpnzCVECh2azRQ+0FSyd9l0bw9V+dQutTx3C415ypKLO5ayrw9+tyX/Lvm1xjSrE4duGq8PRg2iGTpgm/ZFLRdJqfvnqe+v7hcuUw8kJpiYilhalAoeSpsk4ipiRRATspsc1HRcpxOxXQwctUIINEBfRQ9IKVdqg3ik1PHXVs0Vo4dQI2fiT77VK+9BFzSkUho1BaR75ELZ/vNXwq0mmOXbiK7/46710TuFw5k0QFFMwYRQDEpiG9grdZsYNtVCBDizzlbDcSFZDpvu9aNla9ZZNlClaasmg5berwy5/wZS0Py+fXZUnr79nOC0hcj2s6Ll2+hmPnr1L/RcHcNRX49NzJSIzGsx8J7Wv/nGhoJI57nzuZL8LlyrnUTg8OmrjWKUwFMqj9GGxBPtG3E7FMu6mAlQhOD4oU7kKFqYCCKdOEBSxypwKFOXQ6ikOnowi+EsHGj0zH2tumwF1r75ENd00FNt4+HY+98v5C5OXz60zZnuDY+avouzRCxfJ67o2LuH/aLCpWsOXz6/Ds6zn2cirg4gqnGRqOY9NTRxEZHB73urKyMoDLlWMJTg92mjxK0gP1J2AJ9l7onc12iF180BALBlpdbb0hKmgREhVQGDTxuXeaCmSQYPBid80FK6HiNit6iAwM45F9PXhkXw9WLKjH2g9OwfIF5oz4GEFa9IFxBcsML+owxffiiQHcv8KEgrWgDp7aSkSHR6loyRoajmPj/+7C0fNXckVCJ77xMaeduNj7JCqg0AKxE76ZvLFgQDJol++icLX1tseCgRDU358RSG0+aujVdjoSGXW08uic4VcTWm6KMJ8XT/Tjy08fx5IfvIr7f9mNQ71R6iGW45tcM1aq3DUVppXF/Sf6qQip79KIKdOEALD2tilUpGT1XRrhcsXupAI2InLCtgvRKwq9sMHmo4L7rlmd4dOEtipYadHhUTz3Xxex8WddWP7Ya/jOvtO2Klu3B1L3Kly+oM6UBd19l0ZwVKdipMdImBprP8gFK5tDvVGs/ec3uFwxiQrYiEQF7EZe2L2TiGWyw+ajEhWwGYkKFMKWBUup79IInjh8Fht/1jU2srX/xACGhrVtR2CG9AjW2kXmlIh9x/sRTyR0OfYdM+em3Qun8a1zMgV/E8HGn3XlmzrlclUC5CvvvETMTpx4NSGQGsUapEIKXqQ2H7UyU66+M5GhH4/tC5ZSemTry08fx+0/OIz7f9mNF3WYGtNbet+r9EiW0fT8HHSdv1LwYnm1Ni2ZASC1rj2ZNPy6CstKj1oFfxPJF+NyVTqcOKXmuI9JXk+1i8plaLXqKJbDpgfTmo3c7FXzIve4DS6Xf7rzAp7uvABPbSVW3FKH1iUz0DhtIvUwUzzyx3OoiG5al8yAu6YSh3qjBS0cb5w2EUtneUwbWVp72xRsf/7UDS9LlNBVhH2XRhD8TQTP/ddFKsrlqrRIVMCGJDjvakK42nofigUDm6D+qkogtTD8U1SoCCQqYFObILZBrmqaC5adRIdH8ezrF/Hs6xexdJYHX7njZiyd5aEeZigzdm5PW7GgHisW1AMAjp6/go7TUXld1hVEh+Pj1vN4aivROG0C3DWVaJo+EY3TJmBJwANPrblPF3dtBRqnTcy33siRIoMjeOwVVcUK4HJVUhw4PZjmuKsJFbZD7Gq6Fovep9Fxo4wyCeIbxKpi7hnTAjpOR9Hx0zexdJYHf/vZeaaNxlhF47SJlhnFU2Pz0hm47//k3UjTEaLDo9h7vB+7O86g65zqQhk6/dAnuVyVFqee5IDUSEKYCtmNq603JI9itVBZhR0AFlMhs8j7rrUQMbtqiAUDzUbcq9NRa7BEdJyO4rM/+S88q26UgBXJylvqqYhtdZ27gsc7zuALTx7Bhx7twNf2vMXlilFaqICNSfKJ3IlEt21ojgUDrVTIRBIVsDlDFruX3AiWUnR4FH8lj46s420BLMlTW4n1H5qKZ3Lt7G4TXeeuIHJpBEfPXUHXucs4eLqg9XBcrkqQ4C1K7EoCECIytiNvPhqGWFF50EKbjzp55BQwaJpQc8GKj1p3GwRRf/OrbiwJeOD3ltZ0oV2svKW+KAXr8Y4zmrb7iAwOIyJfadl17kohRSobLlelS+S37BDEbx1ihFkQ29F8DRxYsGTbIFawGpDafPShvCmDCd6WqQfm3n8wH5GLCwyZJtRcsJwkOjyKZzrPY0tLgIqyIlh5Sz383hpEBs3ZHiLtWy+8TUXMxuWqtElUQGGbFUY+5JNzKxFTkmLBgNcK77veXG29PbFgYCfEdmzfEgsGdhb58yFRAYWwq633ISpkhlgwAIjtK6b71YQluwYrU0fPJSrCisjJa7FU4nJVwgSnB9uLfEIeI78fYSKWSaICNqZl89EdVMhgItODe6iAicJUIINEBUSZXrBWLrwJyxomUzHTuU3egoCJaV0yk4o4GZcrJjI9aKWTHCD+/oic0G3FppuPSlRANmilrSXk6b4eIqbUoPemo6YWLL+3Fj/+fCN+3nobvictgN9bSz3ENFYsfex9fm+N+dtLjG0hX8SDyxVLkaiAQpgKmCxMBTI4+WpCyFNoPflT4+ymAkYQvIVROxUogjAVyLCJCogwtWAp1zitb56KA1s/gs3LZtInGROOpVywLG/z0hlURFdl8USxDy5XLH2LkgYiltYj32jYMuRRm3YilkmiAjYnum1DSywYaKFCBlhDBRRERyrNILrgXqICIkwrWH5vLdY3Tx338m+unpMazZpcQ5Ygo46maRPRNN3k0REmrMTWYYV6Hm7hcsUAsR/6YSpQJKInX5ETu+242npDEC+dO6iAASQqoBCmAmaTpwkHiZhSg55FVnPBio/GhY577/TnfFvrF0/Dga8uwY+/cCuWzfbmzBnBU1uJR9ctoGLMAjy1lWhdYu4oVpFwuWJKm6iAgmiRMUuYCmRw9DShTHQUy9TNRwVvy9RplQsrsghTgQwi3295aS5YIvx1tdiweDoVw8rGm/DzzR/Ega8uweaP+gxfo+WprcTP7/kgmqZPoqLMIsy+H2IRcLliY+TpwWYilmapRcZK8rRlJxHLJFEBO5O/VmEilulBKqAjkVFE0ak4M4n+0iFRAbVMKVjbPj2LitzA763FN/9wLg58dQl++ed/gM0f9elagjy1ldj8UR8OfHWJrm+XsQJxuWKZJCqgEKYCRSZ6EtZtJMHCRHcPb6ACOpKogEI7FSgW+Qbig0RMySu4uD8nw4cD1I5e5dI0fRKa/jBVgqLDozh67goOvj2IyOAw+gZHEI2NouvcZfJteFyVWNowGU3TJ2Hp7MmlMBLC7IXLFctGpGS8TAWKrJ0KZGiJBQMNVlu0ryd589EQxDZjNZy8XYGXiKX16L0DugHCEPscr4EOv7AY3jJER6/y8dSmShJf8cfMkEwmqUjBysrKAC5XLAt5DVIzEVMKU4FicrX1dsaCgR6IjcJIAHYSGbvbhtTH6c0fM5VIsQ9TAQvYA7GCJQEo+GeyoVOEhY5eMVZMiXjC8CM+GudyxXKRqICClRcZK4WpQAaRE70tadx81GgSFVCw+sgpID56qss0oaEFS8/RK8YcKPTOd5dzuWK5OGWRsZLo+9lc5F3MzbIT4puPGkLwtkzpNU6WpvGWTSLff1lpLljJ0Xjew+eu4tErxnLjcsVykqcHJSKm1E4FrEDD7UsAsc+DLckFQHTbBqOIjBqGqYCFmH41oeaCRdm2YjYVYaxUcbliFIkKKNhhkbFSmApkEDnh25a8+WgnETODRAUUREtLMYWpQIaCpwkNKVj+ulr8yYdLYkNIy/jcj3+PP9x1CNv/7wkcPDVAxXUTjY3i6f88i7/41y58/Lu/peKMyxVTR2R6IkwFLEZ0zU6pTBMC4ts26Ep0ehA2GTkFijNNaMhVhDx6Za7IwPBYqeo6M4THX3kHALBsTh0+OrcOTTMmwV9Xi6aZ7nxvhhSNjaLr7BC6zlzGm2eG0HX2MrrODN2Q2fvmRay6dUqOt1DyuFwxkobpQdHCUlSutt5wLBgYhNhVcxKcfzUhXG297bFgoB1ACxE1SgsVUOi04RYaL0Pse0tCAVcT6l6wePTKfHvfvJj15QdPDYwbzfLX1cJf5wIAfHRuXbaHjXmnP4bIwDAAqB4Ve4ELVi5crphaLVRAYdAOi4yzCEPssvlNKIGCJdsM4G0qZBCR6Vg7TQ+mhSF2T0dvLBiQtH6P6V6wePTKfC/kKFjZRAaGhUuTiL1d6t8XyxuNUwl1yspC73xvJZcrppbItEQ7FbAo0X2Jmp2+6WhasTYfFbwtEyA+3VZ08ue2E2If5yZo/Fh1XYPFo1fmi8ZGDSlKWkVjo+OmDUsclysmSqICCnYcRdB6ab9EBRxkG8Ru76IHiQoo2O3CCiXRrUI033hc14LFo1fms+KI0b/951kqUipC73x/FZcrppp81ZKXiCm1UwELC1OBDCLTV7ZWpM1HRT6/7VTAwsJUIAuJCmSjuWCVJZLjjlIfvdp35AKOmjx6IzI9aJZca8JKDJcrpoXI9KAdFxkriY6+NctXuZWKnRDfM0wTDdODol87y5C/Z3qIWCaR78sxBRSsxLjj8//wKiIDMeqhjvTDvadw3y/ehE9eQG6GaGzUkmVGuc6rRHG5YlpJVEDBtic5WZgKZCEyymJrJm8+KlGBDO1UwOLCVCCDpmlCzQUrm4PdA/jEt1/BX/7LmyVTtCL9MXzxR69i1wvdWLloKjwu3a8byGnfkQuoGI1b8tj3xnnq3XcqLldMEw3Tg2EqYGUa9yWSqICTmLj56J1UQCFsk/te5iO6DgvQ8NzTtWClPX34zFjRcvKC590HevGZHxxER3dqkfn622cSj9DX7gOnqUjR7P5NLxVxIi5XrBAiJzk7LzJWEh2FayixaULA4M1Hnb7vWjYab9kkPE1oSMFKe/rwGfzRDw7i8//wKvYeuUDFbaOjewB3/91BPLznOKKxUQCAv96FpcS+Unqy+tV6kf4YIv32HsWsHE2oPiriCS5XrFASFVBopwI20U4FsiiZaUIgtfkotH2e1JKoQIYwFbCJMBXIIDxNaGjBSjvYPYD/FXodn3jkFezce8rW04cP7zmOL/7o1XGL2Vs/GcjxCGPss0FhtcP7qJNQz47VXK6YZhpuUSI68mNJ8oLjTiKWSaICDmTkzxeRkRm7X1ihpOV7SKICSqYUrLRIfww793bjE99+BX/0g4N4/De9tilbzxw+g7v/7nfY/fJpIJm84Vg6t8706cFo7DrKkrD04XFVUR+GE4Te3snlihVsExVQ0riPlFWJrocpuWlCudSEiJgwDdOD7VTALuSRwUEilmkNFVAytWApdZ0Zwt/sOX5D2bLalNfRviE8HD6OxQ/8Gvc9dQRH+7K/f+tvn2nq4nYA2HfEelcPZtr3huNHsLhcMb1IVEAhTAVsJkwFshAqpA6xHeKFgCJRgQyiZdjqwlQgg9A0obmtIId02QIAj6sSy+bWY9ncOjTNdGOZieuagNS0VsfJAew7ckH1GiKPq3JsobsZorHr6DjZT8WKrqO7H/uOXLDlSFY0dp2KcLlSJwT1v/X2UAGL6ATwKSokG6QCMpHnUg8VsBP59iVqP59pg1QA+n+NikrxefJSWVkPFUDqe1Pt5ym9ONxJtsPA0lhGBXKZf++vXoLYTUk1WzKvHr56F/z1Liz0eeBxVY79qVVffwx98kLsrjNDONg9kHOEirEMXK4YY4zlpb2hmOhQntEaj6sKC33ucS9fOq8eEblEKR3rG8o5OmGLTwYrqiQQOvnDP+JyxRhjLC/bd4po7HrWApavlDGmEZcrxhhjqhRtkTtjNhN6i8sVY4wxlbhgMUbjcsUYY0wIFyzG8uNyxRhjTBgXLMZy43LFGGNME82L3MsTSSrCmG0lyxA68fd/zOWKMcaYJpoLVlmSCxZzrNDx4N1crhhjjGmmuWAx5lChY48ZV67mbHu+Bamb+jbIL+oE0Hlqx+qerA9gjDFmS1ywGHufIeVqzrbnGwA8iNR9v7w5Mj0Atp/asTqU7fWMMcbsRfOtchZ++Zem3SqHMRMYVa62AtgBAP56F9bf7sPSee/fXzPSH5PvfXke0dgokBrR2nxqx+rO8W+NMcaYXXDBYsy4crUbQKvHVYlvSAux/nZfzmw0NoofvnASuw+cBlI3n/0UlyzGGLMv3qaBlTqjytUOAK2NPjde/sadecsVAKRL2KNfWASkphFfkqcWGWOM2ZDmNVjlcb6KkNlXoqIMMK5ctQDY6nFV4h83L4bHlfo2W/zAfnhcVYjINyBv9LnhcVVh5aKpWH+7Dx5XJdbf7kNf/zB2vXDSC2A3gE/l+G8YY4xZGI9gsVJlSLmSPQgA35AWwl/vGnthNDYKX70LW+6ahy13zcOqRdPQNNONH75wEl/80aGx3L13zU0/rkUua4wxxmxG8wgWYzZmWLmas+35ZgAt6QXtmZbNrce9d8294WWNPjfue+oIOrr7sXRuPQCg9Y5ZeDh8DAC2AGjPfDuMMcasjUewWKkJdf3jZwwpVzIJAFYumkrE3pce5erqGxp7meLxLeMewBhjzPK4YLFSYnS5AoAPAalRKbU6Tg4ASI1upfnrXem1W15e7M4YY/bDU4SsVJhRrgB5I1Hl2iulZw734WB3/9i/o7HrONo3hC13zRtXyhp9HnSc7AdSu773gDHGmG3wCBYrBWaVK5LbVTk2UtVxsh9NMz345V98bNy6LMYYY/bGBYs5ndnlqgfA2FYMmVYtmoZ775qLn//57Vi5aCoiA7Gc04ny6BWQ2t2dMcaYjWieIiyPx6kIY8VVVhY68k9rzCxXAPA6kFpXRW0u+ugXbsOdD7+M3QdOY/Mds254naKgDZ7asXow87GMMcasjUewmFMVo1wBQBiA8t6COXlclbj3rnn44Qsnx414PXv4TPqv4czHMcYYsz4uWMyJQkd+IhWjXOHUjtU9ANqjsVGEUvcVzGvzHbPQ6PPgvl8cGXtZNDaK3Qd60v98ItvjGGOMWRsXLOY0RStXCtsAYNcLJ3FUsbfV0nn1WddbfXPNQgBAh3x14cPhY+nRr/CpHavbxz2AMcaY5ZVRgVwW/c/wS+BNEJm1WKFcAQDmbHt+K4AdHlclfv7nS1Tvi3XfU0fwzOE+ILVYfjGvv2KMMXviESzmFJYpVwBwasfqnQB2RmOjuPvv/h9++EJ33jVZHd39+OKPDqfL1SCAtVyuGGPMvngEizmBpcqV0pxtz0sAdkPegHTloqlo8nnGXh+NXcfB7n7lVGI7uFwxxpjtccFidmfZcpU2Z9vzXgBbAWxCalf2bMIAdvGaK8YYc4ZCClYz5N/KGSuWIz+R2qmMlcj3FWzIeHEnj1gxxhhjjDHGGGOMMcYYY4wxxhhjjDHGGGOMMcYYY4wxxhhjjDHGGGOMMcYYK0H/HwaA/NpUqsYlAAAAJXRFWHRkYXRlOmNyZWF0ZQAyMDE4LTA3LTMxVDIwOjM2OjUyKzAwOjAw3hv1NwAAACV0RVh0ZGF0ZTptb2RpZnkAMjAxOC0wNy0zMVQyMDozNjo1MiswMDowMK9GTYsAAAAZdEVYdFNvZnR3YXJlAEFkb2JlIEltYWdlUmVhZHlxyWU8AAAAAElFTkSuQmCC;" parent="1" vertex="1">
          <mxGeometry x="77.43" y="104" width="137.14" height="40" as="geometry" />
        </mxCell>
        <mxCell id="ppfQhNkfrTPM0ce_duGg-9" value="Databases" style="shape=image;verticalLabelPosition=bottom;labelBackgroundColor=default;verticalAlign=top;aspect=fixed;imageAspect=0;image=data:image/png,iVBORw0KGgoAAAANSUhEUgAAAgAAAAIACAYAAAD0eNT6AAAACXBIWXMAAA7DAAAOwwHHb6hkAAAAGXRFWHRTb2Z0d2FyZQB3d3cuaW5rc2NhcGUub3Jnm+48GgAAIABJREFUeJzs3Xd8W/W9+P+XhiXvPeKVOI7jDGeHAElIAgRSZhmlrEL7Ky20pe2l89vbcdve231vb3vpoEApLaus0jJCygohe+84iR2vOI73lmTtc35/yEkDZDjSkY7G+/l46CFH0vl83g+w9XmfzzQghIgGViDrlEf26CPzlNeSgTTAAmQA5tHXjUDO6HPWKWVmA4bT1JVzhhgcgOc0r3sBO+AHhkdfGxh9Hh593QG4gKHR1+yjDxsweMq/B4H+0c8LIXR0ui8HIURoTEABkD/6XPSBf48b/TkfyCPQaFt1iVQ/bqCPQDLQf8rPfUAP0A10Ae2n/FvRJVIh4pQkAEKcn1RgPFAMlI0+Sj7wWhGBu3GhHT+BJKCbQFLQBRwFjp3yOAqM6BWgELFGEgAh3s8CTAAqT/OoINCtLqJXH/9KCFqAJqABaBz92a1bZEJEGUkARCIyAROBaaOPav7VyJeNvi/ijwq0EUgGTjyOAAcJJAmnm/8gRNySBEDEMwswGZhOoHGvGf15GoGufCFO8AGtBHoJDgK1o897CExeFCLuSAIg4kUOgQZ+/imPqchYvAhdB7Bz9HEiMThIoEdBiJglCYCINQZgCjAXmD36PAco1DMokXAGgL2jj93AduAwslJBxBBJAES0ywIWAJcQuKtfSGDpnBDRxk4gIdjJ+3sMhIhKkgCIaGIh0MhfBFw4+lypa0RChKYd2AZsADYSSAq8ukYkxChJAISezAS68a8gcIe/lMDOd0LEqxECQwYnEoL1BHZHFCLiJAEQkZRGoAt/2ejjQhJvBzwhTuUjkBCsAd4hkBg4dY1IJAxJAEQ4GYF5wArgIwQa/yRdIxIiurmATQSSgdUEhgz8ukYk4pYkAEJr4/hXg38lgb3vhRDBGSDQO7Bq9NGhbzginkgCIEJlJHBnfz2BRn828nslRDiowC7g9dHHDmTZoQiBfFGLYFiB5cCNwEcJHH4jQmA0mkhLzyQtI5PU9EzS0jNJScsgNS3j5M9p6ZlYrMlYLMlYk1NIsliwJqeRlJRESmo6RrOZ1LQMjMbATsZp6RkYjB/eByktPQuD4cN/+s4RO36/70Ov+31+nCN2UFXs9iEAHMOBeWsO+zCqqjDisKH4Fey2QZwOO06nA+eIHafDjt02iGtk9N8jduzDg4HyRKi6gH8CrwJvIHMHxHmSBECMVRZwDYFG/2oC59GLM7Amp5BbMI6s7Hwyc/LIzM4jO7eArOzAz5nZuWTlFpCdk096Zg7JKYm1M7HP68E2NMDwUD+2oQFsQ/0MD/YzPNgXeH2wj4G+bvp7Oxns72ZooE/vkKOdg8AQwUsEegckwxLnJAmAOJt0Ag3+HQSW6ln0DSc6ZOXkk1cwjrzCEvIKi8nNH0d+USm5+UWB54JxpGfIoYFa8nk9DA700tfdzlB/L309HQz0ddPd3kp35zF6Oo/T292O3ydL7AlMJHyTQDLwGrLMUJyBJADig6zAVQQa/Y8CKfqGE3kWi5Wi0grGlU6gqGQC40onMK60gqKS8RSVViTc3XqsUBQ//b1do0lBGz0dx+jqaKXjWBMdx5rp7W7XO0Q9uAkMEzwNrESOQxankARAQGAi3zLgTuBjBA7WiWsGo5Gi4nJKJ0ymfGI1pRMmUzahipLySnLyZUpDPHK7nHS0NdHe2kRHW/PocxOtTXUMDybEEMMg8CKBZGADMoEw4UkCkNgqgHuATwNl+oYSHiaTmZLxk6iomk5ZxYnGvorSCZOxWGQPIhEwNNBHa9MhWpvqaG08RGtzHa2Nh7END+gdWrgcBZ4B/gw06ByL0IkkAInHAtwAfJbAuH7cHJebmp7JxKrpVFTPYOLkGiqrZzK+cioWa7LeoYkYNdDXTUtDLU11+0cf+2hva0ZV4ubmWQXeBf4I/APw6BuOiCRJABLHVAKN/ieJg8150jKymDx9LtXT5zFp2mwqq2dQVDJB77BEAnCO2GmqP0BT3T6a6vbTcGgPx5rrUZSY37CvB3iCQDJQr3MsIgIkAYhvRgIT+R4ALtU3lOCZkyxMnFxDdc08JtfMo3r6PEonVJ12LbsQenCO2Kmv3UXdgR3UH9hJ3YEdsbx0UQXeA34LvILMFYhb8g0anzIJjOt/GZikcyznLT0jm+lzLmLGvMVMm30hldWzSLLICkQRWzrbWjh8YAeH9m7lwK5NtLXUo6qq3mGdryYCicDjwLDOsQiNSQIQXyYCnwPuI4Zm8mfl5FNdM4/pcy5m9oXLmFQ987Q72AkRy4YG+qgbTQj2bltLY/3+WJpLYAOeBX4NHNY5FqERSQDiwwXAtwlM7jPpHMs5paZnMnvBUuZcdCkz5i2ivKJa75CEiDjb8AC1uzezZ+t77N66ho5jzXqHNBYKgWGBnwHbdY5FhEgSgNi2EPgOcC1R/P/SaDRRWT2D2RcuY86Fy6iZuxBzknTpC3Gqrvaj7Nm6lj3b1rJ321rstqjfwG8j8H0CqwhEDIraRkOc1RLgPwgctxuVcvKLWLB4BXMvvpRZC5aSkRkzIxJC6E5R/NQf2Mm2DW+xff2bHG08pHdIZ7MG+NHos4ghkgDElssIZNyX6hzHaZVVTObiZddw8bJrmDx9rozjC6GRzuNH2b7+Dbatf5MDuzdH65kHG4EfAKv1DkSMjSQAsSEH+ANwm96BnMpgNDKlZj4XX3oNFy29mtIJVXqHJETcc9iG2LlpNRvffZWdm97B43bpHdIHvQX8O7Bb70DE2UkCEP2yCWTU8/QOBMBgMDBt9kUsufImFl1+PTl5hXqHJETCco042Lb+TTa88zK7Nq/G44mas34U4Dnge0BMzG5MRJIARL9nCBzSo6vK6hks/cjHWHLlTRSMi8tjA4SIac4RO1vXvcH6t/7Ors3v4vf79A4JAlsL/wH4MdCrcyziAyQBiG5z0LEbraS8MtDor7hJluoJEUOGBnpZ+8bfeHfV8zTV7dc7HIAB4LvAI8jOglFDEoDo9ivgq5Gs0JqcwuLlN7DihruYPufiSFYthAiDo42HePf153jvjb8x0Nuldzg7gfuBbXoHIiQBiHYbgMWRqKhq6myuvPFulq24mdT0zEhUKYSIIL/fx7b1b/Lm359g97b39NyFUAH+RGDzspg9MCEeSAIQ3WqB6eEqPDU9k8uu/jhX3nA3ldUzwlWNECLKdLa18ObLT/LOa39laEC3ofk+Aj2cT+kVQKKTBCC6bSKw25+mSsoruf62+1h+3R0kp6ZpXbwQIkb4vB42vbuSV597mPraXXqF8QrweaBTrwASlSQA0e13wBe1Kmz2gqVcf/vnWLD4StmkRwjxPof2buWVZx9my3urUBR/pKvvA75EYOmgiBBJAKLbxcDmUAqwWKwsu+rjfPT2+5hQFbbRBCFEnOhqP8prz/+Rt195GueIPdLV/43AJMGeSFeciCQBiFKP7FCTxin99//kG5/45bZ1b5jP9/oki4XLr72d2z/7TfIKisMRohAijo04bLzy/OO8/PRvcdojejBRN/AJ4J1IVpqIJAGIQq9t775GVYwPYqBqoK+bf7/v2jEfFZqcmsY1H7uHm+76Ilk5+WGOVAgR7452DfDys39k88rHGBnuj1S1PgIHnv0CUCNVaaKRBCCKrFw/mKNY/T8H9b5TX+/r6eCX37uP2t1nHg1ITcvgulvv5YY7P09GVm7YYxVCJI6mPg+9A8Nse+MpNvzjIUZsA5GqehXwSWS5YFhIAhAlXtna93GDQf09UHC691VFYfN7r/POa89waN92HLYhLNZkKibXsPTKm7j8uttJz8iOcNRCiETg80NdtwuvX8U1YmPDP/7A5pWP4XU7I1H9MeBjwPZIVJZIJAHQ2aotfWU+o/oH4Dq9YxFCiDMZcik09/7rsCHHcB+bXnmUTa/9MRLHE7uAe4Bnw11RIjHpHUAie21r742KkX8Cs/WORQghzibZbMDlVXH5AkPyFmsqk2YvYcai6xjoaqWvI6yH/pmBmwA3sDGcFSUS6QHQwZo1zcm2tIxfAP+mdyxCCDFWHr/K4S4Xp9tFuHHfel7/4/fpPd4Q7jD+TGDjIE+4K4p30gMQYS9v6ZvuTU56Awwf1TsWIYQ4HyajARWwuz+cAeQWTWD+lXdgtiRz/MjucA4LzCWwR8pLQNjHHuKZJAAR9Or23rsNBlaCoVTvWIQQIhipSSb6HH6U0yzOM5rMVEy/iFlLb6Kn7Qj9nUfDFcYkYAmBJEB6AoIkQwAR8MILqil5Yt9PUPmW3rEIIUSoeuw+jg+e++a7dtNKXnvkO+FcNrgD+AgQsQ0K4okkAMFbDNwHXAaUEshCa4HXgIcY3cryjU1DuR6z9zngSp3iFEIITSkq1Ha48J+uG+ADbAPdrHz0uxza+ka4wtlOIAmI2OYE8UISgPOXDDwC3M2Z//sNA/e+vrVnjx/D6xioilh0QggRAR3DXrqGfWP+/O53X+D1x76Px+UIRzg7CNyMRfzwglgmcwDOjxX4J3AjZ0+erMAtOQXj7q6aNqckIpEJIUQEJZuN9DjGngAUT6yhZuE1tB7eiX2gW+twSoB5wAvAadYoiNORBGDsDMATwFhn7xt2b30vefHyj5KZnRfGsIQQIvJMRgN2t4LHP/at+lMzcph3+a143SO01e/WOqQqoBx4VeuC45UkAGP3nwTOqx4zRfEz2N/LJVfcEKaQhBBCPyow7Dq/G26j0UTVnGUUjq/myK41Wi8XnEOgXVujZaHxSuYAjM3dBO7+z/u/l8Vi5em36klOTdM+KiGE0JFPgQMdzqDP6+s6eoi//vyzDHS1ahsY3AU8o3Wh8caodwAxYAHwR4JMljweN8da6rWNSAghooDZCClJwTcjRROm8bn/XknlrEs0jAoITNSernWh8UYSgLPLAP5KYFJf0GxDskRVCBGfMiyhNSOpGTnc/R9PMWvpTRpFBEAa8OLoszgDSQDO7iEIfQlfemaOBqEIIUT0SbWG3oyYTGY+9sCDLLr+Xg0iOmk68ActC4w3MgnwzO4GfhBqIRaLlc987SeYTGYNQhJCiOhiNEKP3R9yOQaDgaq5yzBbkmner9mBf7OBRmCfVgXGE0kATq8MWEWIXf8Ayz5yC4uXy7k/Qoj4ZDIa6LKNfT+Ac5kwbQHWlHQa9qzVqsglBE4QHNGqwHghCcDpPUbgxKmQJKek8vUfP0pGlgwBCCHiV/+IH7+G2++UT5mP0Wim+cAmLYpLA4qAl7UoLJ5IAvBhK4CfaVHQl7/3ILMu0Hx2qxBCRJUhp/+8NgQai4qai/D7fBw9tE2L4mYDG4BmLQqLF5IAvJ+VwGE+IW/d9/FPf5Ub7vxC6BEJIUSUG3QpuH3aJgAAlbMWM9DdRmfLwVCLMgALgYeRrYJPklUA7/cloDrUQpasuIm7Pv8dDcIRQojoZwzjlnIf/fzPGT91gRZFTQY+pUVB8UJ2AvyXFKAJGBdKIVXT5vDzP76OxRLy/EEhhIgJR/s9DIyEvhLgTBxDvTzyresZ7G4LtaijBG7yPKFHFfukB+Bf7iPExj81LYP/95PHpPEXQiQUv6p99/+p0rLyue2bj2ixnHoC8FkNQooLMgcgwAo8D2SGUshXfvB7auYu1CYiIYSIET12P16NJwF+UGZuEUaTiabQ9wiYA/wOCF+XRYyQHoCATwCloRSwdMXNLFmh6VaWQggRE5QITau75Kb7mTD9wlCLKQVu1CCcmCcJQMA9oVycnpHNZ7/2E61iEUKImBLuu/8TjEYTN33pV5iTQh5mlWEAJAGAwISQRaEU8KkvfZ/s3AKNwhFCiNjh8alhnwNwqtxxE1j00ZDPDFgOTNQgnJgmCUBgWUjQqyHKJ05hxQ13aRiOEELEDmcY1v+fy5Kbv0hGTmEoRRgJsec3HkgCACG13nfc+00MRvnPKIRITC5v5OfSWVPSufz2r4dazC1axBLLEr3lmgaMD/biCZOmsfhyOehHCJG4HO7I9wAAzL70FtKzQxp6nUpgWWDCSvQE4IpQLr7u1nvl7l8IkbAUBexufVbTmZMsXHT1/xdqMSs0CCVmJXrrtTzYC5NT01j6kZu1jEUIIWLKsMuPok8HAAALrrobc5IllCI+olUssSiREwAjsCzYiy+54kZSUtM1DEcIIWLLsEvfvXRSM3KYNHtpKEVcqlEoMSmRE4DxQHawF1+4JKETRyFEglNUGHLqf7De9IuvCeXyPELcAj6WJXICMDXYC03mJGZdsETLWIQQIqb0OXwRXf9/JlMvvBJjaGcE1GgVS6yRBCAI1TXzSE3L0DIWIYSIKb12n94hAJCSnk1B2eRQipiuVSyxRhKAIFRUJezvixBCMOzy49ZhA6AzKZk0I5TLp2kVR6xJ5AQg6HGfCZMS9vdFCCHoGI6Ou/8TiitnhnJ5wu7jnsgJQNB9+MXlCb+FtBAiQQ2M+HF69J/8d6qcgrJQLg/pGPhYJglAENLSEvb3RQiRwBQVOoa9eofxIcnpQS/oAkkAElLQCUBKukwAFEIknh67F08Ujf2fkJKeFcrlkgAkoORgLzQaTVrGIYQQUc/pVeiMsrH/E0yhLQNM1SqOWJPICUDQHLYhvUMQQoiIUYHWAS9RsOz/tJx2+U4OhiQAQXDIL5sQIoF0DvuibuLfqZwO+U4OhiQAQRjo69Y7BCGEiAiHW6E7Cif+nco+0KN3CDFJEoAgNNcf0DsEIYQIO49PpbnPTZT2/J/U0SzfycGQBCAIjYf36h2CEEKElapCc78HX/T2/J/U0bRf7xBikiQAQWiq24/fF91dYkIIEYrWAW9Uj/uf4Pf76Gw5pHcYMUkSgCCMOGwc2LVJ7zCEECIs2oe8DIxE55K/D2ratwG30653GDFJEoAgbXr3Nb1DEEIIzXUO++i2xUbjD3Bw8yq9Q4hZkgAEacvaVfj9sfNHIoQQ59Jr99EZ5TP+T6X4fRze/rbeYcQsSQCCNNDXLb0AQoi40Wv30TYYO40/wIFNK3EM9eodRsySBCAE/3j693qHIIQQIeu2xV7jD7Bl5Z/0DiGmSQIQgoZDe6jds0XvMIQQImjtgz7ah2Kv8W8+sJm2I3v0DiOmSQIQoid++5+o0bpBthBCnIGqqhzt89Btj73GX1VV3n32f/QOI+ZJAhCiw/u3s+Htl/UOQwghxsynqDT2ehhw+vUOJSj717/M0UPb9Q4j5kkCoIE//+YHuJwjeochhBDnNOJRqetyY3dH/yY/p+P1uHj76V/oHUZckARAA73d7fz1kZ/rHYYQQpzVwIiPhh4XXn/sDlu+8/TPGeo9rncYcUESAI288tzD7N2+Tu8whBDiQ1QV2ga9HO33osRu20/j3vVsef1xvcOIG5IAaERVFP7vh1/ENtSvdyhCCHGSy6tS3+Oi1x7bG5c57UO8/PtvyKRrDUkCoKG+ng4e/K8voyqxObYmhIgvvQ4/9d0unJ7YbjQVxc9LDz7AUG+73qHEFUkANLZt/Zs8+dCP9Q5DCJHAfAq09HloG/DEdJf/CW8/+VPqd67WO4y4IwlAGLz05G9465Wn9A5DCJGABp1+Dne6GIzRJX4ftGfNi2x89VG9w4hLkgCEySP/8y327VivdxhCiATh86s093po6fPgi4fbfqBx33pe+cO39A4jbkkCECZej4cffe1Oandv1jsUIUSc67X7ONTpZsgVH3f9AK2Hd/Dsz+/F74u9nQpjhSQAYeR2OfnR1+6kvnaX3qEIIeLQiEehvttN26AXfxzNju9oPsDTP/kUHpdD71DimiQAYTbisPGfD9wmSYAQQjNev0rrgIf6bjcjnvhaddR2ZA9/+cHtuBzDeocS9yQBiADb8ADfu/9Gdm2WWaxCiOApKnTZvBzqdNHviJ/u/hOa9m3giR/egdM+pHcoCUESgAhxOUf48TfuZt2bf9c7FCFErFFV+hx+DnW66BjyxcXSvg/at/5lnvrR3biddr1DSRgmvQPQ0VeA7EhWqCh+Nq99nZSUNKbOWhDJqoUQMWrQ6ae5z0P/iD8uG36ADf/4Aysf/S6KPpuoDQIP6lGx3gx6B6CjZqBCr8qXrriZL3/vQazJKXqFIISIYsNOP53DXka8cdrqAz6vm1cf/jZ71ryoZxgtwEQ9A9CLJAA6qpwyk+/895MUFpfrGYYQIooMjvjpsvlweuNrct8HDfd38uzPP8vxhr16h9KCJAAJR/cEACAnr5Bv/PhRZs6/RO9QhBB6UVX6nQrdNi+uOL7jP6Fp/0b+9usvYR/s1TsUkAQgIUVFAgBgMBi47tZ7+fS//RBzkkXvcIQQEeJXVfrtfnocPjy++G/4Fb+PtX/7DWtf/A2KEjWrGFqQBCDhBJ0AGE1mFL/2R2tOmXEB3/jxIxSVTNC8bCFE9HD7VHodPvrt/rjawOdsBrpaefHXX6KtfrfmZYf4ndxCgiYAsgwwCPPv/AXm5HTNy607sIMH7rqM1Suf1bxsIYT+RrwKrQMeDne66LH5EqLxV1WVXauf56GvfyQsjX9Scgbz7/yF5uUmAkkAgpBXMYel9z+BJTVL87JH7MM8+F9f5of/divdHcc0L18IEVl+RaXX7uNwl5v6Ljf9Dj/x3+wHDPa08dSP7uLl338D94j26/uTkjNY/PnHyKuYo3nZiUASgCBll9dwyRf+HJYkAGDXlnf54m2LeOnJ36DqszZWCBGCEa/CsQEPtR0u2ga9uOJ8Vv+pVFVlx1vP8PuvXEnDnnVhqeNE4587YXZYyk8EkgCEILtsOos//yes6blhKd/tcvLE7/6Lf//c9TTVHwhLHUII7fgUlW67l8OdLuq73PQ54nfznjPpaD7An777MV59+N/DtqufNT2PJff/RRr/EEkCEKKc8hlc+pXnSS+oCFsdh/Zu5aufvJxf//B+hgb6wlaPEOL8KWpgt76mXjcHOty0D/pwJcCM/g9y2odY9acf8Mg3r6P18Paw1ZOWV86yf3uG7PKasNWRKCQB0EBaXjmXPvAceRPnhq0OVVFYs+oFvnDLRbz23CPRtIRGiIRkc/lp7fdwoMNJS5+HYZcCCTCp74NUVWHPe3/jN19axpbXHw/rd1PO+Flc+pXnwnrDlUgkAdCIJS2bxZ9/nHE1l4a1HrttkD/+6rs8cNdl7Nj4dljrEkK8n92t0DbopbbDRWPv6P78iTO0/yF1O97h919dwd9/81Ucw+HtnSyecTlLv/gk1vS8sNaTSMx6BxBPzJYUFn3mD9S/+xi1r/8aVQ3fN8PRhoP811fvYOrMBXzqS9+nZu7CsNUlRMJSVYbdCkNOP0MuPz7peAOgrX43bz/9M5oPbA5/ZQYD1Zd/lpprv4rBIPesWpIEQGsGA9XL7yW9oIIdf/13fG5HWKs7vH873/7c9Sy89Fo+8flvM75yaljrEyLe+VUVm1Nh2OVnyKkkxFr9seo+Vs87z/yCw9veikh95uR0FnziFxTPWB6R+hKNJABhUjLrSi4vnsyWx7/EcGdD2Ovb/N7rbFn3Ty5YdAV33Pv/qJom62KFGCu3T2XY6WfI7cfhVlGl0X+frqOH2fDyw+xf/3LE5h+lF1Rw8T2/I3NcVUTqS0SSAIRRekEFyx54jr0v/YjWHa+EvT5VUdi+4S12bHybC5dexW33fF0SASFOQ1XB7vZjcwfu9BPhAJ5gHG/Yy9oXH6RuxzsRTYomLLiR2R/7D8zWtIjVmYgkAQizpOR0LvjELyiatoTdL/4Qnys862JPpaoqW9f+k61r/8m8hcu5+e4vMeuCJWGvV4iopYLTqzDsVrC7/Dg8SsKtzz8fTfs2sOHlh2nYszai9SalZDL34z+gbO61Ea03UUkCECHl864jb+I8tj/9Tfqadkas3l2bV7Nr82omTq7hmls+w2XX3obFYo1Y/ULoxeVVcHgUbG4Fu0vBJy3+Wfl9Xg5ve5ONrzxC25E9Ea8/d8JsFtz1P6Tlj4943YlKTgMMwlX/sZrU3NKgKlUVP/XvPsbhNx/C73MHVUYocvKKuPbWz3L1zZ8iIys8OxgKEWkq4PQo2D2BMXy7W8EvDf6YjNgG2PHW02xd9RdsA90Rr99ktjL1qi9SfdlnMBhNQZUx0n+cN34U9ETBFhL0NEBJAIIQSgJwgr23ld3Pf4+ehm0hlRMsc5KF2Ys+woobP8mCi5dhNsnyGhE7fIqK0xO4w3e4VRzexF6PH4z2xv3sePsZ9q79O163U5cY8ibOY97tPyajsDKkciQBCI4MAegkPX88S+5/guYtL7L/lV+EfbngB/m8HnaufY2da18jv7SKBVfcymXX30V+bi6pFiMpSQYMhkTOD0W0UEfH7x0e5WSj707ArXa14B6xs3/DK2x740k6Ww7qFofJksy0FV9k8uWfkbX9Okrkb3hdewBONTLQzr6Xf0b7Pn139rMkpzJj8fXMuezjVEy/6GQikGoxkpxkJCXJiDGRf2NE2CkKuHwKIx4Fp1dhxKvi8sqyvFCoqsrRQ9vY/e4L1G5aicc1oms8ZXOuZuYN3yIle5xmZUoPQHCkByAKpOaUcPGnf0tPw1b2vvSjiOwbcDoe1wi7Vj/PrtXPk5VfwqwlNzLvitvJKx792zCA1WQg1WIiJclAcpKR5CSwyPCBCILHr+Dyqji9ge58l1fB5VcDA/oiZEO9x9m3/hV2vv1X+juP6h0OGYUTmXXTdymaeoneoYhRiXw/FzU9AKdS/D4a1j7B4bceiviwwOkYDAbKp1zAnEs/Rs2ia0lJz/7QZ4xGSDYbA48kw8mHxWhM7N8wAQQ22XF7FZynPvsUGbMPgxHbAAc3r2LPey9xrG5HVPScJCVnMO2qLzFpyV1BT/I7F+kBCE4ifz1HZQJwgtvWx6E3f0/LlhdQ/L6w1jVWJpOZylmXMGPx9Uy9cMVpk4FTGQxgNRtJNhuwmAxYkwxYzUasZgNJpkT+1YszKnj8Km6/iser4vYruL0qHr+Ky6ck4gF5EeW0D3Jo65sc2Phz4dqfAAAgAElEQVQazfs34o+S7wujKYmJi25j6or7saaHd8WRJADBkSGAKGXNyGPOLd+natmnqF31a47vfVP3o0b9fh9Hdr/Hkd3vBZKB2UuYsehEMpD1oc+ramAttsv74bIMBrCajFhGhxAsJgOW0UTBYjJiDs+NggiGCl5FxetX8fgCDbvHr+LxKYGG36fq/auZcJz2QQ5ve4sDm1bStHd91DT6ABgMlM+9hulXPyBr+qOcJABRLr1gAhd96v8YaN1H7eu/prs+AqdvjYHf7+PIrjUc2bUGk8nMhOkXMWXBFUxdsIKconP/0atqYLKXywfw4b5gowHMJgMWo4Eks+F9PycZA/9OMhlkUmKIFCVw9+5XAo26zx9o6H3qaGPvCzT+0dCVnOj6O49St+Nt6ra/Q8vBrVHTM3iqoimLqbnu62SXTdc7FDEGifz1GdVDAGfS17ybutWP0Fn7ni71j0VO0XimXHAFUxZcwcSahRhN4cszTyQKZqOBJCOYR3sPTEYwGQKJgslgwGQEszHwszFO5ywqCiiqildR8SuBtfJ+RcWngH/0tZPv+RW8flW2w41iqqrQ0VQbaPR3vEN74369QzqjvInzmH7NAxRUXaRL/TIEEBxJAIKgZwJwQl/zLg6/+Xu66jbqGse5pGXmUTn7EqpmL2PSnCVk5mq39CdoBgNmoxpIDAyBfxuNYDYYMI7+bDSceBjAoGIaXat8YsGD0WDgg3mE0cg5/6IUhQ/NclcINMSqqqKogQJO7GJ3YvtavxK4TFFU/GrgfUUNNPh+P3JkbZwY7u+kcc86Gvauo2nvBhzDfXqHdFZF05YybcX95Fboe+iYJADBkQQgCNGQAJzQf3Qv9e8+Rsf+1ahq9E+rLiyvpmrOMibNWUrF9ItIsqboHZIQuvG6nbTUbqFhzzoa966j+1i93iGdk8FoomTmcqov/yw542fpHQ4gCUCwJAEIQjQlACc4+o7RsO5JWra8iN/j0jucMTGazIyrmMakWUsYP/UCJtRcTHJqht5hCRE2XreT9qYDtB7eTtPeDRw9tA2fN/JnggTDaLZQNudqplz5uZC37tWaJADBkUmAcSItr5zZN32XaSvup3HDX2ne+CwuW6/eYZ2V4vfR3rj/5NimyWSmpGo2FdMvYkLNRYyfukASAhHTXCM2Wg9vp6V2C0drt3K8cV9UTt47m+TMAiov+QSVi+/Akvrh1T4idkkPQBCisQfggxS/l479q2ne/ALdRzbrvoQwWDlF4xk/dQElk2ZSMmkWZdVzMYVxUqEQwVIUP73HG2lv3Ed7435aD2+no6k2JobmTie7vIaqJXdTNu+6sE7k1YL0AAQnuv+viqAZTUmUzrmK0jlXMdReR9OGZzi28zV8Hn1O/QrWQFcrA12t7F37EgDWlHRKq2ZTVj0vkBRUziS7sEznKEUiGug6RkfzAdob93OsbiftjftwO+16hxUSszWN8Rd8lMrFd5JZPFnvcESYSQ9AEGKhB+B0vC47x3evomXrS/Qf3at3OJpJSc+iuHImxRNrKK6cQfHEGvJKKjGGadtRkVgUxU9fexMdzbV0NB0IPJoP4LQP6R2aZvImzmXChTdTNvcazNY0vcM5b9IDEBzpAUggScnpVCy8lYqFtzLc2cDRrS/RuuNV3PboXmp0Lk77EE37NtC0b8PJ1yzJqRSUTaZw/BQKy6spHD+FgrIqsgukt0Cc2WBPGz1tDXS31tF9rJ7u1jp62o7ofoJeOCRnFjD+ghuYcNHNUTepT0SG9AAEIVZ7AE5H8fvoOryeYztX0nFgNX5vbKwgCJY1Nf1kYlBQWkVe8UTyiieSM24C5iSL3uGJCPB5PfR3ttDX3kx/Zws9xwMNfs+xIzHfhX8uZksKxTOWUz7/OoqmLgnb4TyRJj0AwZEegARnNJkprrmM4prL8LkdtO97m2O7VtJdvxlV8esdnubcI3ba6nfTVr/7fa8bDEay8kvIK55IbnHFyefcovFk5ZdiTU3XKWIRDPeIncGeNga6j9HX0Ux/R8vJ56He9pidmBcMg9FE0ZRLKJ9/HcUzlmO2puodkogSkgCIk8zWNMYvuJHxC27Ebeujff/bHN/7Fj0NW+MyGTiVqioM9rQx2NNG4771H3o/OS2T7IIysgpKySkoI6uwjOz8EjLzS8jKKyYtu0BWJ0SI3+fFMdTLUF8Hw73tDPYcZ6jnOAM9bQx2tzHUexyXY1jvMHVlNFsomHwxJTOvoGTmFWE/jU/EJvnGEqdlzchj4qLbmbjodjyOQdr3v8PxfW/RU78ZxX+a4/3inMsxTKfjIJ0tB8/4mfTsfNKy8snMKyY9O5/M3HGkZReQmVNEamYuqRk5pGTkkJqRg8mcFMHoo5/f52XENoDTNsCIbYCR4X6GB7pwDPYw1NeJY7CH4f5OHEO92Aeje38LvSSlZDJu2lJKZl5B0bQlMTmZT0SWJADinCxp2VRcfAsVF9+C12Wj69B6OmrX0HV4PR7HoN7hRQ37YKBx6jp6+Jyftaakk5KRTVpG7smkwJqaQXJqBtbUDKwp6VhT0rCkpGNNTSc5LQtrchqW5FSSrKmYzGYsydHxBe9xOfD7fHjdI3hcI7hdDlyOIdwjdjxOO26nA7fTjnvEhmvEhnvEdrKxdwz347QPxv3Ye7ikZBdTPONySmYuJ3/ShVG/Xl9EF/ltEeclKTmDsrnXUDb3GlTFT1/zLjoPvkdH7XvYuhr1Di9muJ123E47g91tIZVjNJmxpqRhMBixpmZgMBhITsv81/tGE9aUD++maDAasKYGPuceGUY9zbGAbqcN5ZShH5djGFVVcY/YUFUF94j9fe+LyMgsrqZk5nKKZywnp6wGDIk8l1uEQhIAETSD0UT+pAXkT1rAjOu/icvWS1/jDrrrN9F5aD3OwQ69Q4x7it93cj36iG1A52hEOFjT88ivWkBh9SKKpl5Cak6J3iGJOCEJgNBMckb+yd0HIXBAUXf9ZrrrN9FdtwmvM7EnZgkxFmZLCrkVcymsXkhh9SKyy6bLXb4IC0kARNik5ZUzcWE5Exfeiqr4GTp+OJAM1G+mt3F7Qk4mFOKDDEYTWaVTKaxeRGH1QvInLcBokkmiIvwkARARYTCayC6vIbu8hurl9+JzO+hv2Utfy276j+6lv2WP9BCIhJCUmknuhDnkTphNXsVccifOxWxJ0TsskYAkARC6MFvTKJyyiMIpi06+5ug7Rl/TTgbaaulr3sVQ26GE2rBFxB+D0URG4USyywLJb/7E+WSVTcNgMOodmhCSAIjokZZXTlpeOeMX3AiA1zk82juwl/6W3fQf3YfXZdM5SiHOzJKWffLuPrdiDrkTZsl6fBG1JAEQUSspJZOiqUsomrrk5GuuoW4G2mqxdTYw3NnAYFstw12NoH54GZsQ4ZScWUB2eQ2Z4yaTWTSJ7PIZZBZNkgl7ImZIAiBiSnJWIcVZhRTXXHbyNa/LznB7HcNdjQx3HmHwWC2DbQfj/mAjERlGk5n0goqT3fiZ46rILp2GJS1H79CECIkkACLmJSWnk1c5n7zK+SdfU/w+bF2N2LoasHU3Y+tqxt7TjL27GZ/HqWO0IlqZrWmkF1aQUVBBemElGYUTySyuJqNwYtycmifEqSQBEHHJaDKTVTKFrJIpH3rPOzLMcOcRhrsacfQdY7jzCLbORkb6j8ukwwSQnFlA5rjJpOWVkTGuisxxVYH5J7ll0n0vEookACLhJKVmfqjHAMDvdWHvOcpI/3FG+o/j6D/OyMBxRgbaGelvx+OQnfZigTUjj9ScUlJzS0jNKTn5c1peOekFE2SNvRCjJAGIAs7BTtp2r6KveRfOoS7M1jSySqZSOuvKDzVSInxMScln7DUA8Hmco8lB28mkYGSgHedgJy5bL67hbvwemXcQTmZLCslZhVjT80jNLSU1p/j9jX1uKaakZL3DFCImSAKgI1Xxc/ith6hf/Rh+n/t97/Uc2ULD2r9QUHURs276NlklU3WKUpxgtqSQOdplfCY+9wiu4W7ctj5cwz24bL247X04B7tw2/sD79n78Y4MyVyEUWZrKkkpWaRkFWJNz8WaWUBKZgGWtNzAaxl5WDPySc4skA1zhNCQJAA6URU/W//yFdr3v33Wz/U0bOXd//0YlYvvYPrV/0ZSSuZZPy/0Zbamkl5QQXpBxTk/q/g8eJzDeEeG8IwM43WeeB7GMzKId2Q48L7Tht/jxOd2oPi9eJ02FJ8Hn9eJz+VA1elEPqPJjMmaijkpBaPZQlJKBkZTEmZrGiZLCpbUTJJSsj7wnIklNYuk1EwsKVkkpWbJEbZC6ET+8nRy+O0/nLPxP0FV/DSuf5q2Pf9kxnXfYPyCG2QnsThgNFtIzsgnOSM/pHJUVcHntOP3ufF7XSh+L373+3sXfF4nis/zvte8TjsASSnp74/LlITZkvr+15KsmJKsmCwpmEyBxl4mzCUOv8+N29aPyWzBmp4r/+/jhCQAOnDZeqlf/dh5X+e29bHz2W9zZM2fmHH9Nxg3/VLtgxMxx2AwkpSaiUxtE1pSFT+tO16lZcuL9LfsOblCxpKWTXHN5VQvv5eMwok6RylCIQmADlq3vxzSJjXDnQ1s+uPnGTdtGTOu/waZxZM1jE4Ikehctl62PP4l+lv2fOg9j2OQo9v+TuuOV5j50W9Stez/i3yAQhOSAOigr2mnJuV0HlpLV90Gxs+/nqkr7ictf7wm5QohEpfXOcz6330SW3fTWT+nKn72vfxzFL+P6ss/G6HohJZkIFkHLlufZmWpip+j21/mrZ9dza7nvoujr02zsoUQiWfvP356zsb/VLUrf8Xg8YNhjEiEiyQAOjBbU8/9ofOkKn5atr7E2z+7il0vfB9Hb6vmdQgh4pu95yjHdrx6XteoqsKhN34fpohEOEkCoINwjtkrfh8tm1/grZ9dzbYnv8Zgm2TmQoixad/3VlDbYXcdXo/PPRKGiEQ4SQKgg9JZK8Jeh6r4adu9inf/92Y2PHwP3fWbw16nECK2DXceCeo6xefB3tOibTAi7BJ5EmDQu6eEuvFK/qQFFE5ZRHfdppDKGavuuk10120ivaCCykvupOLij8uOakKID/G6HCFca9cwkvMT4neyPjtpRYFE7gEIur/K67SFXPn8O35GSlZRyOWcD3tPC/v+8VNW/WAJe//xE5kwKIR4H2tGXtDXJodwbahCTD70y1x0lsgJQNCtuMc5HHLlKVlFXHL/n8komhRyWefL57LTuO4p3vrJCjY9+jna97+j23ayQojokT9xXlDXWdPzxrT9dbh4Q/tODv2OLkYl8hBA0FmfVsfCZhRWcvnXXuLw2w9xZM2fUfxeTcodK1VV6Dy0ls5Da0nOLGDChTdTcfHHScsri2gcQojoUDzjcpJSM/GOnF+DOv6Cj2IwmsIU1bm57SEtrU7YBEC//2P6uwaYGcyFGYUTKZh8sSZBGE1mCqsXUjb3GuzdzTj6jmlS7vnyuUfoa9pJ0/qn6TmyBcXvIy2vTI5WFSKBmJKsmJOS6Tq8fszXWDPyuPCTv8Jk0e+7om3PP+lt3BHs5VuAf2gYTsxI5ARgNrAsmAtN1lTGz79e02AsadmMv+AGMourGTi6F69Lr6RUZWSgnc7aNTSsfYKB1v2AgfS88XJqmxAJIHf8LJyDnQweP3TOz5qtaSy+9xHSCyvCH9hZNK5/+rw2L/qAvwNrNQwnZiRyAlAK3BzMhT6XnerL7gnLiViZ4yZRecmdWNJy6D+6F8Xn1ryOsVJVBXtPC+373qJh7V/oP7oHo9FMesEEXbv7hBBhZDBQXHM5JksK/S27Ufy+034su3Q6i+59hOzymggH+AGqyr5Xfh7KPgSPAgc0jChmJPKZjhcDQS+Ov+yrL5IzPqgRhDHzOAY5/PYfaNrw14jPDzgbS1o2pbOvonz+deRNnCdHEwsRp1y2Xo7tfI2ehq04B7swW1LIKKqkeMZyxk1fFhV/+4PHD/LuL4O6lzthPrBLo3BiSiInABlAP0FOhKxefi8zrvu6thGdgaPvGIfe+B3Hdq2Mutn61ow8iqdfyrjpl1I4ZXFYtjkWItY5BzvoPLgWW3czis9LcmYBBZMvJrdidlQ0orGs7p1HqX39V8Fe7gFyCGFZeCxL5AQAYBuwIJgL0wsmsOI7b2ocztk5+tqoX/0oLVtfirpEAMBgNJE7YTbFNZdRPPMKOStcJDyPY4D9r/yC1h2vnnaL3aySqcy++bvkTwrqa0gAq//nBoba64K9fCNwiYbhxJREH8idAiwK5kLPyBD5VQtIy43ckjlLaibFNZdROvsjeBwD2LqaADVi9Z+TquIc7KC7fjNNG57h+L43GRnowGS2kpJVJHc6IqE4+o6x7rd30dOwjTP9nbptvbTueJWU7HFkl02PbIBxoP/oXurefjiUIp4C3tUonJiT6AmAFbgj2Is9jkHK51+nYThjY03PpXTOVZTNvQbF52a440hQB3iEm9veT1/zLo5u+ztNG//KcEc9PreDpNQsklIy9A5PiLDxe1ysf+hTY9sfX1XpPLiW/EkXRPSGIh4c/OdvGBrDaoWz+DEQ9PKBWJfoQwAZQBcQ3Mb4BgNXfmulLrv5ncpt66Np47M0rHsy1B2xIiY5s4C8yvkUVi+isHqRbD4k4srhtx/m4Kr/O69rMsdVsfybr8gKmzEaGejgrZ9+BMXnCbaIIWAc4NIuqtiS6L9pHgL7AQS9jsXjGKR09ke0iygIZmsqBVUXUrnwNiypmdh7WnQ9mGMsfO4RbJ0NdNauoXHdk7TueIWh44fxue1YUrNISpYeAhGjVJXtT38T33n+Dbrt/eRPWkBaXnmYAosv+1/979F9SoL2PPA3jcKJSYmeAAD4gNuCvXi4q4GCyReTmlOiYUjBMSVZyaucz6Qld5NVMgX3cC8jA+16hzUmXucwQ8cP0b7/HRrWPkHrjlcYbq/D47RhNJmxpGVjCMO+C0JobbirkfrVjwZ1bXJWIYXVQU1LSij2nqPsfuE/Qh36/HegUaOQYpJ8o0IygWGAzGALyC6bzmVf+1tUTnIbPH6QxnVP07ZnFX5P7PZ0ma1p5JTXkDN+JtnlM8gdP4vU3FK9wxLiQ7rqNrLx4c8EdW35vOtYcPcvNY4o/mx8+DN01W0MpYh+oIjADWDCkr1dIY1g5wCMGmw7SNOGZ5m05BMahaSd7NLpzL/jp8y66Tu07V5F88bnGDx+UO+wzpvP7aCnYdvojOqApOQMMosnk11eQ/7E+eRNuoDkjHwdoxQCjKak4K81WzSMJD4d27Uy1MYfAvO/soCQThGKdTIEAHcDN4RaSG/DNkpnXYk1PVeDkLRnMlvIKa9h4qLbKJq2BFQVe0/LGbf5jAWKz4NzsIOBo/s4vvcNjqx5nJatL9HXtJPhjnrc9j5UVcGSkikTq0TEGI1GGtY+EdS1ZXOuIr/yAo0jih9uez+bH7sfv8cZalEmoIEE3QHwBBkCgPcI8lCgD8ounc6lX30+pDuASPJ7XXTWvsfRHS/TdWh9VG4upAWD0URqTgkZ4yaROW4ymUWB54yiSbqeYCbi1+pf3hTU8rTl33yFrJIpYYgoDqgqm/90Px21a7Qq8V1guVaFxaJETwCKgTZAs8H7yZd+mpk3fEur4iLGOdhB647XaN3xCrauxJgXYzCaSM8fT8a4KjLHVZEzfhb5kxaQlJyud2gixrXtfp1tT57fVuHjpl/KontD2tQmrtWv/iMHVv6vlkX6CRwK16VlobEk0ftFbwQ+pmWB/S17SM0tJbt0mpbFhl1Scgb5lfOZdMknKJ55OUkpmbiGu2NmX4GgqCoexyC2riZ6G3fQtut1mtY/hWdkiLzK+THTkyOiT+a4yQx3Now5mbam57Lwnt+RlBL0XOS41tOwlZ3PfhtUTXc+NRIYAkjIkwBBEoAvA/O0LrTr0FryJy2I2VnqyZkFFFYvomrJ3RRNW0pScgbOwc7zXtccixS/j/6WPXQcWE3JzCswJ6fpHZKIRQYDxdMvw9bdOLpl95mlZI9j0b2P6L6hWLSydTez4eF7wrWKqRdYGY6CY0GiDwHUAdXhKNianseyB54lPX98OIqPOFVVGGjdT8f+1bTvfwdbd/zvnplVMoXLvvqizMwWwVNVWne+St3bD2Prbn7fW+bkdCouvJmpK+7HkpatU4DRzeMYYM3/3YajtzVcVRwGYqu7VkOJnAAUAZ3hrCA1p5ilX34mKjYJ0pqtu4n2/e/QsX81A637o/IsAi1Mv+YrTL3y83qHIeKArbsZe08Lfq+LlKxx5IyfIcNMZ+F12djwh88w0LovnNWoBNqCnnBWEq0SOQG4jAicApWaU8LSLz8dl0nACR7HAD1HttJRu4aOg2vwjsTPvIHkrEKu/v4aWUYoRAT5PE42PXofvY3bI1HdMmBdJCqKNon8rXYlcH24K/G6bHQdWk/p7BWYrfE5nmyypJA5roqSWVdSfdk9FE1ZTHJmPn6PE7etj6g6svg8+dwOSmZeQXJmgd6hCJEQfG4HGx/5LH1NOyNV5SYSdD+ARE4A7gAisum2xzHA8X1vUTRtKda0nEhUqRuDwUhqTgmF1QuZuOg2qpbcTW7FbJIz8vF7XXjsA8RaQlBYvZDMcVV6hyFE3POMDLHx0Xvpb9kdyWoPAe9EssJokchbAVdGsrKR/uOs++1dLL7vUbLLgz58MOYkpWZSMvMKSmZeAQSy+/6je+mu30x3/SaG2g5F/fwBgymR82QhIsPR18bGRz6DvedopKtO2OUXiTwH4B102AXKbE3jok//hqIpiyNddVRy2/vobdg+us//1qjchOjyb/yd7NLpeochRNwabDvIpj9+DtewLnPx3gZW6FGx3hI5AdgCXKRHxQajiZprvkL18nv1qD6quW199B/dy8Cx/Qy0Bh6ekSHd4knOLODqH66NypMehYgHbbtXsfO57+h5WukWYKFelespkROAWkDX27ryedcy77afyH7052DvbT2ZDAwc289gW23EvixqrvsaU5bfF5G6hEgkquKndtX/Uf/uY1rv8He+DgAz9QxAL4mcADQBE/UOIqd8Bhd9+jdxvUxQa6riZ7jzyMmkoL91P8Md9ZofZpRdXsOlDzwna7WF0Jjb1sf2Z75Jd90mvUMBaCbCc8KiRSInAM1Ahd5BQGBHsLkf/0/K512rdygxS/F5sHU3MdzZyHBHPbauJoY763H0tQWVGGSVTOGSLzyONT0vDNEKkbh6jmxh+zP/D9dQt96hnNBCFNwM6kESgChScfHHmXXTdzBbUvQOJW74fW7sXU0Md52SGHTU4+g/ftrEwJycTtXSu5ly5ecxma06RCxEfFIVPwf/+SD1qx+LtpU/LUgCkHCCTgAMlUtQmzdCGH6JMworueCu/yanfIbmZYt/8fvc2LoCB7U4B7swmS2kF0wgf9KFMidDCI0Ntdex89lvM9h2UPvCTRaM1VegHFoVbAktSAKQcIJOAIwXfxZDfhX+Vd8FjcedIbBKoPKSO6m59mvSGyCEiFmq4ufImsc5+MZvUXwe7SswJWG6/n9QO/ahbH082FJaSNAEQNY2BaO3AeOUFZiu/hGEYXmYqvhpXPcU7/7yJnqbdmhevhBChNvAsQOs+dXHObDyf8PT+JstmG/4FcZJS6G3QfvyE0Ai7wQYNLWzFlAxTr0KDEb8q74Hik/zeuw9Laz/3SeZuOh2aq75CkmpmZrXIYQQWvI6h6l9/f9o3vy85itzTrKkYv7o/2KYcBGoCkpHbXjqiXOJvMfpV4DgDuH2jGCcdCmG9HwM+ZMwls5BaXwP/GHIclEZOLafli0vYEyyklM+QzalEUJEpeN73mDjH++jt2Fb+Nb2p+VhvuVhDKVzAFA7D6Ds+msoJQ4CD2oRWqyRBCBIhvR8DOUXBH7OKsVYuQS1aR14HFrF9z5+r5uuw+vprH2PzOLJpOYUh6UeIYQ4XwOt+9n+5Nc58t7j+D3OsNVjyC7DfOujGPL/tX2/su8l1LaQDvNL2ARAJgEGyZBfhflTL7zvNXW4E//fv4zaF+b97A0Gyuddx/SrHyAtryy8dQkhxBk4+o5Ru/JXtO19I+y7+RnK5mP+6P9Ayqn3bSq+P38Mtb8llKJbSNBJgJIAhMB822MYyua9/0W3Hf8/v4fSuC6UosfEaEpi4uLbmXrlF7Cm54a9PiGEAHDb+6l751GaNjyD4veGvT7j3NswXfp1ML5/2praug3fi58PtfgWEjQBkCGAUHidGKdc+f7XzBaMUz+CwWBAbdsNhC8rVlWFgaP7aN70HIrfS075DIxm2bZWCBEenpEhDr/1ENuf/ga9jdvDv6GPyYJpxfcwXfSZ0664Utb+KtS7f5AhgIQU+k6ARhPme17GkFV62rfVpvX4Vn0P3LaQqhkrS1oOVcs+xaQld5GUnB6ROoUQ8c/rstHw3hM0rH0Crysy32eGzBJM1/8cw7jTb4qmDrTi+/PNWmzI1oL0ACSc0HsAVBWcgxgnLz/t24acCRgnL0dt3wuO3pCqGgu/10XPkS00b34Oxesmq2QKpiTZ1U4IEbzje95g06Ofo/Pge+FZz38axuorMN/8GwzZ5Wf8jPLOT7WabyU9AAlIm7MADEbMn3gKQ9G0M3/G78W/8SGUHU+FZfvgMzEnpzNp8Z1MWno3yZkFEatXCBEfGtc9xd6Xfxq543rNVkyXfh3j7FvO+jG18wC+Zz6FRkOsLUgPQMIJvQcAABV1oBVjzXWcMZ8ymjBOuBhj6VzU1m1hWyr4QYrPQ1/zThrXP42jt5W0vDKSM/IjUrcQIrb1Ne1k21Nfj9hNi6FwKuabf4ux8pKzf1BV8K/6Dgx3aFV1wvYASAKgheF2DGn5GMZNP+vHDFmlGGuuh+GO8C8VPIWqKgy1H6Z503P0Ne/EkpZDev4EMCRyB5AQ4my2PfFVnIOaNbJnZkrCtPA+TFf/F8LaC3YAACAASURBVIa0c9+gKHteQNn7Ny0jSNgEIJFbAG2PA7akYv7k82ecEPhBSsN7KKt/hmrv0SyE85FROJGKhbcy4cKbsaRm6RKDECI6DXc28M4vrgt7PYbCqZiu+k8MBZPH9Hl1sA3fk7eBV9PNhlqQIYCEo10PAIDfi9pzBOP0a8d0Z23IrcA480ZwDqF212kWxlh5HIN0122kcd1T2HtasGbkye6CQggAOg6spqN2TfgqSErBtPgLmK76IYb0Mc5PUvz4X/06DB7TOpqE7QGQBEBLw+3g92CccNHYPm+2Ypy0DGP5PNSOWnAOahrOWKiKn6H2Oo5ufYnj+95EVRTS88sxyTHEQiSsrrqN9NRvDkvZxqpLMd30IMbKJed1mqp/3YOoh98MR0iSACQg7RMAQD2+F0P+JAx5lWO+xpBVinH2xzBY01E79kMEdtY6Hbe9n65D62hY+ySDbQcxmpNIyx+PwZjIvyZCJJ6h44fpOqTtbqaGrFJMV/8I08L7MFgzzutape4tlPd+pWk8p0jYBEDmAIRDUirmO/+CIb/q/K919OJf9xuUg68Tzl0Ex8qSlk35vGsZf8EN5IyfpXc4QogI6G3awbrf3qVNYZZUTBd+GuP8u8BsPe/L1e46fM/do/W4/6laSNA5AJIAhIkhvQDT7Y+PeVLgB6kd+/Gv/TXq8T0aRxa8tPzxlM2+itI5V5FddvYVD0KI2OVXFf75n5fhGeoKvhCjCePMmzAt+hyk5gVVhDrYhu+5T4OjL/g4zq0FSQASTlgTAABDdjnmOx4P+pcfQGlci7L+dxFdNjgW6fnjKZ1zFWVzriar9CybIAkhYoZbUTnm8NFs9zGy6wX87/wsqHIMlUswLX3gvIZCP8TRi+/ZT6MOHQ++jLFpQRKAhBP2BADAUFCN+dZHIDmEpXaqglL7Gsqmh1FtIWTkYZKeP57iGcsZV3MZ+ZXzZc6AEDGmz+On1eGnfcSHcmLkUVXwv/YtlCOrx1yOYfyFmBZ/AUPJ7NACcg7he/E+1J4joZUzNi1IApBwIpIAABgKJmO+5aGQegIA8HtQ9r+Msu3PUZkIAFhSsyiatpTiGZdTNPUSkpLPb7KPEGKUqjLUUUfX4Y30NGxl8NgBPI5BrBl5ZJfXMOGCGymZdWXQCbdXUWl3+mm2+7B5z7Dbn6rgX/srlJ1/PWtZhtI5mC75Ioay+UHF8j6OPnx/+wJqb0PoZY1NC5IAJJyIJQAQWPdvuuUPGDKKQi/M70U58EogEdBuO0zNGU1m8ictoHDKYoqmLCarZKrsPijEWbhtfXTVbaR79OGynf0QsdwJs1lw9y9JyzvzoTmnUoFeV+Buv9N1yt3+ua7r+P/Zu+/wNq4r8fvfGQAsAAn23imK6hLVmyXZlrvjGid2nMRxerKb+tvUN05vu5vdeHeTOMk6GzsuiePEseUqd8mSrN4rSbGIvReQAEGUue8fQ8mSrUKCAAYg7ud5+ICCOPceF2LO3HYOo+19HO3UDnA79Dctiajla1Dn3YYy3q3Pl+pnqBP/3z6H6D8VlPbGqRGZAMScsCYAMFbe8o4HUNKKg9Og34t27Hm03Y+E+xcmIPFJGWTPWEXOjNVkz1gtCxRJMU/zeeip30tX9TY6q7cx2HZiwoV3ElNyWPvFxy6aBAx5NdpG/LS4/Lh8kzzbf2QQhG/yI5rvIvpP4f/7PyMcbUFtdxwakQlAzAl7AgBAQgrmm3+BUrQkeG0KDa3uLbQ9j0TUroFLsedVklWxjMxpS8mctoT4pOB+oEhSpBGan4GWY/Q27KWz+m166nbh97gn3W56aRXrvvj4OdMBbr+gfcRP24ifvlH/pPsIJdG8G9+z3wD3oBHdNyITgJhjTAIAevGL9d/WjwIOMtF+BG3PI2i1b4S19HAw2HMrziQDmdOWyRECKep53UP0Neynt/EAvfV76W86hM8Tmv3sKz7xKzLmXEXHiJ92l58ej4YIVxnfSdAOP63vNtB8RoXQiEwAYo5xCcAYdclHMa35EoRg1bxwdKAdegrt8NPg6gt6++FgyywmvWTB2Nd8Ugpmo5rMRoclSRfk7G2ht2EffY376anfy1DHSUSYEvHEGVei3fQf457XN5zmx//Wf6HtfdzoSBqRCUDMMTwBAFAKF2K68ecoSdmh6cDvQat5De3Ak4i2Q6HpI0xM5nhSi2aTXlJFeskCUovmjHvxkyQFm8fZz0DLcQZaj9PfdIjexv24B7sMi0dJzsH8mZcM638ixFAn/he+HSlTlo3IBCDmREQCAEBiGuYbfoJSujKk3Yiuan33wPGXjJprCzpLop3UglmkFs4mtXA2KQWzSM4uk2cRSEHl7G1msPUEA63HGGg9zmDrCUYGOowO61xxNixf3GJ0FJckGrfje/E+GOk3OpTTGpEJQMyJnAQAQFFRl30c08rPgMkS2r58HrSTb6Id2YBo2hV1awUuxRSXQEreDFLyZ2DPnU5y7jTsudPlmgLpkjSfh6HOOgZaTzDYevzMzd7rHjI6tEtS7LmYP/2i0WFcmN+Lf/vv0XY9HGmfOY3IBCDmBJwATL/iE9RuemjC23XGQ8megem6H6FkTQ962+cjHB2IY8+jHX8J0dcQlj6NEmdNOSshqCQ5p4ykrFISU3NRJlCWVIp+IwPtDHU1MtzdyHBXA0NdDQx3N+DqawvbnH2wqdPXY7r5F0aHcV6iuxb/S/eF5mQ/RWH65R+n9s0/BtpCIzIBiDkBJwDXffd1Oo5v5sBTPw5JEoDJgmnlZ1GX3TuhetmTJbpOoB3fiKh+OWJPGgwF1RxHUmYxtswSkrJKSBp7tWWWkJiaI5ODKOV1D+HsadZv7mfd5Ie7G/GNuowOL+hMt/wSteJyo8M4l+ZH2/0n/Nt/H5oy54pC1fu/R+6stWz88fpAW2kkRhMAuaQ6QOWr7wYUDjz1o+AnAX4v/q2/Rju5CdPV30HJnhHc9i9AyZ6JKXsmrP0SomUfWs1riLrNUz4Z0HweHB0ncXS89+hR1WQmMTUPa1oeiWn52NILSEzLx5qWhzUtH2taPqo5zoCoY5vm8+Aa6GBkoIOR/jZc/e2MDLTr74392TfqNDrMsFEKqlCnrTU6jHOIrhP4X/0pouNoaDpQFBbe8QPKVt2Jqy/kBYOmJJkATEL56g+hqCYO/P2HCC34B22IjiP4Hv8I6sK7MK3+PFisQe/jvBQVpWgJpqIlsP6biM7jaLVvIk5uiriqhKGm+X04e5tx9jZf8GfibGkkJGeQmJJDvD2LhLGvRHs2CfYs4pMziU9Ol3URxsHjGmR0uA+Psx+Ps5/R4T7cQ714hvtwDbSP3fDbL3lEbixRknMw3fCTsI4WXpTHif/t36Lt/yuE4HMRQFFNLPzADyhd8YGQtB8rZAIwSWUrP0h8Uhq7H/06fu/kT/R6D82PtvdxRM1rqFd8A3X6FcHv46IUlJzZmHJmw2X/jBhoRtS+gVa3Wd9WGKXzpcF0+mZ1vhGEsymqiThbKvG2NOKsqcTZxr6sqcTZ0rAkJmNJSMIcb8OcYMMSb8OckIQl0Y453hYVZyBoPg8+zwjeEQd+zwg+zwi+USfekWH8Hhe+USejZ27uA4wO9TDq7MMz3M+osz8kifRUpuTPx3TDT1Hs+UaHAoBW+wbam78I6aihyZLA0o/+B/nzrgpZH7FCrgEIwHXffR1resE57/U27GP7Hz6PxxXa7XVKyQpM674atkWCF+XqRTu5Ge3kJkTzLvB5jI5oSjOZ41Hj4olLtAOKPqKgKljik1BUE+Z4G4rJhDkuEfXsnSSKgiXRPq4+vCOOc6a0vG4nQrxzU/a5nWdu0p6RQfweN36PC++o85y/k0LIkoBSuAR13q36nH8EPPmL7hr8m+9HnNoZ0n7ibGms+tRvSS+tOud9V1+rXAMQAJkABOB8CQDAUFc9237/6dDPRykq6txb9GkBW2Zo+xovrwvRvBetaSfi1C5ETx167TFJkiZHQcmajlK6ErVkBUrBQoiUdSfOHvzbHkA78mzIRwNtGUWs/uyDJGWVvufvZAIQmMgfU4wiydnlXPHVJ9n58Ffoqdsduo6Ehnb4abQTL2Na9jHUxR8O3/qAC7FYUcrXYCpfo//Z2ftOMtC0c8ovJJSkoLJmoJYs5/RNH1uEFcryutD2PIZ/9yPgDf2OiqyKZSz72H8Rn5Qe8r5iiRwBCMCFRgBOE5qfoy/+FzWvPxhgaBOUmIppyT2oC+8CS0J4+pwgMdiKOLUTcWonWtOuKXMSoSQFhWpCyapEKV+LOm2tvvMnAob238PvQTv6PP63fwvO3rB0Wbbygyx4//cuugZGjgAERiYAAbhUAnBa055n2f/k90KzOPB8bJmYln8Cdf7tYIqQIcLzERqi4xiidT+i7SBa2yFwylXdUgyJT0LJm49asACloAold17EJu+AfuM/9A/8O/8Ytt9Vc1wiC+/8CUWLbrzkz8oEIDByCiCEipfcTEredHY98i8MddWHvkNnD/43/h1t959Ql9yDOu+2yPxQUVSUvLkoeXOBj2IChKMd0XYQ0X4Y0XYI0VVtZHlQSQoqxZ6v3+gLFqDkV6FkTovMJ/x3846gHX4Gbc8jYZ3GS86ZxrJ7fklKfnjOQIlVcgQgAOMdATjN73Vz5Pn/pO6tRwPpLnCJqahVd2JaeBckpoS378nSfIjuWn2UoPM4omUfwtFudFSSdGmKipJeOnbDr0IpXBQx2/TGzeNEO7IB/66HwjbUf1rxkluo+sAPMMcljvsaOQIQGDkCEAYmSwILbvsOmeVL2f/kd0O+VfCMkQG07b9H2/Mo6vxbURd9BMWeG56+J0s1o+TMQsmZdeYt4WjXRwa6qxHdNYiuGsSgPAFMMpApDiVzGkr2TJTsGfpXViVYxn/ziiTC0YG27zG0Q0+DdySsfcfZUll050/k/v4wkglAGBUsuIb0knnse+I+Oqu3ha9jrwtt75/R9v8VddrlqIvuQilcHL7+g0Sx56HY8+Ds885HhxHd1Xoy0F2jf99TF5pzx6XYFp/8zk0+ewZK1gyUjHKYAqWnRctetH1PoJ1805DDvXJmrmHRXT8hMSUn7H3HMpkAhFliah6rP/sHTu1+mkMb/hWvyxG+zjU/Wu3raLWvo2RNR114F+rM6yNzncB4xSehFC4+N6HRfIjeBj0h6K2D/lOI3kbEYItMDKRLM1lQUgpRMkoho+KdG37K+Kf9ooJvFO34i2j7nwhNlb5xiLOlMv+Wb1G89FZD+o91cg1AACa6BuBC3I5uDvz9R7QdfnXSbQUsIQV1zvtQ592KkjHNuDjCQfMjHG3Q14joa0D0NyH6GhF9jeDqMzo6KdxsmfpcfVqx/ppeCmkl+nz9FHiqvxDRW6cv7Dv2PIwYtx23sOp6Ftx+H/HJkz/jQK4BCIxMAAIQrATgtNaDr3DomZ8zMmDsIjclbx7qvNtQZ1wNcTZDYwm70SFE3ylE/ykYbNXXGzjawNGur36WIwfRyZaBkpyLkpKv39zTS1HGXmPq/3GPE636FbTDzyDaDxsaijUtnwW330fe3CuD1qZMAAIjpwAiQMGCa8iZtYbqV39H7aaH0Aw6U1+0H8bffhj/m/+BOvMa1Nk3oRRWERN5YnzyWVsT30VoCGcPDLa9kxSMfZ1JEMK8YEpCPxPfng/JOfpNPjkH7Hkoybln3ouYI3ONIDRE6wG0o8+hVb8alhP7LsZkjqdy/aeoXP9pTNE87TiFxMAn+wVFzAjA2YZ7mjj09M/oOLYpJO1PlGLPQ5l1PerM61AyK4wOJ3J5RxDDXeDq15MFZw/C1QfDXQhXPzi7wdmrvycL5lyYyYKSmAqJaWBNR7GmQWKq/p41HWxZKPZclKSc6NvaGiai5yTa8RcRJzYiHB1GhwNA3tz1zL/129gyCkPSvhwBCIxMAAIQygTgtI5jmzny/H/iaK8JaT8ToWRNR511A8qMa6NnO2HEETAyiHAPgnsIRh0ItwPcDn0aYmQQRh3gHtLfH3WAx4UYHQK/B8J1qmSgFFVfmGlJ1LfCWRIhwY5iTtC/j7NCXBJKYop+Qz99c09MQ7FlxNawfBAJRzvixMv6jb/n4mWpwyklfyZzb/46OTNWh7QfmQAERk4BRKjc2evImbWGpt0bOPbS/xi+PgBAdNfi7/5veOt/UHJno05fj1K5HiW1yOjQoojyzk3vnXcmxuMEvw/hGQbfqP7lGX7nPdBLM/tGz73O6wL/JU5XjE8694S6OBuo7/xZsVhBHfvYsJy+qdtQ4pL0P5vjJ/pPIwVI9J9C1LyOVvsGovOY0eGcw5pewOzrv0zR4vehRMOJhzFKJgARTFFUSpbdRuGiG6h76zFqXv/f8B0idFEC0XEUf8dR2PI/+sjA9CtRpq+X0wThMPaUrJxnCDyWh/Rigeiu0W/4tW9E1JP+aXG2NGZe/VnKV9+NGsvrL6KETACigMkcT+WVn6R89Yeo3/o4NW/8IUISAZ0+MlALb/9eP/O8dAVKyXLUstXGlymWpGjm8yBa9+ultWvf1HepRKA4WyrTLvsIFevuwZJoNzocaZxkAhBFzPFWKtd/mrLVH6Juy2Oc3PwwHueA0WGdQzjaEIf+AYf+gd+SgFq8DKV8DUrZZfoqbUmSLkoMdSLqt6DVb0E0747odR9xtjSmX/Fxpl32Yczxcv1GtJEJQBSyJCQx8+rPUbH2o9Rv/TMn33oEt6Pb6LDey+tGq3sL6t4CQEkvQylZhlK8DLVoqT7fLEmxbnQIrXkP4tRORNMu/WCqCJdgz6Ji3b2Ur/4Q5ng5yhetZAIQxczxNirXf5qKdR+jed/z1L75RxwdkTcveJroa0D0NcD+v+JXVJTc2SjFy1FLlqHkzZcLyKTY4BtFtB1Ca9qFaNqJ6DhmyPn7gbDnVTL98o9TtPh9qCaL0eFIkyQTgClANcdRsux2SpbeRsfxt6jd9BDdtTuMDuvihIZoP4JoP4K28//0/d85s1EKF6IWLEQpqIL4ZKOjlKTJczsQbQfRWvYhWg/oK/aj7GTJ7BmrmH75J/TtfIpcajpVyARgKlEUcmevI3f2OhztNdRtfZzmvc/hGzX2BLBx8XsRbQf1D0oe1muqZ5TrtdTzF+in9MnthlIUEP1NiI4jiLZDiJZ9iN76qHnCP5s53kbxkpspX3039rzpRocjhUAsp3IRfRBQsHjdw7Tsf5G6LY/iaDem4lfQxNlQsqajFFSh5Feh5s3VD5ORJKOMDiM6jqKNPdmL9iMw0m90VJOSlFVK6fL3U7byTizW6FjRLw8CCowcAZjiLAlJlK38IGUrPkBX7Q5O7XyKtkOv4n/3ITHRwOPUh1BbDwDgB5SUApTsmWdKtpJVKXcbSCEhhjoRXdXQXY3oqkZ0ntBrQ0wBJksCBQuuoWT5HWRVLDM6HClMZAIQKxSF7MqVZFeuxDvioHnf8zTufIqB5qNGRzYpYrAVMdgKta+/82Ziip4UZFXqiUF6OUpGmVxkKI2P162Xie6tQ3TX6Df7rmpwR87ZG8GSVjyf0uXvp3DRDVgS5JqbWCMTgBhkSbRTvvpuylffzWDbCZp2b6B5/wu4B7uMDi04Rgb1LVWndr7znqKi2PMgo1xfW5BeipIxTS8LK7cjxqbR4Xdu9H2NiJ466GvQqzxG4Zz9eCWm5lK48AZKlt2OPVee3BnLZAIQ41LyZzLvFr1gR1/DfloObqR57/N4nNE9j/keQtNHCgZbEfVbzv27BLs+lZBSCKn6q5JSgJI5DWyZxsQrBYfbMTZK1AID+qsYbIWBFsRgGyCMjjAsLIl28uZcQUHVdeTOWouimowOSYoAMgGQAL3uQEb5YjLKFzP3pq/RcXQzrQc30nFsU3TsIpgMt16RT3Qef+/fJaToyYA9F5Jz9frz9hyU5ByU5DywZYQ/XmmM0EssOzoQQx0w1Kk/vQ+16+8Ntk3JYfvxsiQkkzt7LQVV15M7a608m196D5kASO9hMsdTsOAaChZcg9/rpqt6G60HX6H96Jt4RxxGhxdebr107wWrrZni9OTAloFiywJbpl7W9vRrUrZe096aTmxvupkIAc4+hKsPhrvGXrsRrl5w9iCGu/XXoS69RLJ0RmJqLnlzriR/3lVkViyVh/VIFyUTAOmiTJYE8uauJ2/uejS/l+6a7bQdeYOOY5sYGegwOjzj+T2I/ibob7r4YLKi6mWAE+zvvCak6CMMiSnvfJ+QrBdQitO/lLik95bojQZC0+fYPcPgcelfXhdidAhGBvXEauz17O/PvDeF5+CDzZ5bQd7c9eTPu4q0ornyoB5p3GQCII2barKQM2stObPWAjDQeoyOo5toP/om/c1HQMTGfGpAhAausadaAph5Nsfr5yBYEiEhGVD0ssCqCcWcAKY4MMfpP6ea9QTibKpFv3Y8oXpHQHvXSXUeF2g+8I2Cz6MnPj43aH7wOPV/IveQfq3XFdEFbKKdoppIL60if+568uZdRVJmsdEhSVFKJgBSwFILZpNaMJuZ1/wT7qEeuqrfprvmbbpqtjMy2Gl0eFOLb1Q/Qx7gXdPaMu2a+hJTc8mevoKsypXkzFxDfJI8AEuaPJkASEGRkJxJ8ZKbKV5yMwDO3ma6arbTVfM2XTVv43XF2NoBSZoEc7yV9JKqsbM7VpFaOFsO7UtBJxMAKSRsGUWUrSyibOUHEZqfwdYTY8nAdnrq96D55OItSTpNUU2kFMwku3IV2ZUryZy2DNUkP56l0JL/h0khp6gmUovmkFo0h8r1n8bnGaG3fg+99XvpbdhPf/Phqb/VUJLOYo63klY0j4yyhWRWLCOjbBEmS4LRYUkxRiYAUtiZ4xLJmbmGnJlrABCan6GuBgaaj9DbsI/ehn04OuvkokJpykiwZ+nnbJQtIq1wDmkl8+UWPclwMgGQDKeoJuy5FdhzKyheeisAXvcQ/U2H6a3fR3/LEXrr9uJ1DxkcqSRdmjneSkr+TFKL5pBZtpjMimVy0Z4UkWQCIEUkS0Ly2HzoKkAfJRhsr2aw9YT+1XaCgdYTsXcwkRRR4qwppBTMIiV/JikFM0krnE1yzjR51K4UFWQCIEUFRTWd2XZ4NvdgF/0tRxnqOImj4yQDLUcZ6qxHyINkpCBLsGeRWjSHtMK52HMrSM6twJ4zTa7Ol6KWTACkqJaQkk1eSjZ5c644857XPXRmpMDReZLhrgaGuhpwO7oNjFSKFokpOSRllZKUXUZK/gz96T6/EnO8zejQJCmoZAIgTTmWhGQypy0lc9rSc97XfB6Ge5oY6jiJs7cZR8dJPUHorMfnGTEoWskIqjmOpMxiknMrsGUUYcsowp4zDXv+DCwJsjy0FBtkAiDFDNUcd2ax4dmE0HD1tTHc3cBwVyPOvhZcfW24+ltx9bfhcQ4YFLE0GfFJ6VjT8rGm52NNK8CWWURSVhnJ2aUkpuYZHZ4kGU4mABGif2wLnNvRjcmSQGrBLLKmr8Acb730xdKkKIqKLaMQW0bhma2JZ/P7RnEPduHsbcbZ24Kztxn3YBduRzfO3mZcfa1yzYEBLFb7maf3BHsWifbsM3+2ZZXIJ3lJugSZABisq2Y7h575GY722vf8nSXRTsW6j1F5xScxxclDQoxiMsefubFciNflYMTRhdvRdSY5GHF04XU5cDu6cTu6GBnskrsWLsFkjsditZOQkn3mpp5gz8ZitY99n0VCSjaJqblyH70kTZJMAAx0cvPDHN7w7xd8evSOODi+8Vec2vkU82/9Nvnzrw5zhNJ4Wax2LFb7e6YX3s036sI91IPXNYhnxKG/ugbxjjjOfXWd/vMg3lEn3pGh6DkYSVGwJCZjSUgmLjEFi9VOnNWOJTHlrNex98f+Pt6WRnxShkx0JSmMZAJgkLZDr3Jow7+N60Pd1d/Gjoe+SM6M1Sx4/3dJyioNfYBSSJjjrSTFB1a+VfP78I+68HlcaH4vXpcDze/F53HhGx17b0Q/LElofnzu4XOu9/s8+C9Rptdkicdkjj835gQbiqp/VMQl2lHNFkxxiZjjbaiqGYvVjmqyYI6zYoq3yjPsJSlKyN9UA/i9bg489aMJP9F1Vm/jtX+7ifLL7mbm1Z8nzpYaogilSKSazKhjIw0AZBgbjzT1Dfc0cWrnU/TU7WJksAtzXCJJWaXkzbuKokU3ymmYKCcTAAM073sh4D3pmt/Lyc1/4tSup5lx1WeYtvaj73likyRJmgyh+Tn6wv2c3Pwwmt93zt85Ok7Sdvg1TrzyAEs//O+kl1YZFKU0WarRAcSiruq3J92Gd8TBkef+g1d/dj2ndj2N0PxBiEySpFgnhMauR75KzRt/eM/N/2zOnibe+s09Qfk8k4whEwADuPpbg9hWG3v/8m1e/uk1NGx/UiYCkiRNSs3rD9J68JVx/azm87Dzka/gHuoJcVRSKMgEwABKCM4Od/W1sv/J7/Hav72P5n3Py0RAkqQJ8zgHqH7t9xO6xutycOKV34YoIimUZAJggKTMkpC1PdTVwO5Hv8YrP7+ehrefwO8bDVlfkiRNLW2HXsE36prwdS3yoSMqyQTAALmzLw95H86eJvb/7Qds/OEVHN/4azyuwZD3KUlSdOtrOhTQdR7XIENdDUGORgq1WE4AAj5VRUzyQJa8eetJygrdKMDZRof7OP7yr9n4oys58NSP5S+pJEkXNDrcN4lre4MYycRM8jM5Sk7YCr5YTgACLv/mGx2+9A9dhGqysPCDPw7rgSm+USf1Wx/n1X+9gW2//xQdxzbL8+slSTqHJdEe8LVx1pQgRjIxPvfQZC53BiuOaBPLCUDA/8ecPm1tMrIqlrHkI78I/9GnQtB5YitvP/hZXv3ZddS88X+GZu6SJEWOlPwZAV1niksgKbM0uMFMgGdyNTYm90QXxWI5AQj4P3qw5tMLq67niq/8jYyyRUFpb6KGe5o48twveOkHl7PzT1+hq/ptOSogSTGsYP416wD3KgAAIABJREFUKKppwtflzb7C0DoOXtekEoDJP9FFqYn/l546bgFmBXJhSsFMMssXByWI+OQMSpfdjjW9kL5TB/B7Ap6ZCJgQGkMdJ2nas4HmPc/idTlIsGcRb0sLeyySJBnHkmjH7ehmoPnIuK9RTWaWfex+4pPSQxjZxbUdfo3u2h2BXr4f+FsQw4kasZwALANWBXJhnDWFwqrrgheJopBaMIuyFR/A73Uz0HzUsMpv3hEHPXW7qN/6OK0HNzI63Ic1LZ84a+Bzg5IkRY+s6cvpPL4F99D4jiuvuuP75MxaE+KoLu7k5j8x1Fkf6OXPA68FMZyoEcsJQClwUyAXaj4PFWs/Gtxo0Cux5c5aS+HC6xkd7mWo42TQ+5iI0eE+PRnY8hhd1dvwjTqxZRRhjks0NC5JkkJHNVkoXHg9g23VOHtOXfDnTHEJLLrzJ5SuuCOM0Z3f0Rd+iTfwdQAPA/uCF030iOUEwA58LJALva5BipfeErJVr/G2NAqrriNz2hIc7TUBFw4KHsHIQDudJ7ZwcvPD9NbvBQS2zGJUs6wGJklTjckST/Him0gtnI3f48Lt6ELzewFIyiymZNntLPvoL4M2FToZzt4Wjr/868k08UvgwpnOFBb8M2mjRy7QHujF8275JtMv/3gQwzk/ITSa9z7P8Y2/wtnbHPL+JsIcbyV31jpy51xO7qy1xMk1A5J0QY6Okzh7mvB73SSm5JBWPA/VHGd0WOPmdQ9jssRHXAngmjf+jyPP/WIyTeQCnUEKJ6rEcgIAUAtUBHJhemkVl3/5iSCHc2Ga30fLvuc58coDDPc0ha3f8VIUlZTCWeTNvoK8OVeQWjgbQlDzQJKiiRAaTbs3UP3a7xjuPvch0xxvo2TZbcy85p8MXUAX7d68/wP0Nx0O9PIaILC9j1NArH9CPwh8KpALFUXl6m+/SFJWaXAjuoTTicDxl38TcSMCZ7Om5ZMz8zJy51xB9oxVmMzxRockSWHl97jZ/djXaDt88fVliSk5rPzkA6QWzQlTZFPHUGcdr/7b+yazaPpB4DNBDCmqxPIaAIBU4LbALhVofh95cy4PZjyXpKgqKQUzKV91F9a0PIa66iPynH+ve4iBlqO07HuBus1/or/5KL5RF3G2NCyJyUaHJ0mhJQS7H/sX2g69eskf9Y06aT30KgULrpO7bSbo6Av3M9BydDJN3A8EPHwQ7WJ9BCAfaCbAA5FMlgSu//6bhs59C6HRcWwz1a/+jr5TBw2LYyIS7FlklC8mu3IV2ZWrsGUUGh2SJAVV877n2f3o1yZ0Tc6staz+zP+GKKKpZ3S4l40/vHIyFU81oJBJrAWLdrE+AjAEXIm+JXDChOZDUc1kV64MalAToSgKydlllK74ABnlixgd7ovoqQEA36iLoY6TdBx9k7q3HqFpzwYGW0/gcw8RZ0vBkiBHCKTotuexbzA61DOha5w9p8iffzUJyZkhimpqqX7ld3TX7ZpME5uBSW0fiHaxngAAJADvC/TigaYjFC+5eVJFNILFllFE8ZKbKVx4I6DPj53euhPJvCMOBluP03b4NU5u/hNNezbgaKvG6x7GkmiXUwZSVBkZaOfI8/8Z0LWJqblkTlsS5IimHmdvM3se/yZC80+mmZ8De4MUUlSSCQDUA18lwH8XQvMz4ugK7smAkxRvSyN39jrKL7ubhOQMhnua8EbgOoEL8Y44GDgrIajf9hd66nYz3NOI3+PCkpiMOc5qdJiSdF4DLcdo2v1MQNda0/LIn3dVkCOaevY9cR+OjprJNOEFPskkqsJOBeGrRxu5nIAbCHhDbuuBjXSt3G7oVMD5WBKSqVh3L9PW3kN37Q4atj9J++HXo2JU4Gyjw710HNtEx7FNZ95LsGeRWjSHtMK5pBbNIaN0IXG2VOOClKQxmt8X+LW+6PrdNEJn9TbaDl96ceUljBDDVQBPkwkA3IB+KuCk7P3Lt1n/9Q2G1sS+EEVRzyy4Gx3q5dSuf9Cw4284I/A8gfFyO7rpOLqJjqObAP2fMSmrlLTieaQWzcGeW4E9dzoJ9ixjA5ViTmJKTsDXWtPygxjJ1OMdcbD/r/cFoyk7cD0Q2FDNFBHruwAAngQ+EIyGChZcy/J7/zsYTYWeEHTX7aZp9zO0HnwZ36jT6IhCwmK1Y8+dricEORUk51Zgz62QiYEUOkLw0o+uZGRg4ovL1/zTw2RNXxGCoKaGXY/8Cy37XwhWc08AHwpWY9Eo1hOAJPQjIIM2obzkw/9G8ZJbgtVcWPg9btoOv0rTng101Wyf7MKaqBBnTcGeO53k3Gn6a8400ornyh0IUlBUv/Z7jr5w/4SusedWsP7rG1BUuTTrfE7tepq9f/l2MJt0AjljrzEp1hOAm4Bng9mgyRzP2i8+Slrx/GA2GzbuwS5aDrxIy/6X6Gs6ZFhZYiMoqon00ipmXPlpcsN8wJM0tfg9bt68/w4c46zoqagmLvv8Q2RVLAtxZNFpoPkom3/9Yfwed7CbvhF4MdiNRotYTzU/DawKZoNC89NxbBOFC2/AkpAUzKbDwpxgI720itIVH6Bk6W0kpGTjcQ1EQEXCMBCCkf52mvc9j6uvhdzZ6+TTmBQQ1WQmZ9ZaOo5tuuQOHNVkZtGdP5ar/y/APdjFlgfuDdWJpy3Axc9qnsJi/dPtp0BBsBv1jbrord9D8eKbUU3Ru87Skmgno2wRZavupGjxTSSm5OAbdY0lA1N7ZGCw7QTOnmYKFlxjdChSlIqz2ilefBMeZz+D7TXnHU1LLZjNsnt+Sd7c9QZEGPl8nhG2/u4TDHc3hqoLC/CHUDUe6WJ5CiAZ6COEOyGyK1ex8tO/nXKFcDzOfjqObabl4Ea6qt9G83mMDilkln3sfgqrrjc6DCnKjQx00HH8LYY669F8HhJTc8iavoK04nkoSkAnkU95ft8o2x/8HF0120PZjRdII0bXAcRyArAc2BHqTnJmXsbKTz4QVXW/J8LrHqLrxDY6jr9F5/G3cE/w+NNIZ8+r5KpvBHWZiCRJl6D5fex46AtntvmG2FJgTzg6ijSxPAVwBXB7qDtx9jTh6DxJwYJrp2SmbzLHY8+tIH/eeqZf/nHy5q4nMS0PzTeqTxVE+SLC0eFeihbfJA8ZkqQwEZqfXY98lfYjb4Sry83EaEXAWE4A7gDWhaOjoc56BlqPkT/3qqheE3BJikKCPYvMaUsoXX4HFWs+SkZZFQnJmfi9o3iG+4jGtQPZlStJzi43OgxJmvL8Hjc7HvpSOG/+oN/8N4ezw0gxhe9Gl1QRzs46jm5i6+8+zspP/S4iTwsMBYvVTt7c9WcWOPlGnfSdOkhXzXa6at5msOU4QmgGR3lpkznaVZKk8fG4Bnn7wc/S13gg3F1PD3eHkSKW1wC8DIR9ibc9t4LVn/0Diam54e464owO99FTt5vu2p301O0a957pcFv7hUfJnLbU6DAkacoaGWhn2+8/bdRnwEb0Y4FjTiwnANsI8hkA4xWflM7ye/9b3lTeZXSol+66XfQ1HqS/+TADLUdDcfDHhJjiEnjfT3ZgsiQYGockTVW9DfvZ+fCXjDxrZCuwxqjOjRTLCcBBwLDj+lRzHFXv/y6lK4JShmBKEpofR8dJ+psO0990iP6mIwy2V4f1qOKyVXey8AM/DFt/khRLGrc/yYGnfmx0hdKDQJWRARgllhOAk8A0o4OYtubDzLvl21N7cWAQaX4fw92N9Dbso7d+LwMtRxnqrA/JWoI4WxpXf/N54pMzgt62JMUyze/l0NM/o37bX4wOBaCOMK8JixSxnAA0AKVGBwGQVjSXpff8kqTMYqNDiUreEQf9zUdxdNQy1HESR8dJHJ0n8bocAbdpjrdx2ef+j/TSmHwwkKSQcfW1suvRfzFisd+FNAJlRgdhBJkARAhzvI2qO74XdZUEI5l7sEtPBjpqcXTWMdRRi6OjDu/IxRODjPLFLLrzJyRnx+RngiSFTOuBjex78nuX/B0Ms0ZkAhBzAk4AlPRSRF9jUIM5rXjJLSx4/3ejspBQtBgZ6DgnIXAPdqGaLSRnl5M7ex0Z5YuNDlGSphSve5gDf/8hzXufC0n7SloJov9UoJc3IhOAmBNwAmC67AuI4S60A08GN6IxCfYsqu74vqwOJklS1Os8/hb7//Z9XP3tIWlfnX87SnIu/m0PBNpEIzGaAEy9s2nDQPTWY1r/TdSFd4akfbejmx1//AI7//QVPM7+kPQhSZIUSt4RB/uf/B7b/vczIb35m676/xA9kXmGSKSTS88DILpOAAqmK78BQoRsJKD1wEZ66naz4Pb7ZEU6SZKiRsv+Fzn49E8ZHeoNWR/qog9huuJrgILorglZP1OZnAIIkPlTz6GkFACg7XoY/5ZfEcpz7rMqlrHg9vuw51WGrA9JkqTJGOpq4NDTP6PzxJaQ9qMuuxfTmi8BIAZb8f3hpsk010iMTgHEcjGgrwABl3hTUotR8ubq3xdUoaTkIeq3QojOtnf1tdKw/Uk8rgEyyhZiMseHpB9JkqSJ8o44OP7yr9n7+DcZ7m4IXUeqCdNV38G07N4zb4mjzyMa355MqwPAf08ysqgkE4BAaT7U2e8780clewZq3hy0k5tAC9GpVkLQf+oQp3b9g7iEZFIKZk7JEsOSJEUHoflp3PF3dvzxi3RVbw1tca84K+Zb7kedcW4JF//WX4OjbTItx2wCIKcAAqWomD/xNEpq0Tlvi64T+Df8C8IRmkUvZ0vOLmfOjV/VdwsosfyfUpKksBKC1kOvcuzF+xnqCuET/xjFnofp1vtRss6dAhV9jfgeej+TnH5tRE4BxJzJjQAgQDWhlp5bT0ixZaLOfh+iqxoGWyYX4SV4nP20HHiJjuNbSMoqxpZeGNL+JEmSehv2s+exr1P75v/hcQ6EvD+laAnmOx5ASX3v55u2/feIjiOT7UKOAMSgyZ8EGJ+M5TMvQpztvX8nNPxv/Q/ankcJ5eLAs+XMvIyZ1/wTGWWLwtKfJEmxo7d+LydeeYDO6m1h6lHRF/td9s9wvqnO0WG8/3s9eJyT7agROQIQcyY5AgD4PWCyoBYtee/fKQpq6QqUjHJE43YIQ7UrZ08Tp3Y+RU/9HqxpeXJEQJKkSeuu3cG+J77DsY3/g7O3OTydxidhuvFnmBbedcHpTf+OBxFNO4PRmxwBiEHBqQVgScTyyQ1gy7zgj4jBVvwvfgfRdmjS3U1ERvliZl79eXJmXhbWfiVJinJC0Fm9lROv/Jbehn1h7VopqMJ0w09Q7PkX/Bkx3IXvj7eC1x2MLhuJ0REAmQAEgTr/dkxX33fxH9L8+Hc8iLbjDyHbKnghKfkzqFh3L0WLbkQ1x4W1b0mSoofm89C873lqNz2Moz3Mh+uoJkwrPoW64tPnH/I/i//lH6Id2RCsnhuRCUDMCV41QEXF/MH/RSm89Ny7aD2A/6XvIgZbg9L1RCQkZ1J+2YcpX30Xcba0sPcvSVJk8jj7qd/2BPVbH8c91BP2/pWUAv2pP3/BJX9WNO/G9+TnCOLaqkZkAhBzgloOWEktxHzPX8GSeOkf9o7g3/obtP1PhH00AMBkSaBoyc2Ur7qL1MLZYe9fkqTIMNByjPq3n6B5z7P4gzOcPjGKirroLkyr/3l8n50eJ74/3YmY3L7/d2tEJgAxJ6gJAIBa9UFM67817p8X7Yfxv/xDRG99MMOYkLTieZStvJPCRTdijhvHL6AkSVHN5xmhZd8LNGz/K/1Nhw2LQ8mswHTN986cqDoe/ld/gnboH8EOpRGZAMScoCcAoGC66V9RK68e/yV+D/6df0Tb9bC+q8AgloRkipfeTNnKO2W9AUmaggbbqmnY/iTNe57F6x4yLhBTHKbln0Bd9nEwWcZ9mXb8JfwvficUETUiE4CYE4IEALBYMd/9MEpmxYQuEwMtaFt+hVbzatBDmih7bgXFS26hZNntxCdnGB2OJEkB8rgGaT34Mk27nwn7av7zUUqWY7ryGyjpE7vfiu5afH+5F7wjoQirEZkAxJzQJACAklaM+cOPQnzyhK8V9Vvwv/kfiIEw7be9CNVkJmfmGoqX3krenCvkDgJJigKaz0P7kTc4tecZOo9vQWh+o0NCSSvBdMXXUMpWT/xi9yC+xz4SyoXTjcgEIOaELAEAUAoXYX7/byCQqn1+D9rex/HveghGh4MfXAAsVjsF866moOo6sqavRDWZjQ5JkqQxmt9Hd+12Wva/RNuR1/C6HEaHpItPwrT8k6iL7p7QcP8ZXje+v38e0XYw+LG9oxGZAMSckCYAAEr5Gsy3/CeoAd4s3YP4d/8Jbd+fwWfc+oB3s1jt5M2+goKq68iZuUYmA5JkAKH56Ws8QMvBjbTse5HR4V6jQ3qHyYI65yZMq/8JrOmBtaH58D3z/xANW4Mb23s1IhOAmBPyBABAnX0jput/xGT+VQtHG9rWB9BObDRk2+DFxNlSyZ93NXlzriC7chWmuASjQ5KkKcvvcdNV8zbtR9+g7fBrYSnGMyGKijr7RtRVn0Ox5wXejtDwv3if/pkXeo3IBCDmhCUBAPRM+NrvX/J0q0sR3bVo2/8X7eSbEZcIgH6+QHblSvLmXknunCtISL7w8ciSJI2P29FNx9E3aT/6Jl01243Zr38piopacQXqqs9OeAH0e2h+/Bu/j3b8xeDEdmmNyAQg5oQtAQBQK6/CdMNPA5sHexfRcxJtx4NoNa9HZCIAoCgqqUVzyZtzBTkzV5NaOAdFjeXaU5I0PkLz0998hK7qbbQf3cRA8xFEhP6eo6iolVehrvjU5G/8AH4v/he+hVb75uTbGr9GZAIQc8KaAAAoZZdhvvkXgS0MPA/RW4+28//Qql+BCFjpezFx1hSyKleSM2M12TNWY027cKEPSYo1rv42uk5spbPmbbprtuNxDRod0sUpKurMa1GXfxIlozw4bXrd+J79GqLx7eC0N36NyAQg5oQ9AQBQ8uZivuV+sAVvf71wtKHt/TPa4WfA6wpau6GUnF1G9ozVZFUsJ6N8MfFJAS4UkqQoNDrcS0/dXnrqdtJ5YhvD3Y1GhzQ+FivqvFtQF92NklIQvHadPfie+Sqi42jw2hy/RmQCEHMMSQAAlKRsTLf+F0rOzOA27HGiHdmAtudRxFBncNsOMVtGEdmVK8koW0RmxXKsaZNYQCRJEWZ0qJeeut30NOylt2EfAy3HQAStmE3oWTNQF9yBadFdkJAS1KZFdy3+Z76McHQEtd0JaEQmADHHsAQAgDgrpht+hjptbfDb9nvRal5FO/Akou1Q8NsPg+TsMjLKFpFesoD00iqSc6bJNQRSVBCan6HOOvoaD9DbeIDehn3R84T/LkreXNSqO1FnXBOU9UvvptW+if+l+0J1wt94NSITgJhjbAIAgKJXwlr31cDPCrgE0XUC7eDf0Y6/ZPQv2aSY462k5M8ktWgOmWWLyZy2VB5TLEUEr3uI/qbD9Nbvo7/lCL0N+yLnIJ5AmONQy9ehLr57XOV5A6L58e/4A9qOByNhIXMjMgGIORGQAOiUwsWYbvwZSlJW6DpxO9COPod2ZAOi52To+gkja1oeqYVzSCmYRWrhbFILZpGYmmt0WNIUNjLQwUDrcQZajjLQcpzB1mO4+tuNDisolIxy1Hm3o869KaBjzMdLDHXif+HbiNYDIetjghqRCUDMiZgEAABrOubrf4xSujLkXYmOI2iHN6BVvxwxRw0HS3xSBqmFs0gtmI09fwb23GkkZ5fLOgbShGg+D0Nd9Tg66nC0VTPQeoyBlmOMDvcZHVpwxSehzrgWde4tEyrLGyjRsA3fS9+Dkf6Q9zUBjcgEIOYEnABkTltKT93u4EYDgIJa9QFMa78MlsQQtP8uvlG0mtfQjj2PaNodCUNxIaGoJmwZRdjzpmPPrcCeq78mZZehhmBeU4oe+o2+gaHOkzg6xr7aa3H2NkdEEZ2QUFSU4qWoc25Cnb4+aNuSL8rrwr/pfrRD/wCCv/gxq2IZ3Sd3BXp5IzIBiDkBJwDXfucVjr/8G5r2bAhuRGOUlAJM1/0ApXBxSNo/r5FBtNrX9WSg9SCh+CWNRBarHXtOBfbcCmwZRWe+knOnYbLIY42nAs3vY2SgHWdvM87eFpy9zTg6ahnqqMPV3zZ1b/TvomSUo1RejTr3JhR7+M7hEG0H8W/8PqK/KSTtF1Zdz+wbv8orP70m0CYakQlAzAk4Abjuu6+TmJrLnj9/i+a9zwU3qtMUFXXxRzCt+mx4RgPOIvpPoR3fiKh5DdFbF9a+I4WimrCm5WPLKCQxNQ9rej7WtAL9NTWPxLQ8OXoQITS/l5H+dlz9bbj623H1t+Lqa9P/3NcaUzf5d1PSy1BnXoMy83qUtOLwdu514d/2ANq+J0I2uli85GYWf+jnjAx0sPHH6wNtppEYTQBkGbcAKaqJJXf/K4qi0LTn2eB3IDS0PY8gal5FvfKbodkueAFKWomeeKz6LGKgGVH7BlrdZn1L4RSdJng3ofnHnhibz/8DikKCPQtbegHxyZkkpuSceU1IziAxNZf4pAy5U2EyhGB0uA/3UA8jAx2MDveNvfYwMtCFe6gbV38bbkd3dO2pDyVFRcmbh1pxOcq0dSjppYaEoZ18E+2Nfw/peSQlS29l0V0/lduDJ0EmAJOgqCYW3/2vxNnSOLn5TyHpQzja8T/zFUTFFahXfgMlOSck/VyIklqEsvRjqEs/Bq5etJOb9WSgaWdElSgOOyFwD3bhHuy66I+pJjPxyZnE2dKIt6USZ0sjzppKnG3sy5o69n4qlsQUzAk2zPE2zHHhHfUJNZ9nBN+oE5/biXdkEI9zgFHnAB7XAB7n2JdrAI+zn9Hh/rHXXjS/z+jQI585DqV4Oeq0dagV68BqXNIpHO1ob/w7Wt3mkPYz/fKPM/fmr6NMssBarJMJwCQpisr8W79NYmouR579RciKdmgn30Q7tRPT8k+gLv5weBbuvJs1A3X+7ajzbwevC61hG+LkJrT6rTA6FP54ooA+/9zByMDETjlTFBVzYhKWhGTM8TYspxODhCRM5nhMlnhUswVTnBXVZMYcZ0UxmTHH21AUFUtC0nvaNFkSUC0X3w2heT3nrTbndQ8jhIZv1Inw+/B5XGh+H36PC83nxe914/d58LmH8Y068bqdY69D+EaGI7eYTbRKSEEtvwyl4nLU0pVgsRobj9eNtvcx/LseCul5I4qiMu/Wb1Gx9p6Q9RFLZAIQJNMv/ziJKTns+fO30EL1ZOx14d/6a7RDf0e97Iuos67DsGUcFitq5dVQeTUmzYdo3oPWuAPRtBPRXRszUwWhIoSG1+WI7gNlpCBSULIqxp7016AULIJIGPoWGtrxl9C2/jrkx4+bzPEs+ci/U7Dg2pD2E0tkAhBEhQtvICElm50Pf5nRod6Q9SMcHfhf/A7avr9guvz/oRRUhayvcVHNKCUrMJWs0P880o/WtBtxaieiaRdisNXY+CQpCikpBSjFy1CKl6EWLwVrZBXMEi178W/6JaLzeMj7SkjOZPm9/01GeRh3RsUAuQsgANd993Ws6ReuhDUy2MnOh75E36mDAYY2MUrJckyXfQEld05Y+psoMdiqJwOndqI174KRCC91KklGSExFLVqKUrIcpWABSsY0oyM6L9Fdi7bjD2g1r4alv9SiOaz4+K8vWiDM1dcqdwEEIJYTgGqgMpALb/jBWySkZF/0ZzSfhwNP/YjGHX8PpIsAKKgVl6Ou+hxK1vQw9RkAoSG6qvVkoHU/ov2QTAik2JSQgpI/H7V4qf6knzWdSP5IFt01aNt+i1b3FuE6J6Rs1Z0suO07lzzJUyYAgYnlKYB2AkgAFNU0rq1dqjmORXf+hLTi+Rx6+mfnXVgVXEJfKFi3GbXyKtTln4zMREBRUXJmoeTMQuVeAERfI6L9MKLtEKL9EKKnTq4hkKYWRUXJnIaSNx8lf57+ml5CJN/wTxPdNWNP/K8Trhu/yZLAgtvvo3TFHWHpL1bFcgKwBVg30YsyyhZNaN9p2coPklm+mF2Pfo3B1tDPlSE0tOpX0KpfQSmoQl16b1jPEAiEkl6q71eec5P+hteF6KpBtB4YGyU4DCMDhsYoSRMSn4SSOwclv0pPdguqIMFudFQTIloP4N/1EKJ+K+E8GdSeW8HSj/4nKfkzwtZnrIr89DN0KoGjTDAJWvyhn1Oy7LYJd+b3jXLk2V9Qt/XxsB9aouQvQF12OhGIxv/kAtF3Sh8l6K5GdNUiuqvBLVfISxEgwY6SVal/5cxCyZsX/lP3gkVoaHWb0XY9rCfe4aQoVKy9h7nv+5cJF++SUwCBica7QTD9F/Dl8f5wWvE8Lv/yE5M6earj2Cb2PXEf7qGegNsIlJJeirrwLtTZN0KcLez9B5twtCO6qqG7BtFdo68tkDsOpJBRUFILULJmoGRXwumbvv3Ci9Oihseplwvf/1dE/6mwd59gz2Lxh35Gzsw1AV0vE4DAxHoCYAGeBy5ZRcKals+6Lz1OYurkf9k9rkEOPfNzmnY/M+m2AhJnQ517M2rVndH7pHIho8N6MnD6q+ekXoREjhZIExGfrE9NZU1HyZ6h3+gzK6ZE4nw20X8Kbf9f0Y4+Bx5n+ANQFEqW3sb8W76FxRr4FIlMAAIT6wkA6EnAT9FHAs477pQ3dz2L7vwR8UnBPWKz88QW9j/5PVz97UFtd9wUFaV0JeqCD6CWrY6Mg0VCxdWnLzbsa0T0NyH6GqD/lD5iEKOFYmKeakZJLURJK4H0UpS0YpS0En09SoTtuQ8qzY/WsBXtwN8QjdsxqvKnLaOQhR/8EdmVqybdlkwAAiMTgHeUAHcBqxKSM+emFMwqT8mvpGDBdaQVzwtZp75RJ0df+CX1254wtGKZkpSFMucm1Lm3oKQWGRZH2Pm9iMEWRG+jnhD0n0IMtoGjTT/ZTJNn0Uc1k0Wvn5Gch5JW9M4NPq0EJaVgaifdfrxIAAAgAElEQVS97yL6m9CObNCf9p3hn4I8TVFNTFvzUWbf8OWg1byQCUBgZAJwHrfff/xeUB4KZ58Drcc4+NRP6G3YF85uz0NBKVqMOu9W1Onrjak5ECmEhhjuBkc7wtE29qp/nXkvlgsiRQJzvH4jt+ehJOfq8/H2PP01JR/FlgmxXDDG60arfR3t8DOIln0Y9bR/Wua0pSy4/b6gr/CXCUBgYnkbYERJLZjNui8+TtPeZzny3H/oJU4NIRDNe/A378Ef9zPUiitRZ12PUrI89j5IFXXs6THnwsctO3v0kQJXH8LZC85uhKsPhsdenT0IZw+E/ByIKcZiRUnKAmuafhO3ZaBY08GWBdZ0lKRM/SafmGZ0pJFH8yOadupn9Ne+CV6X0RGRmJLD3Ju/QdHCG0CRz52RQiYAkURRKF5yC3lz11P96m+pe+sx/L5R4+LxuNCOPY927HmwZaDOuFZPBiL0yGFD2DL1GxSXGE7zuhBDXeDqR4z06acfjg4h3IP6AkX3EGLUMfa9A+F2TI0Ki4oKCcko8XZ9H3yCHSU+GeKT9e8T7Pr31rSxG3wmijUDLAlGRx51RPsRtBMvoZ14BVyhq0UyESZLAhXr7mHGVZ/DHG9wxULpPWQqdh5GTAGcz8hAO8de+h+adm+IqHKqSmoRyvQrUSvXjyUD8n+j0BB6MjA6rJdY9Xv1BEHzIrwj4BkBzQvuIfB7ED43eFzvrFvQfPrPnN2izw3+C0xbmOJQzO+68cYlgjr2nGCygCURxWLVv49PBpP5PO9ZIM6q3/Tj31uWWAoWod/0a99A1LwWUVtgFdVEybLbmHXtF0hMzQ15f3IKIDDyk/s8IiUBOG2os45jG39F64GNRofyHkpyDkrZapTytVN/J4EkGU1oiLZDaDWvImrfCHkJ3kBkV65i3i3fDOtJfjIBCIycAogCyTnTWP6x/6JnzR5OvPwbumq2Gx3SGWKoE3HoH3DoH/itGajll6GUX4ZasmLK7ZmWJEN4nGiN2xENW9HqtsBIv9ERnVf2jFXMuvaLZJQtNDoUaZxkAhBFMsuXcNnnH6K3YT/Vr/+ejqObjA7pXK5etCMb4MgG/IqqVzorX6uXN82ZZXR0khQ1TpfQ1uo2I07t0Kd/IlRG2SJm3/BlsiqWGx2KNEEyAYhCGWULWfWp39HbsJ8TrzxAZ/XWsNcXuCSh6cVEWg/AlrF1AyUrUEqWoxYtibrCKJIUUu5BtOY9iFO7EKe2IwZajI7o4hSF3JlrmXntP5FessDoaKQAyQQgimWULWT1Zx/E0V5D3ZbHaNq9wdhdAxchBpoRA81w8G/66ED2DD0ZKF6ub7GL5fMGpNjjGx2rdnkA0XYA0bw3Kg6dUk0WChfeQOWVn8SeN+Fq6lKEkQnAFGDPq2ThB3/EzGv/mbq3HqHh7SfxuiN4C5nQEJ3HEZ3H0XY9DOY4lNy5KAULUQsXouQvkOsHpKnF43znht+6D9FxNKoOkbJY7ZSvvItpaz5CQkq20eFIQSITgCkkMSWHuTd9nRlXf56m3Ruo3/o4Q131Rod1aT4PomUfomUf2k70A3iyK1EKFqEULkTNXwBje+0lKRqI4W79yb71AKJlP6K7BiJoK+942XMrKF/9IYqX3ib38U9BMgGYgiwJSUxb82GmrfkwvfV7ObnlUdoOvWporYEJERqi8wSi8wTs+zN+0A+IyZmFkjMbJWcWakGVXEcgRQavC9FVg+g8dmZkS/RGQeJ9AYqikjN7LRVr7yF7+kp5ct8UJhOAKS6jfDEZ5YsZGWinYfvfOLXraUYGDKo+OBnOHkT9FkT9FgB9HUFGOUruHD0xyKpEyZoupw6k0PI4Ed21iK5qRNdxRPtRvbJkFD7dv5s1LY+SZe+nbOUH5TB/jJAJQIxITM1j9vVfYtZ1X6CrehuNO5+i/cgbaFE0D3kOoSF6TiJ6TsKRDWNvKnp51+wZZ2q4k1Wpn+cvSRMkhjqhuwbRXTN2wz+BGGjF6II6wWQyx5M37ypKlt9OduVKlFir9xHjZAIQYxRFJWfmGnJmrsHjHKBp77M07X6GgZZjRocWBOKd3QY1r73zdnwySnopSuY0/TVjml7/PSUfeRhmjBOaXt2xrwHRW4/oa0T01OlP9aPDRkcXMmnF8yhZeitFi27CYpVTabFKJgAxLM6WSsXae6hYew9DXfU0732e5r3P4extNjq04BodQrQfRrQfPvd9S6KeEKQVQ2qRPnqQWoySWgS2DGNilULD2Yvob0IMNiP6m2GgGTHQhOhrjJlKjUlZJRQtuomixe8jKavU6HCkCCATAAmA5OxyZl//JWZf90X6Th2ked9ztB58xcCyxGHgHTmzaOs9LFaUtCKUlEJILdSnEU7XnE/OhcSU8McrXdjIIGKoXR+2H2wbe219Z0TIO3LpNqaghJRsChdcR9Hi95FWPN/ocKQIIxMA6VyKQnppFemlVcy/7Tv0Neyn9dArtB16BVd/FC4eDJTXNTbvW33+v7ck6vXok3NR7Llgy0KxZYyVB86ApGwUaxqY4sIb91Tj9yCcfTDchXD1gbP7nT8PdcBQJ8LRFjNP8eNhz60gb+6V5M+7irSieXIVv3RBMgGQLkhR1DO7CObf8i36mw/TevAV2o+8ER3nC4SSd0Tf6tVbf/ElYYkpen17a4aeECSk6O+d/Zpgh4SU/7+9+w6Pqz4TPf6dPtKod1lWce/d2NgYY2yWEjqEhBAWkk1C2mZJssndNAIJN2U3uWGXTXJ3CWSBEBICBLgQMMU2NuCK5d5k2Va15JFG0sxoiqbeP47s2I6LNHNmzpT38zzzjDTM+Z33QZZ+7/zaiy6nUCmnq8/QX8twEAKDRH1O8DuVUse+gTOe8Q8Q9faDt4+ox6G8T1yQTqenpGEu1TNXMWbWVeSV12sdkkgTGfqXJi5lHTveGFM2fiGW/FJ0Ut5WodNRXDeb4rrZzLzxGwz2ttG9by1d+97FcfRDIuHUP8ZUEz6n0uFdLFE4ncEM5hx05jwlITDnKFMS5lzle6MVjGbQm9CZckCvB3Oecq01H0C59uwV3ae/73wCgxA5a0tbNEI0MLwg7uQJk8PviwZ9EAlCaEh5+N1Eg14IeiHghaFB5dqAD8JpuuMkBRmMFsqnLGHMzFVUz1yJJU/WrIjRk7EhRR5wP3APcOqAa0teCTVzrmHKVfeRU1StWXCpLuhzceLg+9ibNmI/tBFv/3GtQxIi4+QWj6FiylIqpy6nctrlGM05WoeUMrx9nax+eFWsl7cA49SLJn1IAgBzgVeAuvO9wWCyMv/OH1E7//rkRZXGBnvb6GnaiL1pIz2HtxDwyjCuEKNlthVRPnExFZOXUj55CXll5/0TlfUkAYhNtk8BTAHWAUUXelM46GfbM99Ap4Ox8yQJuJi8sjryyuoYt/ROotEIzo4DyuhA0yYcR7enbMVCIbRkMFkpHTefislLqJi8lMKx0+RgHpFQ2TwCoAO2AQtGeoHRksvV330La74UpolVOOjHcazxVDIw0L5PEgKRlQxGC0W1MyifuIjyyUsobZiH3ii7RmIhIwCxyeYRgBsZRecPEBrycnjtE8y6+V8SFFLmM5isVExeSsXkpQBEwkEGOvbT17KTvpadOFp24Bvo1jhKIdSXW1xNScN8ShrmUFI/h6Kx09EbTFqHJbJYNicAt8dy0fE9b0sCoCK9wURJvfIHkSvuBcA30D2cDOykr2UHAx37iYSDGkcqxMgZTFaKamdQUj+H0nHzKKmbIwV2RMrJ5gRgeiwXeRwdhAI+WYGbQDlFVdTMvZaaudcCEAkF6G/fR3/bbpydBxjoPIj7RLNsPRQpQW8wUVA1icKaKRSNnUFJ/WwKa6ajN2Tzn1eRDrL5X2jMG2cDnn5JAJJIbzRTOm4epePmnXotEg7i7m5moPMgzuMHcXYeZOD4AYJel4aRikxnthVTVDOVwjFTKRx+zq+cIJ29SEvZ/K829gWQ0cwpB5qu9AYThTXTKKyZdsbr3v7jSjLQeQDn8YO4u5vxONpltECMit5gxFZaR+GYKcMd/RQKa6aRUyilpUXmyOYEQGSg3OIx5BaPoXrmylOvRSNhvP3H8TjacXU3DycFHXgc7ZlX+VCMiim3AFtpLQWVEymomoittBZbaS351RMxGC1ahydEQkkCIDKeTm849Yf95O6DkwJeJ4P2Y7jtR3HbjzFob8Hb14m3v1MOMMoQZlsxuSVjlI69vIG8ivHkV4wjr6IB0/DRyUJkI0kAUkQkHMLdfRi/qweDOYfC6imYcgu0DivjmXMLT1U/PFs4NITfaR8eKVBGDPxOO35XDx5HO96+TqLRyDlaFcl08lO8rbQWa0E5OQUVp763lddJJy/EeUgCoLGhQQcH3vw17Y2vnrGATac3UD5xEVOv/hJlEy7RMMLsZTBaTnUk5xIO+vE4OpSkwN3D0GAfvoETBDx9+Jx2hty9+N0OAp7+JEeeGSx5pVjyS7AWlGPNL8eSV4K1sAJLXinWgnJyi6vJLR4jh+cIESNJADTkOLqdTb/9x3N2ENFIGHvTJuxNm6iZcw2zb/mWFCRKMQaTlYIqZe74QiLhIENuB36XHb/bwZDbQcDrJOhzEvC6CPpcBL1OAl4ngZNf+1wZs9hUp9Njyi3AnFuIKacQc27Bac/K62ZbMZa8YqwFFVjzy6QSpxBJIAmARtz2Y3zw2H2EhjwXfW/nrjfpPrCeyVd+lilX3SefeNKM3mAip6iKnKKqUV0X9LlOJQjhgI9waIigb5BIOEhoyEM44CMSChD0uU+9Fgr4zjg0KehzcXod4mgkRPA8/+aM5ty/OZnOlJMPOmXDjMFoxmCyYrTY0BtNmKz56I1mDOYc5TWDCVNOHgajBYMlB3NOIabcAhmCFyJFSQKghWiUbb/75xF1/ieFA34OvPlL2htfY9ZN36R6ZsznXos0YcpRPiELoZVoJEzP4S30NG/G57RjtNjIK6+nesZKbKVjtQ5PxEkSAA10H1jPQMf+mK4d7Glh0xNfpmz8Qmbe9E3lCF0hhFBZ9/532f3yTxjsaf2b/7bn5Z9Su+BGZt/yLcy2Yg2iE2qQWpMa6Nq3Lu42eo9+yLv/cSdbn/oag71tKkQlhBCK5vVPsunxL52z8weIRiO0ffgK6x75GB5HR5KjE2qRBEAD7u4j6jQUjdKx8w3e/vG1bHnqq+f9ZRVCiJHq2ruG3a/864i2uHoc7Wx64ktS0jtNSQKggXAooGp70WiEzp2reedfr6fxuQfw9nWq2r4QIjtEQgF2/flHo9qB4upq4siGZxIYlUgUSQA0kFucmO18kXCIls3P89aPr2H7s9/C1d2ckPsIITJT94H1ePuPj/q6ox88m4BoRKJJAqCB8kmLE9p+JByiddvLvPNvN7Lx8S/gONaY0PsJITJDz+HNMV3n7euUuhppSBIADYyd+5Hk7I2ORune9y7rH72L9f/5STp3vUk0Ek78fYUQack3YI/j2m4VIxHJkM0JgC/WC0OBmC8FwGwrYsb1X42rjdFyHN3OlifvZ/XDV3FozWNyPK0Q4m/Ec8iYwWRVMZLRCQ1547k8rovTWTYnAO5YLwz6XBd/00WMX/ZJJi6/J+52Rss30MW+137BGz+4ksY/fpf+tt1Jj0EIkZryyutjuk6n05+3ZkYyBHxxVe6M/w96msrmBCDmH7oaCQDA7Fu/w4JP/FiT097CQT8tW15k3SMfY83Pb+XoB88S9MecEwkhMkD1jCtjuq503HzMtiKVoxm50wupxSBrE4BsrrZxCzAtlgtLGuZRUj9blSCKaqbRsPg2Ap5+nMcPqdLmaA25e+nev54j7/0OT28rppwCcour0Q2fAS+EyA45hZU4WhpHvaBv3sd+SF5ZXYKiurgTB9/jxMH3Yr28EXhexXDSRjYnACuBhbFcaM0vY8ws9c7iN5pzGTPrKqqmr8DZeRC/84RqbY9GNBzC2XmQtm0v0br5Bbz9xzFZbOQWVZ8qCCOEyGxl4xfS3vga4RGudaq/5BYmXfkPCY7qwo598Aecxw/GevkG4C8qhpM2sjkBmABcG+vF45feqWIoipzCChoW30ZOYQX97XtG/AuYCKEhD/2tu2nd+mc6drxOwDtATmGlpsN8QojEM+UUUDF5Cd0H1hPyD17wvfWLbmXexx/WvHTz/jceZWjQEevlTwNbVQwnbWRzApAPxLQKL+gdYMKyuzGYLCqHpCymKa6dyfjL7sJkzaOvdfcZ5V21EPAM0Nu8lSPvPUPnrtUMDfZhK6mRSnVCZChrQTn1l9xCNBLGbT9KJHjmUb9FtTOY+9EHmbLqPs07/4BngL2v/XxUpxee5f8Ax1QMKW1k87juGCDmM3MX3vVT6i65RcVwzs3vtLN/9aO0bn0ppfbw63R6yiYuombONVRNX5Gw0w2FyCRB/yDhgA9Lfik6XXqswY5Gwgx07MfvsmMw5ZBfOY6cotT5fW/Z8iKNf/xuPE1UAdrMu2osmxMAAAdQEsuF1TNXsuQzv1Y5nPPzODpoWvMYLVteTKlE4CRbaS1VM1ZQPeNKyicu1vxTgRCpYrCnlaZ1T9C1Z82pYWq9wUT5xEWMW3onY2ZdJWts4rDxN1+ge/+7sV7eC5SrF016yfZ/dX8Gbo3lQoPRwnU/2IA5t1DlkC7MbT/Kobf/m/bG11IyEQDloKPySZdSPX0F1bNWJefUQyFSUPP6J9n76s+JhEPnfU/llMtYdM8jmHJlSm20Ap5+Xn/oCiKxF1h7EfioiiGllWz/mFYM3BDLhdFIGKM1j7IJMW0kiJnFVsyY2X9HzZxrCPrduE8ciWfuKyHCQT/u7maO73mH5nefpPfIhwR8Tiy24qQnTEJo5dA7j7H31Z9dtKyux9GOvekD6hbejN5gTFJ0maFp3W/padoUTxOPoGwDzErZPgLQQByLPyx5pVz74FoMRvUXA46Ut/84h9/9H1o2P0844NcsjpGyFpRTOn4BFZOXUjF5KbbSsVqHJITq+lp3sf4/PnHRzv90Ey6/mzm3fS+BUWWWSCjA6h+uxO/ujaeZeqBNpZDSTraPAAwAnwDKYrk4HPBhK6mhaOwMdaMaBVNOPlXTljNuyccwmMy4upsJB1M3EQgNeXF3N9O9bx1HNjxN24ev4Ow8SMjvxmwrlOkCkREan3uAwd7WUV3j7NxP/eLbMVnzEhRVZmnZ8iIdO+Lavr8f+IlK4aSlbE8AAKqBy2O9uL9jH+OWfBy90aRiSKNnNOdQPulSJi6/h7zyejyOdobcMe+LTZqgz4Wz84AyXbD+KY5teo6+tt0EfS7MuYWYZV5UpJmg18WOFx4a9dRcNBohr6yO4rpZiQksg4SGPGz57VcIBeKq4/NfwDqVQkpLkgAoUwBfIcbpkNCQB4CKyUtUDCl2Or2BwpqpjL/sE5RNWEjQ58bT0wqk1jqB8zl7hKB120v0tezE23+caCSE2VYUV8UyIRJtoGMfLZtfiOnanKKqmM/jzyb733iUE4fej6eJCPApIK4qQulOVpwoCcBa4KpYG2h+90kaFt+OTcOzsM+lfNKllE+6FG9fJy2bn6dly4v4XT1ahzUq3r5OvH2ddOx8A1DOH8ivHE9x7UyK62ZRVDuTopppkhSIlHGx0/MuJOiTglwXM9jbRvOGp+Nt5m1gdHM0GUhGABQB4tgKohyUsY/6S25JycM9TDkFyvTAFfdSNHYaQd8gXkcH6TIqcKYoQ4N9OI8fpPvABlo2v0DT2t9wfO8aBjoOMDToQKfTYc4tlLMIhCZC/kGObfpTTNeWT76UqmnLVY4oc0SjEbb8z1dGXazoHL6NsgYgq2X7LoCTLMBRlNMBYzbj+q8x5arPqxNRgnn7Omnd+hJtH76ixi9TytHpDdhKaymonkRB5QQKqieRXzmB/IrxMlogEioSCvDaA0tjGglYdO8jjJ17XQKiygwH3/o1+994NN5mOlBqwcR8eECmkATgr74M/DKeBvQGIyvuf46iWu12BcRioH0frR++TPv21wh4+rUOJ6F0egO5xWPIr5pAQdVwclClJAcGs1Xr8ESGaPzT92kZ5SiA2VbMtQ+swWjJTVBU6a2/bTfrH73rgocqjdAXURYAZj1JAP7KDBxCORsgZrnFY7jy689jyStVJahkCoeG6NqzhvbGv3Di4HvxnK6Vdk4unqyatpwJy+7Gkp9+Pz+ROnwD3bzzbzcR9LlGfM28Ox5iXAKqjGaCIbeDdY98FG9/V7xNtQKTkU//gKwBOF0Y8AE3xtNI0O+mr2UHdQtuSrs5aL3eSEH1JGrnX8+E5XeTXzmBaCiIt79zVAeapKVoFL+rh94jH3Lsgz9gLaykqGaa1lGJNGWy5lE0djrHd745oiO7Gy79KNOv+6ckRJZ+IuEgmx7/Is7jh9Ro7uvAdjUaygTp1UMl3m6Ug4FiKhB0km+gG5+zWynykaYMRgtFNVOpXXAj45d9krzyeiLhEL6B7pStQaCWSDhE1941mHMLKamfo3U4Ik3lldVRMWUpjqPbCXgGzvkeg9nKjOvuZ+YN35CCQOex/Q/foWvfWjWaOgh8AWULoECmAM7lSmANKvy/mbTi08y6+V/ijyiFhAN+7Ic30blzNV171xL0Z+62JZ1Oz4qv/pHiutlahyLSWDQSpnPXao7vWctgzzHCwSFyiiqpmLSEuoU3Yy2s0DrElLXvL7/g0DuPqdFUFPg7lL/tYpgkAOf2FHCPGg1Nv+5+pl79RTWaSjmRcJCew5vp2ruOEwc34HF0aB2S6iqnXMZlX3hC6zCEyDoH3vwlB1bHtS77dE8An1WrsUwhCcC5laLsEVUlNZ95wz8zedXn1GgqpbntR+nev54TB96j9+iHGbGIUKc38JGHNsiiQCGSqHnD0+x+6cdqNdcLTBt+FqeRNQDn5gO6gdvUaMx+eDN6o5my8QvUaC5lWWzFlDbMo+6Sm5l4xb2UNMzFml9GOBQgMNhHWh48FI1SMeUy8lLslEchMtXJMsoq+iywVc0GM4UkAOe3GxgHzFWjsZ6mTQS8A1ROXYYuCxb76I0m8ivGUTn1csYvvZMJl99NScMcLPllhAN+hjx9Woc4YtXTV1BQPUnrMITIbNEoe179GQff+rWarf4e+KGaDWaSzO+J4mNDyRynq9Vg7fwbWHDXT9EbsrsMw9BgH71HttHTvJXe5i24upu1Dum8Lvv8b6icGnPBSCHERUTCQbY/+y3aG+Mq73u2vcBiIK6SgZlMEoCLm46SBNjUarB80qUsvvffMduK1Goy7Q25HfQc2Upv81b6Wnbh6m5S48SvuOl0eq5/eKP8rIRIkICnny1P3k9Ps6qj9G7gEpTD3cR5SAIwMncDv1OzQVvpWC79h19ROGaKms1mjEg4xGBPC45jjTiObmegYx/uE0eTfiBR1YwVLP2snBoqRCI4Ow+w6bf/iLevU81mo8BdwB/VbDQTSQIwcj8EHlCzQYPRwryPP0zdwpvUbDZjBX0u+tv30t+2l/62PfS37cbnPJGw++kNRlZ87U8U1ag2AySEGNax8w0a//AdQgGf2k1/H3hY7UYzkSQAI6dD2Uv6aXVb1TFx+b3MvOHrUqUuBn6nnf72PfS378XV3YyrqwmPoyP+0wp1OuZ99EE5m10IlUVCAfa++nOa3/sdRFXfGfQ4kPl7rlUiCcDoGIAXgZvVbrigaiKL7nlEVpurIBIK4D5xBNeJo7i6mpSvu5rw9HWOKDEwWfOZe8eD1M6/IQnRCpE93PajbHv6Gwx07k9E86+j/G3WfvFQmpAEYPTygLUoC0xUZTTnMPu279Gw+Ha1mxYo1Q7dJ47g7j6Cq/swruFnv8uOwWghr7yBqhlXMn7pnbLoTwiVtWx+nl0v/YhwwJ+I5rcCKwFPIhrPVJIAxKYYWA0sSkTj1TNXMe+Oh7AWlCeieSGESBq/086OFx6ia68qBX3OZQtwLXDuikvivCQBiF0e8CqwIhGNm6z5zLzpm4y79A6pEiaESEudO1ez4/kHCXidibrF+8D1gCtRN8hk0rPEJw94DbgiUTeomLKU+R97mNySmkTdQgghVOVxdLDjT9/H3rQxkbdZB9yIDPvHTBKA+OUCLwFXJ+oGBrOVKavuY9LKz2AwWhJ1GyGEiEs4NETTmsdpWvubRM31n/QGcDtK3RYRI6kFEL8gyoETZSRgYSBANByip3kLbdtewWIrorBmaiJuI4QQMevat45Nj3+R43veJprYUzwfB/4eGErkTbKBjACo638BPwH0ibxJ5dTLmX3rt8mvGJ/I2wghxEW5upvZ8/JPOHHog0TfKgJ8E/hFom+ULSQBUN+twDMoUwMJo9PpGTPnambd+E1ZHyCESDqf8wQH3/wVLVtejP/grYvzoBzJ/nKib5RNJAFIjEuAF4CEF5E3mKxMWP73TFn5OUy5BYm+nRAiywW9Lg6teYwj7z1DOJjQef6TWlDm+xuTcbNsIglA4pQCT6FsUUk4c24hk1Z+hgnLPonRolrhQiGEACA05OHIe7+nad3jBL1J23X3KvApoC9ZN8wmkgAklg74J+BngCkZNzRa8xh/2SdkREAIoYrQkIej7z9L09rHE7mf/29uC/wIpQhbckuAZhFJAJLjcuAPQNIm640WG/WLb2PKVZ/Hml+WrNsKITJEwDPAkfeeoXnD0wR9ST1npwO4E0j4qsJsJwlA8pQBvwbuSOZNjZZc6hfdxsTl92ArS/iSBCFEmvP0ttG84Slat/w5EaV6L+Y54MuAI9k3zkaSACTfHcCvgKQe9K/T6amcvpyJy++hYvLSZN5aCJEGBtr30bzhadobX0vGqv6z9aNMlz6T7BtnM0kAtFEJ/F+ULYNJV1w3i4lX3EvN7KvRG81ahCCESAGRUIDO3W/RvP4p+tv2aBXGn4EvAnatAshWkgBo65PAv6NMDySdJa+E+kW30rDk4+TJ9IAQWWOwt42WTc/RunYBIecAAAifSURBVPUlhgY1W2DfA3wVeFarALKdJADaKwYeQpn30uxo5tJx85m4/B6qZ12F3mDUKgwhRIJEI2F6mrfQvOFpuvevh2hUq1AiwO+BrwO9WgUhJAFIJQtR1gYs0jIIS34ptfNvpH7RLRSOkZoDQqQ7Z+cBWre9THvjawy5NV9btwXlw852rQMRkgCkGh1KkYufk+RFgudSUDWRuoU3U7foVtlKKEQaCXiddO56k2Mb/8hAx36twwFlkd8PgF8CSV9hKM5NEoDUVAJ8FyVT1rz+r05voHLKMsbO/wjVM1disuZrHZIQ4ixBv5uuPWto3/E69kMfaLGS/1z8KJ3+T5DT/FKOJACprRb4HvAZUqR0s95opmLKUsbOuZbqWaskGRBCQ+GAH/vhTXTuXE3n7jcJB5JyNv9IRIAXgW8BRzWORZyHJADpYQ7wU+BarQM5ncFooWLqMmrmXEPV9Csw5xZqHZIQGS/gddK9/106d73JiYPvEwkFtA7pbK8D3wZ2ax2IuDBJANLLSpR5tGVaB3I2nd5A2fgFVM24kuqZq2RboRAqGuxppWvfWrr2rsVxrDFVhvfPtgF4EHhX4zjECEkCkJ5WoEwNrNI4jvPKr5xA9YwrqZqxgtKGeej0KTGDIURaiEbCOFp20L3vXbr2rsVtT+lR9LeB/42SAIg0IglAelsCfAel5HDK/iyN5hxKGuZRMXkJFZOXUlQ7Q+uQhEg5Hkc79qZN2Js2Yj+0MdkFeGLxDvAAsFnrQERsUrbTEKOyAGXO7RZSZLHghdhKx1Ix5TIqJl9G+cRLMNuKtQ5JiKQbGuyj98g27Ic+wN60EY+jQ+uQRiIMvISyqr9R41hEnCQByCzjgM8D96GcMJgWbKW1VExeQum4+ZRNXExucbXWIQmhuiG3g7623TiONWJv2oiz4wDRaNqUunejlDT/BXBI41iESiQByEwFwKdRqmuN1ziWUcuvGE/ZhIWUjl9ASf0c8sobtA5JiFEb7Gmhr2UnvccacRzZhtt+TOuQYnEUeBT4LUoSIDKIJACZTQ/cDHwFZeFgWv68zbYiSurnUlI/m5L6uRTXz5LzB0RKCfrd9LXupq9lJ/2tu+lr20XAM6B1WLGKoqzk/0/gFZQ9/SIDpWWHIGIyGfgscC9QoXEscdHp9ORXjqeodiZFNdMoGjudwpppmKx5WocmskDQ78bZeZCBjv3Dj324TxxNp+H887EDTwGPA00axyKSQBKA7GNGWSz4OZRzBfTahqMSnY680loKx06naOx0imqmU1g9GWthWuc6QmN+px1nVxMDnUpn7+zYz6CjXctKemqLAGuA36B82k+5U4VE4kgCkN0mAJ8C7gYaNI0kQUy5BRRUTaKgaiIFVZPIr5xAQfUkKW4kzuB39+LqOoy7uxlX92FcJ47g6j5M0JvyW/FidQx4BngSOao3a0kCIED5d3AZSiJwB0oxooxmzi0kv3ICeeUN5JXXk1dWj628jryyBoyWXK3DEwkQGvIw2NvKYE8rnt42BntaGOxpxX3iCAGvU+vwkqEP+BPwe+ADlLl+kcUkARBnswDXoZQlvp4UqEaYbNaCciUxKKsjt6SG3OIxp56thZXoDUatQxTnEAmH8A104xvowtvXiaevE1//cQZ72xi0H8Pv7tU6RC34gb+gfNp/HRniF6eRBEBcSCFwA3A7SiGiHG3D0Z5Ob8BaUP7XxKC4GmtBxfCjTHkuLMdgzLq8KaHCoSH8zh78Ljt+V6/y7LTj7T9+6uF39aTqGfnJ5gPeQKnG9xqQsfMYIj6SAIiRsgEfQUkGrgdkyf0FmHILyCmowFpQjrWgArOtCHNukfJsK8JiKz7jNYPJqnXISRUO+gl4Bgh4Bwh4Bhjy9Cvfn/aa0tn34HPZM3kuXi1ulE/4L6B0/h5twxHpQBIAEYsc4GrgRpRkoErbcNKfwWzFlFOAyWLDaLFhyinAaLUp31uHX7PmY8rJB50eU04+OnQYc/LR6XQYLTb0eiMGS+7wFIUOc07BOe9lyj336+frZAM+FxAlEg4RHvISiYQIDXmIRiKE/INEiRL0uYlGwoT8gwR9bkIBDyG/h+DQ8LPPRWhI+T7oc6VS3fp01oXS6f8/4C2U4X4hRkwSAKGGGShTBTeiFCjKjK2FQqSe/cCrKEP7G5FDekQcJAEQaqtEGRW4DuWcgYzfUSBEAvUBa1E+6b8OnNA2HJFJJAEQiaQH5gHLULYZXgvIGb5CnJ8PZYveO8PPm4GQphGJjCUJgEgmK7AUWIUyOrAAMGkakRDaCgIfAutQOv1NyFy+SBJJAISWcoH5KKMDy4YfRZpGJERieYCdwPson/A3AFlxCpFIPZIAiFRi5K9TBsuARcBYTSMSIj7twFaUDv99lM5fhvRFSpAEQKS6amAhynTBAuBSQA7yF6nIBewBtg8/3kM5c1+IlCQJgEg3OpTSxpcAc097lGoZlMg6DmAHsGv4eRtwGDlfX6QRSQBEphgDTEc5k+DkaMFU5EwCEb8u/vqpfh/KXvz9SGcv0pwkACKTmYFJKInBeJTkYPrwI+vrGogzBFHm6/ejdPJHh7/eCQxqGJcQCSMJgMhGJmACSiIwcfjrCcNf1yKjBpkqjNLJHznt0YzS4R9BFueJLCMJgBBnMgPjODMpqEfZjVALVGgXmhgBO0on3w60cmZnfwwphyvEKZIACDE6VqAOJRkYi5Ic1KIURKpC2bVQgRxwpLYgSufeBXQPP3egdPLtw1+3IYfoCDFikgAIkRgVw49qlMSgAmX7Yunwo+S0RynZtybBi3LO/ekPx/CjF6WzP9nR24cfQggVSQIgRGrIQUkGCoE8oOC0r08+ioefLcP/DZSTE3UoNRaMKKcrWlCmMmznuI/+tGvP5uTc1eU8KEPnQygddwil/nwUGDjt2iGUBXP9w88nH06UPfInv+5DOfNeCKGh/w+2Non8WJSBsgAAAABJRU5ErkJggg==;" parent="1" vertex="1">
          <mxGeometry x="109.78999999999999" y="292.43" width="72.43" height="72.43" as="geometry" />
        </mxCell>
        <mxCell id="ppfQhNkfrTPM0ce_duGg-10" value="Applications&#xa;(AWS/ Azure)" style="shape=image;verticalLabelPosition=bottom;labelBackgroundColor=default;verticalAlign=top;aspect=fixed;imageAspect=0;image=data:image/png,iVBORw0KGgoAAAANSUhEUgAAAgAAAAIACAYAAAD0eNT6AAAABHNCSVQICAgIfAhkiAAAAAlwSFlzAAAOxAAADsQBlSsOGwAAABl0RVh0U29mdHdhcmUAd3d3Lmlua3NjYXBlLm9yZ5vuPBoAACAASURBVHic7J13eBzV1bjfO1u1u+pdluReZLkbG2zL4BBqIBASCBAIHwRs0gghISHl+xIIBAiE9oPQgiEBE0JJAQIJ3eACGNtg495ky1azurSr7Tu/PxYTF0lbZrbZ930eP7almXPvrkZ7zj1VIEkEYkLdVTMMQpylqswHKoByID+Ke11AI9AK6iqhKq9YPSxfs+ZRfyI3LJFIJJJjC5HqDRxNjDnzGoulz32VivgJMFxH0d0CHiAYumfj+4s7dZQrkUgkkmMUaQDoRG3dVReriDuAygQu0ysQt20s77qT558PJnAdiUQikRzlSANAI5VzrsvKMfTdDuIHyVpThaXBoOHSbe8/3JisNSUSiURydCENAA2MW7CoyBhQ3wSmpmD5/SFFnLLlvUc/TcHaEolEIslwlFRvIFOZtuDyPFNA/Q+pUf4AJYaQ+lbN3CsnpWh9iUQikWQw0gCIg9raC8y+gOk1FWamch8qFAtFvFG74LtlqdyHRCKRSDIPaQDEQSg/7zfA7FTvI4woCwX9f0aGcyQSiUQSA4ZUbyDTqDnx6hOFqj5KGilcAaNLqo5rb9u7ZlWq9yKRSCSSzEB6AGIlFLqNNHzfVKHeNH7et7JTvQ+JRCKRZAZpp8jSmUlzF50mYG6q9zEIBYpi/E6qNyGRSCSSzEAaADEQUkI/TfUehkKo6o8WLLjRmOp9SCQSiST9kQZAlEyu+04+iJNSvY8IlLaGmtPVQyGRSCSSNEIaAFESEIHTgbQ/XSuh0Fmp3oNEIpFI0h9pAESJElK/mOo9RIMKp6V6DxKJRCJJf6QBECWqEFNSvYcomVhbe4E51ZuQSCQSSXqT9i7tNEEANfHePLegiIenzMIghm4d8J31q3mvY3+8yxzAHMrNGQds0CpIIpFIJEcv0gMQBbV1i6qAuGvsZ+cVRlT+AGPtjniXOARFEZN1ESSRSCSSoxZpAESBqqq1Wu4f54jOdhgb5XWRUIU0ACQSiUQyNNIAiA5NBsBYe3SKfXyU10VCVZEGgEQikUiGJC1zACrnXJeVp/SdqaKcoIrQBISoQcUMIgCgorYIxAaEukEEQv/e+P7iHQndkIg//u8wGim3WqO6doTdgVEIAqoa73IACJUkjAi+Uamd13RSSKjzBEwWUKMi7OHvqVZU0SoUtqkhdatALN1Y0fUezz8fTPy+JBKJRBINaTPQBmBC3VUzFfgRiC8TQ8xdRV2tIJ4JqME/bl3xeJ/e+5pYt/AD4Ph47p2Wk8/TM+dEff1XPlrGdqfml6B6rCJ/15uP9mgVdDgTFnx7hMEf+q4q1IuBymjvE9Cmwt+DavCerSse36r3viQSiUQSG2kRAqiZe+XwifMXLlEQq0B8gxgT7gTiOBXuMgjD9onzFn5b53a4ApgY783js2Nz60cbLoiAyPIGdfUCjFhwubW2buHvlEBwqyrUnxCD8gdQoRi42iAMG2rqFj46bs63h+m5P4lEIpHERsoNgInzFp6pKMo6VC7RYT+lCB7aH2j6uLbu6ql67E9rBUCsCl2vSgA1pOiWBzCxbtHxtoBprQo/BbT2GDAKWGgyBDdOrFt0gR77k0gkEknspNQAqJ2/6DoheFmFXH0lq5NUQh/Wzl90HZrDHCLu0z/Entk/Tq9EQCE0ewBGLLjcWlO38HaBugINfRAGIvwzV5+trVt4g55yJRKJRBIdKTMAJtYtulFV1btVMCRoCYuqqndPrLvqDS3uZhVtJYCxZvaPc+RoWe5zBKqmzoUHTv0Cbkjgz0iocHtN3cLbEyRfIpFIJIOQEgNgYt2iG0H9dXJWE180GoKf1M5beE6cAuI2AMosWWQbTTHdU261xnzPIEwmDu9HIk/9gyHgBmkESCQSSXJJugGQXOX/OUWq4MXauoVPTjntm/bYblXjTwB0xB7PFwjG6JMHkDdlwVUxeT6SdOofEGkESCQSSXJJqgGQIuX/OSp8M9BvXRVtguCoUxblouEUPMYenzs/2s6BkfAHlPvGz/tWRGGpOPUPhIAbws+IRCKRSBJN0k55qVb+B1EM6hUlw49ztTWs+fDwb446ZVFuWcWMr5dUz7jFGOBhIEaPwX+5cFg14+OI6bd4PLyrfSgQAmoUoVxbUj1zQvHwWb1tDV/eA0sP6TI0sW7R8aaQ8m8BXyENqkKABcXVx4m2hjVLU70RiUQiOZpJSiOgNFL+h6AKXgdxuddCv8UTOhfEBQJOBSx6yP/H7PlxZfU3etyc9v47emzhcBpUof5ZCahPuizBfVkB040KXJ9sd390iJs2LX/0xlTvQiKRSI5WEm4ATKxb9GNQf5/odTTQDWShk9I/gFVRWHXi6VFNARyI8z5azjZnr55bOhgV6ACKErWAHgghfrRx2aP3pHofEolEcjSSUJdvbd2VXwb1jkSuoQN56Kz8AcY7cuJW/gDnlSe0UZ4gzZU/AKp6Z23d1WekehsSiURyNJIwA6B2zpVjVJS/JHKNdOYLRaWa7j+vrBKbIQ0980lEBYNK6JnaukXVqd6LRCKRHG0kTDmrBuVOQJ++thmGQHBGSbkmGdlGE9+oHK7TjjKaPFBvSfUmJBKJ5GgjIQZA7bxFXyCcVX5McnJRCVVZNs1yFlaPodCse3Qi41Dhkpr5i2akeh8SiURyNJEQA0AVoev0lDfOkcPyulN4euYcKq3aFWsiUQR8f+TYyBf29ke8xGE08r/jNI0iSApnl1Xw4fzTuG/SDIwa8h6GQBEhdH2mJBKJ5FhH9yDzhNnfKxSG0EN6yR7nyOHxabPJN5kps2TxlYpKWrxutjn79BCvO1dUjeLLZRES+EIhaGqDPAdEUJij7dm0+7xs7OvRcZf6kG0wcvOEKXxv5FjMisIou4Ox9mzebGshpPdigpGWYSfd27vvg4DeoiUSieRYRHcDoHjU9EsEnKeHrIOV/wEsisKpxWUMz7LzQXc7vpDuqiZuarNzuWPitMjZ/7394OwHkwkskafrziso4tO+Hva6I3sNksW0nHz+OH02x+UVHPL1BBoBFrPiW9PesHaLvmIlEonk2ET3EICihnSJ1Q6k/A/m7LIK/jarjmk5+Xosp5mRdjsPT5mFSYniLe3+zHvR2QuqOvS1gElRuG/ydGbnF2rcpXYMQvC9kWN5csYJg4ZjTiku467a6bqHAxRVzNFVoEQikRzD6O4BKKme+RNghBYZkZT/AXKMJr5SXolAsLani8iqNDHUZufyyJRZFFmiSNhzuqHHGf53KARGA1gjewFMQuGskgra/F429yWsQdCQVFptPDj1OL5cOgwlgnJPhCdAFXS1N6x9RidxEolEckyjfwigeubNQNxD7aNV/gdQhGB2fiFzCopY1dVJb8Af79Jx8dXySu6dNJNcUxQjfFUVWjogeJBK9Pgh1x4xFwDCp+8vFJUy0mZndXcnnlBQw85j4+yyCv4w+Tiqs6IfjaC3ESAESlvD2vt1ECWRSCTHPIkwAK4H4h5n9+Ls+VEr/4NJdoLgaLuDu2un882qkdG7urt6wx6Ag1HVsEHgyIp67bGObL5SXomqqmxx9RGIIowQL4cn+sXKKLsDgxB82NWhx3b62xrWytbAEolEogPGBMjUdNjb43bFZQBAWFn9rmYa8/NLuHn7BpwB/RPGp+XmcVnlKE4pKcUQyygFrw86BnHd97rAYQO7NWpxBSYzPxlTw7eqR/F4wy7+2tSAJ6ivR2BaTj6/q52qufRyt9ul0470Ly6QSCSSY5VE9AHQdPy+YeM6+oLaFPeBBMHpufokCJoUhbkFRTwweSZPz5jL6SVlsSn/QBCa2oe+pqUDfLG/7kKzhZ+MqeH1ExbwP1UjserQPtikKFw7atyQiX7R8npbMy82N2re02ckN74jkUgkRzGJCAGcBNTGe39vwE+L182pxWWa9pFjNHFueSW5JjNbnD30x3E6HuvI5gcjx3FbzVTOr6hipC2OzsahEDS2gz+CcldV8Hgh2xZVPsDh2AxG5hUUc355FQJBg6cfd4yvWRHhDP47Jk7ltJLyiIl+kWj1evjO+tV4dSvVVFe1Nax9WidhEolEckyjuwFQVD1zvICTtcjY5uxjeJadcY64UwkAUBBMzcnj4soRlFmsuENBWjyeIasFrAYD8wqKuWFsDTeMqaE2Oy+u2DcQju03tYXd/9Fe7/bFbQRA2BCYW1DEZVUjmZZbQIHJTBCVbp+f4ACvPEsxMj03nwsrhvN/4ydx0bBqXdoPh1S45tM17Op3apZ1AIH4e1vD2jd1EyiRSCTHMLrnAKiCZUKHnLSbt29gWl6eLq1/rYrChcOquXBYNT1+P1tcvex0Omn1uVFVgVkRlFuyqLbZmJKTjyVehX8w/kBY+cfq1vd4w/dVFIeP5HFiEIK6giLqCsJTf1VU2n0+2rxeVFQEglKLJWGzBh5v2MVH3bok/n2OqrJGV4ESiURyDJOAxu03KhPrmnaDWqVV0uTsPJbMnJOo/vKJw+WG1s5Dy/1ixWKG8kIwJSJPM7Fs7OvhkrXv49e3S6NTGE3lG5c+qJ9LQSKRSI5hEjBwfqlaUj2jDJinVdJ+nweDEMzKS30HvKgIhaCtG9q7o+rwNyTBIPS5IcsSbhaUIbhDARatW02Hz6u36CWb3nvkBb2FSiQSybFKQqYBgviDAHfk6yLz8O4dfNLbpYeoxKGq4fa+9c3/7fKnB8Eg7NsPHT3aDYokcdv2zdTrGPcHEBBECT2gq1CJRCI5xknI0bKtYU1P8fCZdmC+VlkqsLKzg/PKK7EoaXYS9gegqw9aO8INfhKlpN3ecFjBZEzrkMCbbS3cvXOr7nIFPLxp2WOLdRcskUgkxzAJ06i55fM+MhgC3wLiqJ07FGcwQKvPE11poKrGnUEfFb4AdHRDa1e4s5/Hm5zTeTAEff3Q7wWTIbmGgErEbJFWr4dvr/9Ix5K/z9lvwPjV/Q2rPXoLlkgkkmOZhBkAnY2rvMXDZ2wHcZEe8qIuDRQCGtvCStls0s8Y8PjDCn9/F3h8qXPJB4JhQ8DpBtTwSGEN1QJD4vOH8xkUZUiDI6TCtZ+uYafOrn8AofKNDSseWae7YIlEIjnGSahPva1h7dbi6pm1aGgMdDAfdLfz5bIKHMZIg3fUsKLu6Qu76RUR+4k5FAKnJyxjf2c4xu+Jsp4/GQRD0O8J78sXCBsGITWsrLUYBCE1HG7o6IW2rrABVZQ35C2P793JC817419zEATqQxtXPHa37oIlEolEkpBZAIcQMIrvGgPqiUCpVlnOQICbtm7koSnHDX1htj2cOBcIhfvs97rAoITH7mZZwiV2BgUMhvDfqgr+IPj94UY8Hl+4eY/GU353MMjuoJf6gId6v4/OYJB+NUifGsQdUvERIkcYyBIKVkUhVzEwzGBmuMnMcKOFKqMZcyTfu0rYI9DX/9+vGQ1gMYHZ/FnegCH8NYMC4jMDIRT67I8aNiB8vrCXw+0Jf+0A+UN7XLb09XJ//fb436TB2WR1K9cnQrBEIpFIEtIH4Egm1i26ANTn9JJ3/+SZnFwUwZ5o64Lu5JaM7w/6+djXz/seJyu8TpoC2jwGBgQTzFamm23MsNg5weIgN5mJkIoCoyqGDKN8ffUKNvb16L2yV6Acv3G5dP1LJBJJokhah52JdQufAy7QQ9aE7BxeOG4eYqjtu73hEroE0xTw8bK7h5f7u6j36177fghGIZhnyeZsWy4nZ+VgFQmq4jxAjh1KCwb99srOdhauW6X7skKIH21c9qgc+yuRSCQJJGmp5D4R+J5FNS5QoVirrC19vbzf2cHcz9rcDkiWJezy1tKNbxBCKrzt6WGJs5M1PuchHvNEElBV3vX08q6nF5tQOMOWy+XZxYw2JqadL/asIb/9l8Y9ui+pCl7ftOzRe3UXLJFIJJJDSPAR8r/sWPZEmyrUhXrJe7k1ihGzlkjJgrERUuE1dw9fad3GtR0NfORNnvI/nH41xN9dXZzbsp3vtu/hE19/5JtixTq4YeENhXi/K8KI49hpB3E5DDmvSSKRSCQ6kDQDAGDTssdeBJ7XQ9bS9v0EIiXpWc16LAXACk8fZ7du5UcdDewMJNbVHwsqYa/AJft3cm3HHhqDfn0Em4xgHPzx+LinC08cI5aHQBWEvrV52aPNegqVSCQSycAk1QCAcFUA0KpVTm/AzzZn39AXmbUbAG3BAD/v3Mui9t3s0ZjUl2jedPdyTstW/tC7H6+qMfQRoWxyl0v3dr8PbVy++GVdhUokEolkUJJuAGxb+mg7iGt0keXqHfoCjUN0Xu7v4qyWrbzU361JTjLxqCoP9rZy4f6d2jwVEd67Ro+uIYdNPUGHLPmTSCSSJJJ0AwBg0/JHn0eHUECjO8K8IUN8L8+rhritu4mfde7DpfUknSK2+z1c0LqDp5xxxukNQxsALv3c/16B8o1979+jy/AoiUQikURHyibL+ETge2bVeCowdJu5IfBHUs5K7AZAY9DP99t3s82f+a3nvWqI27ub2erzcmN+BcZY2iJH7D+kT56eAI8327xFF2FJpHbuwlkIdZEqlJNBrQT0SziRSCRHAyGgB+gFXECngK0hoW5VQmJr0GRYv2Xpw7tTucGUGQBGry2E2WdL6CIxdvLbFfByVVs9rXol0qUJ/+jvpCXo476i4dij7R0Q4b2zxmFcDbgM5Fr6+k8DMiL+P3PmIps7iwdU1MvDHZJkwYJEIhkQBcj/7A8AKtQJVaAKUAJBJtYt3APibUTobWPQ+Pr6lQ8nvnnNYRtMCcLsuxCNp6Zyy9B16rEYAOt8/Vy6f+dRp/wP8L7XycK2erqjdd1HeO9KrRHe+5hQdGkQlWimLbg8rz8r9C6oV5DEJloSieSoZTioV6CKpwJKsLG2buG/Js5b+PURCy63JmPxlBkAilAv1SqjKiuCAyHKIv31PjdXttXTE9K1rC3tWOfr5+qOevqjyWuI0ECp2qqr8+acMWdek6BuRnpxo+INmp4ViAiDKCQSiSQujCqcheBZW8DUPHH+wjtrF3y3LJELpsQAmHTiVTWqKk7QIsOiKEzPi5A+4AtElNMQ8PK9jt24MzTZL1Y2+Nx8v30Pvkiua//Q793knLhTN47goDBA2jKxrvFyoZLWe5RIJEcNeahcrwb89TV1ix6orVtUnYhFUmIAhELiejS6UGfnF5KlREhhCAytxNqCAa5qq6czGNlQOJr40Ovk/zr3DZ3IF8F4KrVYqYzkgYkJ5XwdhemNAH6R6k1IJJJjDqtA/Z6KurV2/sJf6R0aSLoBUHPi1WMBze7/r1dEYRB5B4/nB1SVH3Ts1q9zXobxr/5unnZ2Dn5BKBTRC3Bqsa7eqXPTNQxQO3fhVGB0qvchkUiOWayqyk22gGl97fyFp+slNOlVAEoodI+qMflvjD2bLxSVRL7QM3gp3309raz3Jaf0vLQ4n+mTRzOyuozhVSUU5GWTZbVgMhlwujz09LrY29jGzt3NfLxhJ/ua2pKyr7u6m5lutlFrHiShz+0dsiPgOaUVPNGwS5e9qJBr7vMsra276uMQYoOiis1+E5+GG0ellpBQxw85eVIikUiSw1hV5T+1dQufsrrFt9eseVRTR7aEfarV1l5gVvPyxqpCnQliIlArYCZQrlX2rTVTOLescuiLvH5oaBnwWys8fVzdvke3WvaBGDe6kq+cOYeT5k5hRFVpTPfubWzj7eWf8PdXVrCjvilBOwxTbbTwQumYgcsDc+1QMvg4YIBL1rzPJ71dCdodOBw2hldVMLyqguqqciqHlVNdVUFBfm7C1jycd5et4s77FidtPYlEIomIKj5WDeLCze89sj1eEdoNgAsuMNS0FoxS1NAUVRWTUdVJCKYQdpnqHmIotVh5fc4XIje16eqD9iNb+PaFgpzdso32kP5xf0URnFw3jYWXnsmkmhG6yFyzbjsPP/kKK1dt0kXeQFyWXcQNuQPYZQYDjKoY8t632lv5wadrErSzwcnOzmbYsDIqysuprKxg4sQJFJcMMR5aAzt27OS22+5JiGyJRCLRQK+qqhdvXvHYq/HcHLMBMLnuO/kB1X+aAqeEBNMURK0KehaFD8m1o8axaPiYyBfuaQHfkfH927qbWOLs0H1fx00dyy+vu5hxoyN4JuJk9brt3HzX0wnxCBiAv5WOZaxpgPySYcVgGzzvJKTCGR+8Q6Mn9Z18y8pKmTFjCl/84gLy8vTzEASDQa794c9x9ydg5LJEIpFow6+iXrV5+WNPxnpj1NNyJs1ddFrR8OmPqKh/EEJ8HSFmCEQFYIp1US38bOxECs0RcsW8Pug8clDQNr+HX3Xt09Xxb8uy8KvrL+Xn115IUUHi3NIVZYWcf3YdiqKwdv0O1Bi7HA6FCuwM+DjXnscRsW4hwDG4fScE7HH3s6GvR7f9xIvT6WL79l28884yunt6qa6uxGrVnjSrKAoul4sdO/TJd5BIJBIdMQjEV4qrjxNtDWuWxnRjpAtqTrz6xJKqGc+qgp+BGEUKmwcZEFw/piay+7+1c8AM9h937mVfUL+RvuNGDeOxe69j7qyJiFj67MeJwaAwe/p4Zkwdw/JVG3G7NUz7O4ymoI8JpixGmQ4zrvxByMsOa/pB2OvpZ1lHchIXoyEUCrG7fg8rV35IaUkx5RXaqxWGD6/iww9X4xkisVQikUhShAAWFFfNdLXtXbsy2psGNQBqay8wF4+fe4tQ+SNQpccOtXJmSTlfKh06Jo0/AG1Hxv5X+1z8obdVt73Mmj6ex+65jtJi/RriREtleRGnfWEmyz7YQHevSze5e4M+LrAflvSnqmAxhf8MQqnFytP7dpNurZR8Pj8ffbSWnt5eJk/WZqSZzWbGjBnFmtUf44/QX0IikUhSguDUouqZu9ob1q6P5vIBDYAJs79XKBymt0BcSJr0PFcE/L52BgXmCBWEfS7oP/KUdktXE3sC+pz+T66bxgO3f48sa+oGwOU4bJzxheNY9uEGOrv7dJG5PxjgOIudSuNhr0sAjsGb/jiMRnb1u9ju0mcferNndwMtLa3MmDFVkxGQn5/HlCm17Ni+i96+9HytEonkmEYIOLuoasaa9r1rI1YHHGEAjFuwqMgggm8RLtlLGy6uHB659A+grQsCh55Ft/k93NEzcElgrMyaPp77b/suFnNSUx8GxJZl4eS6abzx7lr6nPok4bWFApxjyz/0i/4gZNvAMHj0Z7TNwfNNDWnnBThAU1MzzU0tHHfcdE1GQE5ODiedNI/SsmJCoRBerw+/369rToZEIpFowCCE+HLJsOkvtO37eIhub4ed7qec9k17oN+6Apia0O3FSJklixdnz8dhjNC3yOuDhiPd/L/u2scLLu216sMrS3j2sV+SbU9a0UNU7NrTzEWLbsM1gOcjVgSC18vGUXG4FyDHDqVD9wT4/c4tujUGShQXXPAVzjjjlFRvQyI56jAZBSW5pvRwGcdIe28Aj1/f40sopOLxuHG7PbS3d9DS0kpDQyNbNm+lpTUpU3/X+rKtc3f8+/5Bk8UO8QAUlh//MHBmwrcVA2ah8NDUWVRH03e+qxc8h7r5vWqI/+1qxKfxhGY2GXnkrmupLE9MrbkW8vOyqRpWzOtL9anHLzKYmGGxH/pFrx9yHaAM7gWYnpfHOx376fTpl2ipN1u3bmfSpBry85OfuyGRHK0IAUU5JgxK5qn/3v4gLq/+vkshBCaTCZsti6KiQkaMqGbq1El88YsnUVd3AtnZDrq6enA69cvjOoxyoy9Q0NawdtAeAZ8bALV1V10M4pZE7SQeBIKbJkxiQVEUnfRUNZz9f5iif8fTy0v9RyYFxsoPv30epy1Iq6jIIYwZWUFTSwdbduzVLKszFOAiR+GR3xBiyJ4AJqEwp6CYl1oa8YXSMxigqip79uzlxBPnJaVyQyI5Fsh3GLGaUlYgFjdef4huV/LHwNtsWYwbN4aTTz6RESNH0N7RQVendj01ALOKqmasbN+7dkDXrAFgzJnXWAy+4MtATiJ2EA8CwS/HTeSCaIb+APS4YIA4+H29rdQHtJXLjR01jN/+/HKUIU6/6cDMKWP5579X4vZoO4F3hAKcnpVLgeGwkIvPFzEXIM9kYk5BEW+0teBJUyOgp6eX4cOrKSuLrUWzRCI5ErtVIScr6pYyaUNQDbv+QylM3xFCUFZawvz5cxkxvIodO+txu/VtqiYUMcc+asofu3d/ckT5kgGgvGzKt0FcpOuqGrAbjNxaM4XzyqOsPgyp0NLO4T/JgKry665GAhpb//zu/65keIz9/FOB1WomJ9vO0hXrNMsaYbIw1XxY2EUFgqEhKwIASixW6gpKWNHZTm8gPact7t/fxkknzUv1NiSSjMZoEBTlZGbcv6MvgD+YPsm7ZWWlnHjiXHp6+mho2Ken6AJz0Ohr27vmvcO/oQBCRfxEz9W0MDUnj2ePm8uZker9D6ar94jMf4BP/f24VW2n0Mk1I5k7a6ImGcnkvC/NZWS19sY3q72DtL3t6w9PCYzAeEc2f5tVx7nlw47sLpgG7N7dQFtbygcNSiQZixBQlG1Mw9/uyPS6g3h1TvrTA4vFwhVXXMKVV12GWc9KM6H+fMqCq44oo1Mm1F01Axiu30rxMdru4M7a6Tw9cw4jbY7ob/R4w4N/BuAjr/bkiisv0W30clIwKApXXXqGZjlrvM7BpyW2dEAU7n2H0citE6by/Ky5nFxUiiHNPirWr9+Y6i1IJBlLvt2I0ZBev9PR4Auo9LmTH/ePhblzZnP99T/A4bBHvjgKVMgKBDjioK8YhDhLlxVixGowMD03n8urRvLMzLm8NPtEvlRSHttpMRSCliMT/w6g1QDIz3WwYO4UTTJSwRknzyI3R9uD0xUKsmuwxkmBILRGX1ZZ48jl/skzWTrvi/zf+EmcXlJGVZYt5Z6BTZu2pHR9iSRTsZkVbJb0zokaiFAIOvsCg6mMtGL06JFc/+NryLJFUQEXBQKxuNQofgAAIABJREFUsHbBdw9xDxtVlfm6SB98UYZlZTHens1YRzbj7DmMs2dTbbNh0JKFrarQ1D5gz/8DbPNpq4s/44uzMJki9B5IQ6wWE+ecfgJPPf+WJjk7/R5GGwcZvOTshw4jFEY/AKnAbOaiimou+iyx0xUMsLvfxa5+J7tc4b/r+500uPvxJyGBsKNTe28IieRYw2gQ5Dky73MRoNMVIJDKrL8Yqaqu5Loffoff33U/Pq+25G4VskTAfx1ww4GvGYFhGvf4OdlGE2PsDsbYsxltd1CbncsERw42QwIyRJvbh4xF96lB2kPaerbPP2GSpvtTyaknzdBsADREap3c2Rvu0ZwfX/GI3WCkNjuX2uxDjYigqtLscbPX088Ol5OdLif73P1sdfXq2mOguzshZTcSyVGLAAodRjKw3J8+dxCPL/3i/pEYPXok37z0QhYvfkqzLBUWjlhw+a93L/2TB8IGgKaMsQVFJVwybARjHdkURxrTqwehUFj59w+diNbg16YoDAaFmVPGapKRSqZNHk1+roOuHmfcMvZEUz7Z3gOqgILsuNc5HIMQVGbZqMyyMSf/0MZLbT4vu/qdvN3WwpJ9ezSt40pcAw6J5Kgkz27EZMw87e8LqPSkedx/KObOPZ6tW3ewfPn7WkXl2wLmLwPPQ7gKIH/o64fmvkkzmVtQlBzl7w/A3taIyh+iVF5DMGp4OQ679lnyqcKgKMycqs2AafBH+R52dMP+wXMx9KTYbOH4vEJ+PraWcQ5tbStCGeQKlEhSTZZFwW7NzLh/hzOAxmrwlHPxxV8jPz/6kOtgqKiXHfi35p+mMVnd1Hqc4T7/vujc+h0a3f96lNKlmtoJ2oo7emIpoexxwd794XkMScIkO/lJJEnBqAgK7JkZ9+9yBgimUb1/vFitVi666HzNcgScMWb+FcWggwGQcDyfDfjZ3xVV6dkB+jWeRquGFWu6Px2oGRtlF8VBcMXaQ8HrCxsBnb2gsf+CRCJJDwRQkGMkE+1tpyeIOw3r/ePluOOmM3r0KK1ijBbVdCqkswHg9kDj/rDLP45TZX9IW7wnJ0K3u0ygomyAfv4x0K/G8R6qKnT0QH1zuD+DNAQkkowm12HEnKH1/t39mRv3H4yzzzpNBynqyRBOAkwfAgFweqDXpdmV3K9R8diykpDTkGDKSjSld+DSUooXDEF7d9gYcFgh2w5pNkZZIpEMjc2i4MjQev+jIe4/EJOn1FJWVkpLS6sWMSdDOnsAJJpJix4GQoCQj5lEkmkYFUF+psb9XUdH3H8ghBDMnTtbkwwVRtbMvXJ4en0yG42Q54DqUqgsHXL0bCRsGpVOfxT97tMdp0vbVCm7lumHRgOU5MOoYVBaIE//EkkGkdFxf3cQdwbW+8fC7OOP0yzDoCiT08sAOJgsMwwrhqpSsJpjvt2maGs+1OscZBhOBtE3wHjkWLDH4yBSlLDiH1EOuQ7SrP2/RCKJgly7ISPj/v6ASncG1/tHS3FRISWl2hLVQ4jx6WsAHMBqDhsBJflh5RIlNo2ma8O+/ZruTwe0vgZ7rEaU3QrDyz5T/Jn34SGRSCDLrOCwJqB7a4JRVWjvOzrj/gNRUzNe0/1CDU3QHOAJqGpyegHkOiDLGu4C6Is8Y77QoG2UYn1Di6b70wGtryEvWgNACCjKC4dvkohfY6mn0ZiZ8U2tuN0eevv6cLuj8xAJBNnZDrKzHZhMOo4olaQdGR33dwYIHkPNvaortXXxV2GcEehCQzfAazesSV4rYLMRqkqguQP6hx70M9wQe9jgYOobWnC6PBndDfDTTfWa7h9hiuLnqShQUQRJqppwBQNsc/bx2v5mtjl7NcnKsmbuzzZaXC4Xm7dsY/OmbWzZvJX2jk4CgfibZNmyshgxspqJtTXUThxPVVUlQnp7jg4E5GcbY3G0pg1OT5D+ozzufzhl5Rqb1QmlwAg0o8EAWNq+n6XtYVdzUoYBKUo4N6CpDVyDGwEjTBYEYvCZ9hEIBkOsWbeNkzJwHDCAqqqs+nirJhkjB5sEeABFQGUxWLQZW4PRG/Czw+VkY18Pm/p62NjXQ32/E72M/MLCAn0EpSFt+9t58613eO+9lfii8JhFS7/bzaZNW9m0aSsvAJWVwzj99JM54YRZKJmoOSSfk2czYMnAPv/+gEqP6+iP+x9OUbG2Pi+g5hiBJmCiDvuhL+Dn454uPu7575jVhI0DLi+CxrZBJwLahUKRwUBbMP7TzrIPNmSsAbB5+17aO7WdkIcPZQAoImyI6aD8g6pKfb+TLX19bHX2stnZy1ZnL50aBzpFoqq6MqHyU4HL5eIvf3mBVatWJ2XWwb59jSxe/BQvvfgql37zIiZNqkn4mhL9yTJlZtw/pEKnM3CshP0PIcuq2euabRSCZarKKXpsaCBUVPa5+9nn7uet9v82LrAqCmPtOdRm57CgqJQ5BUWx5RIIEXY972mBwMDW3wRTFm3Bvrj3/u+3P+KGa76eHvX0MfLyax9oljF2KAOgtBA0PIAf93Tx2v5mPu3tYYuzB4+WpkNxMmny0aWsNm/ZxuLHnqSrK/ljjtvaO7jnnj8wd85sLv3mhVgsmd9I61jBoAjyHZn3GQfhen//UVrvH4msLM2l1dnGEOJfAvUmPTYUC55QiE/7uvm0r5u/NjWQZzLxjWEjuKx6JNmGKB/GA/HnhoE7Is2y2Fnmid8A6O5xsXTlek49aUbcMlKB3x/glTdXaZJRaTBTYRzkdJ/jAEfsD19IhX+1NvLInh3s7k/tKF5FUajVmEWbTryzdBlPL3kONQkTGYdi5furaNjbyI9/9H1ycvUbES1JEAIKHJka9w/h9h5bcf+D0SHkZlQ2L3v0Y0DbYHUd6Pb7eXD3dk5//x3+1dIU/Y0WMxQMPBZ2tsWueV+Ln35Ns4xk889/r6RDo/v/BOsg753JCMV5Mcvb6XJy0ZoV/HzzupQrf4Dp06eQZcv8eQ8A7y1byV+eTr3yP8C+fY387o576erqSfVWJBHIyzJgMWVq3F/bxFdJuBWwqsIdqd7IAXr8fm7Y/Ak/37wOf7Ru4YJsMB5pDU0023BotJI+3VzPilUbNclIJoFAkMeW/EeznNmWQUr6CnPD8f8YeKW1iQtXr2RjX3ooBCEE55xzZqq3oQurV3/Mk39+Jinx/lhoaWnl97//f7jdQ1frSFKH1aTgyJJx/2MZBcCfbV0MYm+qN3MwL7U0cs2GNdHFhoUCBblHfNkAnGgd2DsQC3c88DyBQfIM0o0/P/cm+5rbNckwAHMGMgAsZsiO7dT8l317uGHTOtyh9LHWZ86cRqXGGtp0oLu7hyef/GvanPwPp6WllT/96elUb0MyAAZFUJChcf/uYzjurzcKwI5/3+9V1dBPUr2Zw1nW0cYNmz6JrpQvxw6GI0/7X86K3V19ODvqm/jzc29qlpNomls7eeiJf2mWU2fNoWCgPIyC2GK6zzc1cOv2TXGXYiaCvNwcLvnG11O9Dc2oqsrjjy/B5Up9OGUoVq/+mOXL30/1NiQHITI47u/yhOg/huP+evP5I7B5xWPPClicys0MxJttLSzeE0VDGyEGPJ3Oy8qmSNFu6T7w2Its2tagWU6iCAZD3HDzYtwe7UOMzrUPYDQZlJgG+qzt6eKWbRvTSvkrisLCRVccFclpGzZsZuPGzaneRlQ8//w/8XhkKCBdyMnQuH8gqNIt4/66cogNaHWLHwCfpGgvg3J//VZ29TsjX5hzZOKaAfiSTbsXwOcP8ONfP0pfmg4Juu+P/2TNuu2a5eQoBhZYB1CQDlvU/f37ggF+vPFjAmnkmlYUhf/5n4uZMGFsqreiC//5zxup3kLUOJ0u3lm6PNXbkABWs0J2Bsb9D/T5T59PlKODQwyANWse7Q8YxamkmREQUFV+uy2KRDyLGQboOnhZdow9BgahYd9+rr7+/+HxJLZBTay88PIyFj+tPfEP4AJ7AZaBRinnRN/n/56dW9jvTZ8Tn9Fo5Nvf/hZ1dXNSvRVd2L2ngS1btBt7yeS1197UtSOhJHYMiqAgQ/v8d7sCBGTcX3eO+KTftvTRdhEMfRHQ3klGRz7o6uCj7s7IFzqODAOUG0ycpUMuAMC6jbu4/qY/4vOnhyvqP2+v5je/1yfRyioULncUHfkNswms0Q2B2ebq4/mm9AmVlJWX8tOfXsvMmdNSvRXdWP3Rx6neQsz09TpZv35DqrdxzCKAAochI+P+/d4QLhn3TwgDPg4b31/cmeUWJ6KKWwWkTfr7k3ujyAXIH3gU7cLs4lir1wblneXrWPTj++hzRTdNLVE884+l/OSmPxLUqYveRY6CgZP/Yoj9P7pnp269+rVgNBo544xT+PWvfsbo0SNTvR1d2bxJ24yHVPHxx+tTvYVjlmybAYsp87S/jPsnlkGfiDVrHvVvWvHoL0EsEEJNizTepR2tkXMBTMYBu9SNNFn4clbcM4+O4KOPt3Lpd37Hrj3NusmMFp8/wG/vfYZb7v6LbvXfNqFwuaP4yG8IIDe6hkq7+p28tj+GJk4JwGazcdZZp3PHnTdzwQVfwWw+usbXOp0uGvamVcVu1Gzdmllhi6MFiylD4/5AR18gLQ4URysRA0Iblz+6HJg7cf7VX1QJ/VSonBzNfYkgpMJDu3dw58QI7ty8bOg7Mlnvx7llvO3ppS+kj1NjR30TX7/qVn72g6/ztbPrkjIWdUd9E7/47RNs3Kpv88bv55ZSPNDpP9sRNqqi4KHdO5L+y2o0GqmoKGfixHFMmlTL2LGjMBozM84ZDXt27027pj/R0tXVjdPpwuHQ3qFTEh2KEBQ6DGRezj90OWW9f6KJ+pNy07JH3gLemrbg8jyf33SaKjhFwFRblnV2fxK7fb3W2sx3RoxhlG2IpDSrOay0DovTFxqMXJtTyi3d+p1S3R4vv77jKf7x6kr+90cXUzO2WjfZB+N0eXjkz6/w5PNv6t6UqMaUxaUDxf4BcqNr/LOr38lrrYn1hhQVFlBRWUFlZQWVlcOoHFZOWVkpBj3HTac5La0Dz73IFFpb9uMYc3SFZNKZgmwDil6xzyTi9sl6/2QQ81Hpk6V/6gae++wPe9tVtaOzmz17m9nT0ETD3mb27G2ifvc+EmEYBFF5ePcO7ojkBcjOgs4jBwF93VHAy/3drPPpW873yYadXHDlb/nCvKks/OaZTJmoz4dcV4+Tv/ztHZa88Ba9A3g1tGJA8Ov8CgZUoWZT1BP/Htq9g6BORTq2rCxKSoqpqCijekQ1wyrKqaoeRrYj+kqEo5WMNwBa9zNaGgBJITfLgDVD4/5dThn3Twa6+EoLC/IoLMhjxtRDx6u27u9g774Wdjc0srexhfrdjextbKa/X5th8J/WZr4dyQtgsw1oABgQ3FlYzfmt2+nVKRRwAFVVeXv5J7y9/BPGjhrGOWecwIK5Uxg1vDwmOT29Lj5cu4V/vf4h732wAX8CKw6+l1vKZPMgp3y7NSoZep3+q6uruOaaRRQU6JercbTR2rpfswxFgR+fn8uscRYQkY22YBD+ubKfZ5dq7zrYnOEGTKZgMSk4bJnnGVOBThn3TxoJDZaWlhRSWlLIcTNqP/9af7+HC//nx/j88dcEB1F5pnEPvxxbO/hFVlN4aM0AT9Iwg4nfFlTyg/aGhHWq276rkbse/Bt3Pfg3SorymD55NCOqShlRXUZ+rgO7zYrJZMDp8tDn7KexuYPdDS1s3r6XzdsbkhLnPcmaw6LsQVz/AFnRGQDPNTZoPv0LIbj44q9J5R+B1mbtBsDJ07K4/LTYvCmTR5pY9qmXpg5txmhri/b9S4bGkMFx/25nAJ+M+yeNpGdL2WxWZkyr4YOPtJUE/ae1mRvGTBy8wY8QYff1IN6Gk605XOEo4nFnm6Z9RMP+9m5ee2dNwteJhUqjmdsLKhFDfUxkRXb/q6i82a79VDd16iTGjRujWc7RjM/np7OrS7OcCVWxV0YIIRhXaZQGQAaQqXF/We+ffFISIJo/7zjNMjr9PtZGagxkMQ/57R/llXKerUDzXjKNAsXIw4UjyFGGcBEaDVGN/d3U10uzR3s/hDPOOEWzjKOd/W1tuniGhpfGZ/ePLNN+XtDrNUgGJidT6/1DKl2y3j/ppKReau7saZhNJk1hAIA1PV3Mzi8c/ALz0DEwgeDG/Ao6Q37e9RyZL3A0ki0MPFI8gpGmCKf7KEv/VkfTnTECpSXFjB07WrMcrXT39NLS3EpLcwtOVz+Gz6ZLZlmtVA+vorJyWEr7Cuh1eh4RpyIfEafhcDAHvBhFhak3vHt7+vD6vAQCAbw+H3m5ueTlHTlWPFOwGEXG1vt39gZIo9EhxwwpMQBsNivTp9bw4WptYYB1vRHcoabIH9ZGIbi7sJrvt+/hfW8UA4cyGIei8HDhCCaaoujsF8V7B1H8DKJgztzjNcuIl32NTaz6cA2rVq2hra19yGsVRaG6qpIZM6cyd+4J5OcnV1noYQAIEb8iH66DBwDCeQypMAD27NnLxx+vo75+Dw1799Hbc6TRbzKZKCoqZNy4MUyfPoWamnEZ0VfCIKAg25iZcX+XjPunipQ92fPnzdRsAOzzRCiLizIOZhUKDxWN4H+79vGv/m5Ne0pXSgwmHiwaTk00yh+ifu/q+7WVJgohOGHOLE0y4mHjhi28+PIr7NwRRXvpzwiFQuze08DuPQ28+OKrnHDCLM4772zy8/WZMxEJPTLoS/IM2CzxqYmRZfp4P1pb91M7aYIusiLhdnt4551lvP/+hzQ1tUS83u/309zcQnNzC+++uxyr1crcebM58/RTKShM3wTVfIcRQwbG/d3eEC6PjPunipQZAHOPn4bJaMQfiD/u0xxpxvhAU+0GwSQEtxdUUmww8kTf0CfBTKPGlMWDRcMpMcTwAR7lW6c1/u+w28nLzdEkIxZ6e/pY8vSzrFmjbeBlMBhkxYoP+Gj1Wr761XM45YsnJbwTpB4lgPHG/wGKchQcWQKnW9tpLRm9DEKhEEvfXc5LL/6bvr74w3sej4e333qP5cve58wzT+Wss05Pu8ZTOVkGrObMjPt3yrh/SknZU+P1+jBHSNKLKCMYwXKM0SIWCK7PLeeOgiocmTg2awDOteXzZMmo2JQ/QBTOxJAKfQFteRx9TicvvviqJhnRsn37Tm666TbNyv9gfF4ff33mBe6990FNiiYa9AgBaI3jazEgDpBoA6CxsZkbb7ydp5c8p9vPxOfz8+KLr3LbbffQ2aE97KUXZqMgJwPj/qjhen8Z908tKdFyqqpyzwNP4nLp39nuEOLMNj7Llsc/SsYybbAGORmAQ1G4vaCSWwsqscXgCfmcJMbkXnvtTXbs2JnQNdZ98il33fUA3T29CZG/YcNmbrrpdrZt25EQ+U6nC6dTeyMerQaAHmEAPXoZDMaKFR9wy2/vpLExMUOp6ut3c+ttv6exMflDwA5HUaDAYYzGVk87uvuD+AJS+6ealBgA/3j5LVat+VSzHLsxguUbjN+9VGE08+fiUfwgtwxrPAo0hZyYlc0/SsbyZZuGmGUUXRIVASYdPCWhkMqf/vQMfo1VIYOxdet2HnxoccLkH6Crq4c77/x/vPjiq7qXurXqdGqOtwLgAMNLtJ82O7u6dP9Z+Hx+nnzyrzz++BJ8Xp+usg+nq6uHu++6n/YO7RUwWiiwGzEaMk/7u/0hnJ60mTJ/TJN0zbZ7TyNPPPUPXWRVWSNMFYsUIoiAUQiuzi7m1bLxnGPLG7ppThowwmjhwaLhPFQ4ggqjtvBKtO9duTXKpMIINDe3JCQUsK+xifsf+CMBDbkmsRAKhXjppVe5++776enVLyTQ3KyPAaC1ln+EDh6AUEhl/379GnC1NLfy21vu5N13l+smMxLdPb3cddf9A1YSJIPsDI77yz7/6UNSnyCvz89vf/+o5vr/A4y0RzAAvPqsU2owcltBFX8uHkmd1ZF2hkCl0cz/5Q/jxdKxnGTVKaEuylPUyCz9wiSvvfYWu3bt1k1eW3sH99z1AG6NlQrxsHnzNm7+jX4hgVYdFKbRIKgo1HaC1+pBOIBePQ1WrvyQ3/zmDvYlyOU/FPtb27jv/ofxer1JXddsFORmaNy/qy9ASCb9pw1JNQAeffw5GvbqFzubO1QTIIhaiUXLTIudR4pG8rfSMZxlyxu8DXGSmGy2cXdhNa+WjeMie4G++wmGjhinPBAn5A8xSyBGQqEQix9/Cp9Pu+HW53Ry791/SFjMPxoOhARefeV1VI3ZTju279K8n6oSg2aX8YhSI3o8Ztt3aHs9Xp+Xxx9fwuLFT+H1JVcBH8zu+j08/PDjBIPJcWkrChRmaNy/xx3EK+P+aUXSDIAPPlrHK6+9p5s8A4J5BcVDX+RJTMx3vMnKHQVVLCuv4daCSuZYHLEWHMRNucHEpY5CnioezV9LRnN6Vi4JG/vhiWxALSgs0dUj0tLcyksvaQsFeH1e7rv3YVp0KJvTSigU4m9/fymuKoFQSGXjhi088sgTungS9OjkZ7MISvK0nz7ffHMpf/3r39i5M/o+DAdoamrhlpvvZMWKDzTvQw/Wr9/In/78F81GXjQU2I0YMjDu7/GH6HPLuH+6kZQ+AN09fdzzh6d0/QU5rbScEssQ0+o83vAc0wSSoxg415bPubZ8WoI+VnicrPa6+Mjrojmoj/HhUBSmm+3MNNuZY3UwyaxPzD0qXG7IHtrFX22zc2JhEe926BfTfe21N5k2bRJjxsTeHjgYDPLQg4upr9+t23704ECVwKJFV0QceuTz+nj3vRW8+cY7uiaa6WEAQLgUsLVL2+9WKBTijTfe4Y033qG0pJgT5sxizgmzKS4Z2qO0csWHLFnyXEpP/QOxcsWH5OXm8LWvnZuwNRzWzIz7B0MqnTLun5ZoNiX3tg+t1VVV5Re/uY+1H2/SutTnKAKenVnHxOwh4t1tXdCduta+TQEf2wMedgd8NPi97An46AwFcKkhnGoQTyiEDxWHMGATBrIUQa4wUG00M9xoodpoZqTJwjiTNXEn/EgoAkYNI5LPd11vN5eseV/X0crl5WX8+tc3YIqyJTGEn7XHn1jCyhUf6rYPvVEUhfO+cjZnfunUIxoHeTzhrnWvvf4Wfb36P7s3XZbH+SdGyJuJgt8s6ebZpdpLEg9HUQTTpk3hrLNPZ8Tw6kO+5/P6WPL0c2lz6h+Miy++gFNOOUl3uWajoCTHlHGuf1WF9j4/Xr90/SeCK6/8vqb7E+4B+MdLb+qq/AG+WTlyaOWvquA8rEOdxRweD2wxgdUUDqYZlPDfIRXUUDju7fODLxD2ILh9xJuxUmE0U2E0o/9HQZQIIMsKVjOYTeE/BhF+vYoSfl0hNfzH5w/nS/j84PKG3wsIf8/pgeyhvQ5Tc/L4xrDhPN24W7ftH6gKOP/86E9Uf//7S2mt/OG/IYGt27Zz5bcuIzvHwb69jaxY8QHLV65KaMKiHhn8oJ8n4XBCIZW1a9fxySfrmTdvDiedNBehKLjdHp75y/NpUXsfiWeffYHc3GxmzZqhm0xFZHDcvz8olX8ak1ADYGf9Xh7XqeTvAKPtDq4dNX7oi/r6IRAMK70cGzhsQ0+3UwRgAIMhfM/BeH1hY6KvP6qkuJSiiPBrzbaFjZ2hEhMU5b8ZIGYjOD5T8qoKLk/49Tr7obs3ogEA8KMxE/igu52dLv1Orq+99hYzZkxl1KgREa99b9lKXn31Dd3WTjQbNmzmZz+7EYPRQH8SqhSEgPFV+vy6zx4fYZKkRkIhlWXLVrJs2cqErpMIQiGVxYufoqAgn9GjR+oiM9+RuXF/We+f3iQsoBTwB/jdPYs19fo/HLNQuKNmGpZIzWdcbigrhOFlkJ8T9WjbAbGYoTAXRpRDVSnkOsLKM53IskBpAYyqCP9ts8bcBvlzhAgbA+WFMLw8bBy4I8dbrUr4Z2PWsWlSKBTiiSeWRKzh37ZtB08veU63dZOF1+dNivKHcPledpY+P5sJ1SYqCtN/Ql6q8Pv93P//Hok4XTIaHFkGsmTcX5IgEvZkPf/i6+xp0Lc297ox45kwlOv/AOVFEZPX4sJqhpJ8GFkBJQVh4yBVGBTIyw4r6coSyLHHNPwoKsxGKC0MexOiYEJ2Dj8cHcE7EyNNTS288cY7g36/p7ePB5LY6CdTOaFmiITZODj9OH3lHW30OZ08/NDjhDQUvZuMglxb5tX7qyp0OGW9fyaQEAOgdX8Hzzyvb1e3uQVFfLNyhK4y40YRkGuH6tLwn1yH/sp3MCyfGSEjKqA4L6ykE00MzoTLqkYwt0C/3gAAL7/0n0EHsPz9by/hcumfkHa0cc4J+laPXHiSPe0cYenG7j0NvPfuirjuFQKKso2ZGPan1x3EJ+P+GUFCfoX/+a+38OrYhCffZObWmqlp14EP+K9CHlkWNgQSRZYZqkr+a3Ck6exvgeB3NdMoNOsXJ/b6vLz19tIjvr57TwMrVyY2KzzLrFBWkNnu7nGVJqaM0tdbVVVi5KQpmesFECL8GgwJNmL++eKrcSV25juMGNL0d3woPD5Z759J6P74B4Mh3nlvla4yb54wmWIdFUpCMBjChkB1qb6hAYMSjsdXlkbtik81BWYzv50wRVeDbeX7q45wp77yr9d0H7pzMKMrjLzy2xLeuL2UH341J+HKIlH88Ks6tYc+jGvPy8lIJZWdpXDvdwr4z62l/OXnxRRkJ87N3tfXxzvvxDajwG41YMvAuH9IVel0SeWfSej+lK35ZCNd3fq1X72oopovFJXqJi/hWMxhIyBfhw9dmxWqy8KZ/RnG/MJiLqyo0k1eb08fmzZt/fz/LpeL9es36ib/cErzDTzywyJK8w0oCiz8UjZPXB/+fyYxZ6IlypN6AAI9MckeO8zE1+Zn1rNZO8LEC78q5pQZ4ZDIpJFmFl9fmFAj4P0Poj8QmYyCPHtmPWMH6OwLJtQgl+iP7r7NzVu19yw/wGgLvewzAAAgAElEQVS7g5+MnaiLLHcowHvt7azv7WJjXw/NXg+9fj+uQACrwUCB2cw4ezZTc/NZUFjCaLtGd35Rbrj6YH+cndzyc8IydCKIyobeHur7nTS63Xg/O03nGE2MsdsZ78jRbbLfAX4ydiIf9XTqVhq4Y8cuJk2qAeCjVWsTlviXnaXw0A8KKS849IN45jgLf/t1CT9f3MWyTz0JWVtPcmwKN18e3Uho1dMEwT6EMYdYkj5+emEOq7Z42d2a/kmYF5xo5xffyMVsPPT1jRtm4s8/LeSKO9tp79U/c62pqYWGhr1UVw9tECsCChyZGffv6Q/i8cusv0xDdwNg1+59usgxC4U7J07HqjHTaHe/i6f21vNKaxN9wYE/pFzBAC53gL3uft5qb+XunVuottk5ubCEr1VUMcoWpzGQaw8332nuiO2+ojzIz45vzcNY39vNkn27WdbRRm9g6PbE4xw5nF5cxtcrqikwaw9jWJXwz/Ci1Svwqdo/HPbta/z835s2bx3iyvixmAR/uKaA8VUDN83Jdyg8eE0hi//Tx/3/7NU6cTphGA2COxbmH2HEDEiwHwLt4fRtfyeYIgzZOogss8LtV+Vz+Z3teHzpefrLzlK4+Yo8Tp0xuIE7qtzEH39UxJV3ddDZp78be+PGLRENgDy7EVMG1vt7/SGcMu6fkegeAtBr2t91Y8Yz3hG/EvSHQjy0ewfnrVrGX5saBlX+g9HQ7+JPe+s5d9V7/HTTJ+zqj/MU67CFS+mipVib8vcEg7zZ1sJ9u7Zx+ccfcPGalbzS2hRR+QNsc/Zyf/02Tnt/Kb/fuQWnDifs8Y5srhujT2lgc3Pr5/9uamrRRebBKAr8bmE+M8cNnWuR7iEBgyK49Vv5zJ8cjes/hOrZHVb+gOrdB2psP/fJI83cdXV+WuZITKw28dz/FQ+p/A8wrjLsCSjK0f+FRHpeHRYFmyUN38AIhFSVDmdQxybgkmSi+xOnxyhXrSV/W519nL96BQ/Ub9N88gyp8EprkzZDIMcGBVHkBOTaw7X9cdDp9/FA/Ta++P7bXLthLY/u2cFH3fGFH9yhAE807OJrq5fzSe/A5Xex8M1KfUoDff5wZUkgEGD/fv2GDx3gl98Y+pR4ODPHWXjhV8XUTUqf5EyrOXzyP+v46F6H6mmE0EFts9UAqrch5nUXTM3i9qsKjnCvp5JLTnbw9C+KqS6J3tF5wBOQ79D3o7FpiDbGJqMg15GZlSYy7p/Z6G4AaJ34ZzcY4y75U1F5cl89F61ewQ5XbKNXI3GwIfCTTZ/EHtcuzAXbEB/KNmu4uVCM7HD18eutn3Lqyrd5aPcOuv36jUDe5+7nsrUf8If67QQ1/FwFgltrppJj1NaLXv3sg8bV79Z9/vq3v5zNRQtiH5RTkG3goR8UpUWVwLBCA0t+VsQZs6I0YgLd4B9gZLK/CwKxG49fmp3F49cXUpCAE3QsZGcp3PvdggHj/dEwrtLE49frawT09A6cGJ3Jcf9et4z7pxKTDsa27r+pBo2fgq5ggLfaWyNfeBhtPi+L1n3E77Zv1iXePBghFV5tbeK8Vcu4c8dmPLG0uyrLH7iNsFDCJYQx0OHz8ovN6/nKquW80LQ3tn3EQFBVeXD3di5b+wH7PPG3rc03mcnTmFegfPbeKTqXnp0/38Y158ZftZHqkIDRILjidAf//E0pNdVRvsdBT9j1PwiqZw8EY2+wNH2MhZd+U8o5c1JTHVA73MwLv4rO5T8UB4wAvdonGw0DPxcZG/cPqPT1y7h/qjhgOGqWo8NeDqGirESzjFu3bmRpDEbA0vZWvrpqGSs7tffejpYgKn/aW8/5q5exxx2lYjQYwjH+wzlQMRAlr7c1c9YH7/Jiyz5dR/AOxSe9XXzto+X8qyX29s4BVeXHGz+moV9bx77S0mIADIN8mMbDvForv/pmbMbXYCQ7JGA2Cs6fb+OfNxVz/QW52CxRKhLVj+rZDuoQH+BqCNWzC9TYG3rlOxRuuzKfJT8r4gvTrEnrGPiNk+0s+XkRlcX6uNPHVZq47FTt45Nh4GfWbs3MuH9QVensC8i4fwrRy3DU/emrqirXLCOIyvUb17Gxb+i6ZE8oxM1bN/D9T9fS6dev82As1LtcXLxmBWuijbfn2MPjiA9gMoZj/1GgonLPri38aMMnMSc16oEzEOCGzZ9ww+bo1z+g/N9s0560V1FRBoDVYsF8+NTGOPnWGQ5dXffJCAkU5xr43jnZvHlHKTf9Tz4jYxnzqwZQ+7dDKIrfl5AP1bUVQpGHQQ3E9DEWHvh+IS/dVMrFX7BHb6DEyAGX/y+/kad7DsL2Rn1+z7JzDs3tMRoEefbMjfsHZdw/Zdh1TBjV/SNq7KhqXeS4QwG+s371oG7nrc4+vr56OX9takjaKXgwevx+vrN+dUSD5XMKD6rvz88O9yWNgt/v2MJje3al/PX+q6WJ81dFThDUU/kDDK8OP1uKolBVpU+ToTfXuiNfFCMHQgJLflYcm3KOwJRRZu5clM8bvyvlu+fkUJgToydE9aP2bzs06S/iPT5U97a4jQCAkeVG/veSPN7+fRk3XJhLVQxJeZGYNc7C324s0ezyH4h/ruzn9TX6PB8jhv/3ec3kPv997iBeGfdPGSajIE/HhFHdDYA5s6dhMOrjou3wefn2+o/oOSix7eBEPz1nz2vFFQxw9bqPaPFG8YFhywpPFlQE5ETXY+DJvfX8aW+9xl3qxz7P0AmCeit/o9HItOmTP///qJH6GJrPvOPijQQYARBW2C/8qpjrvpobd26AzSI4d66Nv/6ymGd+UcyXZtviS/4JuVH7t8Sm/D+/1xe+N6Ctw2d2lsJlpzp49ZZS/nBNAcdPiD9UUlFo5FeX5vH49UUMK9Q/72JHk59blsTWGXEoRowc/vm/8+xGjBka9++V9f4pQyQgYVR3H1ROjp3pUyaweq0+bVrrXS6u2bCGP06djSsQ4Jdb1vNexwCZy2lAl9/HTzet44npx2OI9GPKtUO/N6qma9udfdy7KzGNb7RwIEFwWUcbd0ycSrUtHMrQW/kDTKydgM3238SymprxvPHmUl1k/98T3dRUmXSLHR+M1Sy46ksOLj/dzrvrvazc6OHDrV4aWgMDNhEyGQWjyo3MGGth1jgzJ02xYjVr/JUPdH9W66/hw1sNoLp38P/ZO+8wqarzj3/PnTt9dmd3theWXWBh6b1JEQEVUVARQVHsipqYWGOLmqgp/mI01SQaS1RM7C0WNGIHpAgivS59e5s+c+ee3x8DusKWO3PPnTszez7Pw5MIM+890+55z/t9CzGXAqY8xDQi8jgEIVo2OG24FZv3hfDCR158vimIxrau12c1CZg0xIxTR1kwa6xVs03UH5Jx89+b4A+xOekKAkH//v0AADazAHtK6v6I6v488q8b2RokjGoiQs05YxozBwAA1rU04edbv0GRxZq0m/8x1rU0YemBalzSq6LrBzrs0aTAbqCguHvbxu9a9yYj37pbsGDtl/h5/yGYVVDEfPMHgFOmTfnBfw8dNhguVzaamtT3KXD7Zdz8jyY8f0eeZnXsooFgxkgLZoyMNueJyEBts4RmT/RzFQiQ6zQgN1MAUSgJdQuVQYOHOi71i88gaPAAIDWDWMoBQX2y4+DeJvzqChMopdh5SMKuwxKONEXQ6o2+L2YjQWmuAf2KjehbLKp3hhTw4POt2H2YXY5NZWU/uFzZKa37t7glrvvriFYJo5p8GyeMHY6Rw6qwfuM2ZjbfrTuCS3pVYHCGU7nWrhOPVe/CnMISZBu7KMkSCGDvXrdc3lCX9K8XANyR7xMEWTNgQCWGDRv8g78TBAFTp56EN954h8k1NleH8fBLbbhrEbv5C11hEKJh7OIYmkTGhOSONvSRNZhZEPGA+raCmIpVRwOOQQhB/1Ij+peyy5mIh9e/9OKNFfGXu3bEqaeeAgIgxyEm6xTvLnH7I/Bz3V83ogOitHEcNYtFXXnJeap7AhzPswf2YmyWCxmG5Pai3VIYzx6oZmLrOUZ2UhVBEHDBBfM6/LdpJ0+Bzcou+Wvpco9m+QAJQw6A+ncdTdzTcGARjYAGD4B6NgNSM5AGRWG7Dofxq6XsJpkCQFlZLwwfPjRatpVEXRKVEpIoWrnurxta6P7t0cwBqOzXG1dfdj5zu88dqMbJeep7DWjNy4f3qw7b14eC+DrOdr7pwoUXzO90iEpGpgNzz57N9Hr3PN2Cg/XJP9nuBCI+0EA1qHdLzGN9VUGDoP490euG6gANm3BpCWvdH4hq/4sWzYfdaoDdknq6vywDTR4pHXy7lEXrRlGafivPnTMDs06dzNRmBBQf1dVheGYHDXWSiOZwKK6Ohu35tLEOPXnMxtQpJ2H6jKldPmbGjGkYWNWf2TWP5QOEpCR/32kECDeABvaA+raC+rYC4UbodreWA9GIgHdTNO9AZhtG15oHGOv+AHDaadMxsKofXCmq+zd5JUiRJP8dpDF2i/YJo5q7pT9ZchFGjRjE1KZflrDb51ElBdhsFtx24xV4/E+/wMUXzEFhgfphNcezXKUDsLmN/UkuO9uJmTNPxh133IS77roF+Ue76yUbo0aPwMWLF3b7OEEguHrJ5cjOZucQbq4O4/cvJ2neBQ2DBg+BejZF2/WGm6PjfJMFGgZCNaDeraCejaD+6rhaCieS17/04k3Gun957zLMO3cOXBmi0jYfSYU7EEGAYTSEExuJShhV/dU80NB9YYjX58fNd/4fqvcd6u6hMWEUBITjCLMPquqL22+68gebvixTbNi4Fa++9SHWrd+ieqgRADhEESumnNp9SWAnLFq3At+0taheR3a2E2NGj8SYsSPRp0+fH/TS9/n9WPr8S1i1ao3q67Bi1OgRuHbJ5TG1/N237wB++9CjCAXZdYT8w/UuTRrMxEXEBxquA8JNSMmYrJgJYioCDMr6XiSKXYfDWPhgPQIhdu+pzWrFvffdjv4VhSlZ8heSKOrawin5NUsHCAEKnEZFZa6nn3ONumupejaUOQAAUN/QhJ/+7LdobFK/ocWLwSDgwvPPxKLzz+wyQXHHzmo89s//YOv2Paqv+fb4qehji/2mJ1Ng/OfL4FMx9c5oNOLWW398wqbfEatWrcHzz78Iv1/DxDEFxLP5H2PlqtX45xPPMltLhk3AK/fkxdYfgEYAqQEgdkC0AlDRpEYOAJFW0HALEEmepleqMNhAxGxAdAKCSudKDkbfF8EEGGIfo+0PyVj4YD3z0P/111+FKSeNYjKsJdHIMlDbFkaEh/51I9shKnYc1ToACXNP83JdeOCeG2CzWhJ1yR9QWJCLh391GxZfMKfb6oT+leV49Le3Y1BVX9XX3eGJbyzxoYBP1eYPAIWF+ejXr6+i6XkTJozFfb+4E3379lF1TTWo2fwBYOKEcTjttOnM1uP2xZEPQAyg4SZQ/3ZQzzeg3i3RUH2oLpqcFwlEw+Q4FrmSon355UD030O1oIF9oN7N0T+Bg+mz+QPRSEbwUPR98WyKNigKHYlWEkR8R1sOS+2SCaXoQCLZG5U7QjWg/t1RecF79Plx3sa00P1nzDgZ48eORHaK6v7NXolv/jqS6EZRCf2W9q3ohfvuuh533/8nSOHEZVpPnTQaP71uMRwO5SNKCSGo7NsbW7btVnXtnV43ZiH2AUk7vPE5Du0pLontunm5ObjjjhuxbNlHeP31/yKi0gGJBbWb/zHOP/8cHDp0GJs3s+lBEU9/ACJmg0Z8AKUA9Ufb8DJZTfxEKLC/3oA9tUZU1xmwt1ZEdb0IX4jAFyRw+wl8oeiNx2qSkWmlsJkorGaKElcEffIllBdIKM+LoKJAgllk8IpoEAgH1b03ggkwxD56+I0VPk10/4ULzoUrM0V1f3+EaRUEJzb0aBSVcDd1xNAq3HDNIjz6V3ah2s6w2Sz40TWLMHPahLieX1FeonoNO+OMAMQbOWhPcVHsjocgCDjjjFNRVVWJx5/4F+pq61WvoztYbf5AdP1LllyOBx78Herr2IyHXrrcg/EDzd918esWYzYQZJvvEg8HGw1YucOEVTvMWLnDhDafspNFWBLQ1m5v/Kb6h815DAJFVYmECf1DmNA/iNF9wjCxcAjiwZCFWJXMfXUSfrWUrRRps1px7bVXINdpgSkF+/zzen990atRlC5xqlmnTobb68VTz74GWaP2kh0l+sVKeZl6ByDek/wuFhGAo+Nz46Giohz33PMzzRMEx40bjauuuoTJ5n8Mu92OG368BL/+9e8RCLDJaXjg+RaMG5CPDJuCTZSYAWKKhq4TzN46A95eY8Nba62oadEmlBiRCTYfMGLzASOe/MgOm5ni1GEBzBkbwLi+QQgJzHsjMSYVRmSK259ohi/I9r5z2eUXoaxXfmrW+1Ogkdf760q2Q59GUboJVeefczpKiwvw0CNPwh+If9To8ShN9FNCee8SCAJR5aQc0/JtMW5wTCIAMUoAx2OzWnH11Zdi6NBBzBMEBYFg9uzTcPbZZynKUYiVkpIiXHXVJXjssSeYOJn1rRH84bU23HOxwnJDMeNoXb72hCSCt9Za8cZXFmyo7qL9tEb4ggRvrrHizTVWFGbJmDvGj4WTfShwJuBEabDH9PBla/34di9bx2z6jKkYP3Zkytb7N3u47q8nVpM2ff6VoKu7OnHcCPzp4bsweuTg7h+sgLGjh+Cvj9yjKNFPCVaLGQX56voDyDT203xQlrHPr6522mg0Ij+PTW+DCRPG4pe/vAuDB1cxsVdRUY7bbvspzj13jiab/zFGjhyGuXPZdQp85XMfDjcqy10hMW5M8RCSCF5eacUZD+biFy9m6rL5H09Ni4DH/2fHrAfzcNdSJ/Y1aLgpEjGaA6AQSin+/l/1jnV7ynuXYeHCeSlb7+8JcN1fT0QDQbaO1SK6u6xlpUX49X0/xdcbtmDpS+9gy7ZdMZ3YDKIBY4YPwrxzTsWIoWw2qPZU9C7BkRp1OvgOjxvDYuhcuNvrQURlH4LCwnwIDGOxOTku3Hzzj7Fx42b8738fY+vWHZBj6MFACEFFRW/MmjUTo0YNZzfxrhvOOmsW9h84hK/XqR9SJEUonl7mwd2LFHyWRLtqFykCPP+ZHU99bEeTOzlDzmEJeGutFe98bcFZYwK44Qw3CrMYbzQktmmEG/eGmWb9f6f7Z5o1myKpJWGJotXLdX+9SIYBUbo7AMcYNWIQRo0YhIbGZnz25Tp88+027D9Yg9raBkTabTSiUUSvkkL0Li3C8GEDMHnCaGRmanfaKi8vwYqv1G0eO72xDRiJN3GwPUXF6sL/nTFs2GAMGzYYLS2tWL16HXbt2oNDBw+jrr7hBw6BIAjIz8tFUVEhBlRVYvSoEXDlZGuypq4ghOCqKxfj17X1OHhQfWLe2yv9+NkCZ/d6HYNRuR2xbrcJD7ySiV01SfPT7ZKITPDmaiuWbbDg8lO8uGamB0ZWSxdimxz44Tq2g54WL16IspJ8OCzs8lcShUyjff554F8/kmFAVNLdRXJzsjFv7kzMmzsTABCWJAQD32t2VquF+ZTBrijvxSIRMLY67p0+FhUA8ScAKiEry4nTTpv+Xd29JEkIhb7/nMxmM9PEPjWYzWb8+MdX48EHfwePR5204vbL+GpbCJOHdLPBxxCaVkKTR8Dv38rAW2utYNCkMuEEQgR/W+bARxstuHdBK0aUh9UbJbHdvtbsYKf9T58xFSdNHKtr+FYNLR4JYa7764bVLCRFwqj+K+gGoyjC4bB99yeRmz8A9CkvVW1juye2CECsj++IEpUJgLEiiiJsNtt3f5Jl8z9GXl4urr3uSia2Vm5RmAxJ2HxX1+w2Yf7DuXhzTWpu/u3ZcUTE4j/l4NH/ZkD9/qP89EQpxd4jbML/x3T/7AwxoRUPrPAGZPi47q8booEkTcJoCn59E0txcT7MpthCjcfTGg6jPqS80mEHAwdAbQVAOsJqauCOQwpPr1Tdz4tS4LnPbLjqsWzUtabPT5VS4MmP7Lj6by40uBPjKDa6KbwBNpveVVdfgpwMM8wpqvu3eFNw3HWaQICkShhNn7uKRhgEAWWl6jdTpbp+cziEhpC6UKUoiswqANKJ5mY2E/6qaxQmTqn4kbv9BEsez8ZDr2ciIifJ3YIxq3easPD3Lny7P14HW/mGznKynckgIMOaXBEuJXDdX3+yHGJSNYpKjjhEklNeXoKde/arsnH/jk3oY7Mjy2RCtmhCrskMl9GMLJMJLpMROUYzXEYTVjap715XWFjAtAIgXXj5pdeY2FE+OS6+DOsGtwHX/iML2w6pizylArWtBlzxVxcevbwFk6ti7AdClZ9kJYbJ7i+9/BqG3/sTdgYTRIuX6/56kug+/0rgDoACKnqrzwM44PfhgD8xc9tLGEQs0o3qvfvw1ep1TGwpuolSCfEI9gebDLjm7y7sr0+9E2a8+EMENzyZjV8vasEZI2NoNiUrdwCcdnY33q83bEZNbYOqLqOJxhuU4Qty3V8vRIEk5YCouFY0evQ1xqCdjpUjqPj0i7UoLSlA34perNeWNAwbOkDvJcTEiGFD9F5C0vHuex8ys5XlULCZ0Niz3HceEXHl31xJW9uvJWEJuP35LPiCrThvgsJyPao8YpDtEGA1CUya3sgyxRv//QjXXrlQta1EEJYoWjxc99cLAiTtgKiYHICqcT/KMRjDtwcIvYbKcIIAv374cQBAUWEeLpw/G6dOP0nT7m560K+iF3JcWWhsYjtARAvMJjOGjxyq9zKSipbWNqxfv5GZvWKXgtO5HFu0p6ZFwHWP98zN/xiyDNz/khOZtuhsgW6hUtTRIsqkkvJCEVv3sykFfPeDz3HBeWcgKyuTiT2toEf7/PPAv344k0z3b4/iu82gydeMN5hC31BCb6PACbNRj9TU45G//At3P/BHeL2JCXUnCkIIxo1OjU119OjhMJu0aUKTqqxZvS6mroXd0a+4+w2HRpT/Bpq9Aq7+u0uz4T2pRIQCdzznxLrdCvsoxPA+j69i15shGAzh1TfZRZW0osUrQeK6v27YzAIcSab7t0dRBGDIlKuGUUqXdbTxH8/X67fg9vsexe9/dRvMZv17k7Ni3tyZWPbRF5pNL2SBIJDvGvNwvmflytVM7U0cpMDBkpQ1HPKHCK79Rzb21iZIHxQEoHc55Iq+IIWFoIVFgNMJarUB5qOvKxgE8fuAlhaQ2hrQmiMQ9u4BqqsBqr2OHJQIfvJUFp77SRP6FHQduqayD6T72xIAYOIgC575ILamXF3x3/c/xcLzzoDDYWNmkyXegAwv1/11I1l1//Z0u7pp034h1kuHnley+R9j5659+Mvj/8YtN1yqbnVJRFmvIkwcNwJfrlqv91I6ZeLE8ehVpj5hMZ2oqanFvn0HmNkzGwnGDujGAaBhQFbmANz/khObD2ic7S+KoMNGgI4ZBzpgAGCxAuhi+qsogtrtQG4eaL9KAEfrGQJ+kO3bQNauBtn4DSBppyu3+gTc9HQWXry5ERZTF0631AaYlCW9ThxkRkG2AbXNbEoCfP4APvx4Jc6dM4OJPZZIEV7vryfJrPu3p9vYRF340EIKxBz//nD5CuzYWR3XopKVxRfOhciskTlbTGYTzjn7TL2XkVTIMsUHH3zM1OassVY4rN38qiVluSKvrLLh7XXaDQ2iWdmQz1uAyG8ehnzlNaDDR3y3+ceFxQo6fCTkK5cg8uvfgZ63AMhSPuQqVnbXivjN691o7LJXcTmgQQAWTGU7N+TD5SuY2mMBBdf99SbLnry6f3u6zWbK6z3qVwCJOw1+wrjh8T416cjOyoRRNGD9N1v1XsoJXHrphRgwoFLvZehGa5sb+6r3Y8uWbVi9eh2WL/8Mr772JrZt3cH0Or+8JAsF2V3/bGjwEEC7TjbbcVjETU9nQdKiyU+mE/K580EXXwb07QcYNYgwmEygFX1ATz4FcDpBDuwDgjHW8Stg60EjeudF0L+4802eGGyAoMyxqSgS8e+Pvcz6AjS3tCHH5USf8l5Jk/zc7JEQDPPtXy9sZgFOW2LKeJ//z9uqnq/gOCuM6CJY2CXrN26L63nJzPxzTsfa9Zvxzbfb9V7Kd0ybNgWTJk3QexmaI0kSamvrceRIDerrG1Bf34hDh47g8KHD8PnZTnrriOF9TBha0U1ei+wHIl13fQxLwG3PZiEQZrxhCATylGmgc89Rd9KPBVEEnToNkTHjILz1OsiXn0VbzjHkgVcyMKZfCAXOjndtGm4CEV2KbOVkGjBvsg0vLFc3FKo9f3zsefzl8X8jL8eF4sJclPUqQu+yYhQW5KG4MBcF+bkJG3/tD/F6fz1JBd2/PQpWSuMeK1ff2BTvU5MWQSC49/brcMe9j6juDsiCESOG4sILz9N7GUwJhcKort6HffsO4EhNLepq6lBTW8uslW+8LJreffiYhuq6fcwzn9ixm3HSH812gV5xFWiffkztKsZmg3zBRSBjxkF4+gmghV3JrCcg4OE3M/C7SzqxKbXFVA54xawMvPiJFxGG+2REiqCmth41tfX4+rgIod1uQ2lxAXqVFKC0pBDFRfkoLSlAaXEB00RpKULRzOv9dSNVdP/2KLkLxR0/jLDsv5lEOBw2PPTAzbj93kexc/c+3dYxfsIYXHnF4qSbvBcvW7Zsx8effI5N325GKMRgXCxD8pwGnD6mm1M1lQCpa6f3YJMB//jQwXBlAB08BPKlVwB2tnbjWku/SkTuvAfCM0+CbN3CzO576y2YP9GE8ZUdSSs0+r4bCxTZKnIZMHWYBR9viKHroAq8Xh+279yL7Tv3/uDvCSHIy81GSVE+ynuXYMTQKgwbMgA2W+x5IRRAk1tiHXzhxECq6P7t6T4HoGz0L9RcYPEFc9Q8PWkxmYw4ecpY1NQ1Yt/+wwm9tiiKmDt3Ni5YeF7CxyNrwbffbsGTTz2Ld95ZhiNHahBheTRjxOWnOxL88RMAACAASURBVDBhYDc3ZqkBkLqOUty11IldNew0eTrhJMhXXP19CV8yYDKDjh0H0tYGsp+dg7xpvxHnT/R1PII3EgAx5UPpBCarScC7q7WXjbrD6/OjprYB23bsxSefr8ErbyzDho3bYLdZUFpSqFg6aPFKCHDdXzesCdT925OAHABOZ9htVtx1y9UYOWwgnnj6ZXh92t9Q+vatwKWXLkJJGoz79fsDePa5/2D1V2v1XkqXGEWCBdO6P13TcNeb/1c7TfhkM7usf3r6bMhzz2FmjylEiEoCNhuED95nYnJPrYjXV1tx/sQOfmc0BISbAGOOIltTh1mQ5zSgvjW5opSRiIyNm3dg4+YdKC0uwIULzsTMaV3n9/iDMrNRx5zYEQUCVwrp/u3hEQAGVPYtw5zZp8Bht2LHrn0Ih9mHr/v164uLL1qA+fPPRmZmBnP7iaa6ej9+//s/Y+eOXXovpVtmj7Ph7IndNHuhMhA6gK4SZu/5jxOHm9icEui0UyDPO5+JLc0gBKgaCAQCIHv3MDG5u8aICyf70XHCPQUxKksGFAgQCFOs3sa+coEVbW4vVqxaj12792HksCpYLCdGeSSZosHNdX/dIEBuphGiTqF/HgFIEmxWCxbMm4XJUydj9deb8c03m7B1yza0tLSBxjEVLivLiX79+mDAgEoMHjIQBfl5GqxaH/bsqcYjj/wFfn9iNFi1XHqaAm090tpll7z1e41Ys4tNwhcdPxHy/AuY2EoE9Nz5oO5WkDXqOzIebDTgvfUWnDW6gyhADG2BAWDhNDueeNcdw3hnfVi1ZiOW/OSXuPeO6zB40PdJnhRAU5sUz9BJDiOybAaYxNTS/dvDHQCG+IIyZGLCmNEjMWb0SABAJBJBW5sHbW1toN2UUxpFEY6MDGQ47BA6FDpTn/37D+DRRx9Lmc1/fJUZg8oU9P4PN3b573/7gE2CHu1dDnnRYqRUqrFAIF98GQy1tQCDnIAnPrRj9kj/ibkANAzIAUBQJrNkOwQsnunAE+92XbaZDLS0uXH3/X/Eg/f+BEMGRft9tHokhHiff92wGgU4LKmdgM0dAEZIMkVzB603DQYDsrOdyM5W3Ek5bXF7PPjjH/4Gny81hkUZBIJb5iv43Gg4WorWCdX1IlZuV5+kR602yFdeA4gp+LMVRchXXAPhtw8CAXW5MrtrRazbY8LYfidWBNBwPYhZ+Wjya8/KwHur/TjYkPxhdH8giJ/f/yf85pc3oXd5OTy83l83RIEg25GCv8PjSM9jZoLhoThlPP/si2hp7XyjTDYWTrNhcLmCjP1wI7rS/t9cbWXy3aALFwE5ueoN6QTNy4O8gI108fbaTkoyQw2KWwMDgMVE8MBlWUiVYhp/IIjfPPwEDjewG2rEiRECZGeIHVejpBhp8BL0p8Ub4aG4bli1ag3WrkveQUrHU1lixE3nKYnaUNBwQ6f/KstdbFYxQCsHgI4Zq9qO3tBxE0D7V6m288E35k46KcqKmjG1Z1yVGbctSJ0IXW19I5YufVnvZfRYsmwGmFNY928PdwBU4g/J8AaSq5Qo2ZBlGW+88Y7ey1CM0y7gzz9ywWZW8CMPNwBy55nkq3aYUdOi8mcmipAvSjHdvzMIAV14IdQenzwBAZ9s7kRWCdd2O4vheBbPdOAyJcmeScKKFV9h+/adei+jx5EOun97uAOggs50f84PWbt2PerrOz8lJxOZNgGP35iDXvlKumTLoKGaLh+y7Bv1df903AQgL1+1nWSBFhaBjhuv2s7/OntvqQwaiL05120LnLh2TuqU2L7zzgd6L6FHkS66f3u4AxAvFGh2S5B5Hk63LPtgud5LUESe04BnbsvFkO4G/hyFho4ActcnzVXbVZb+EQHyabPU2UhC5NPPVB0FWL3b1HluhdQYLc2MkRvOzsTvl7iQYU3+W+OWLdtw4MAhvZfRM0gj3b89afZyEkerP4KgxHX/7mhubsW+av2HJnXHlKEWvHZfPgb0UtimV/YBodouH3KgwYBDzerChXTkyLQ6/X9Hfj7osBGqTDS5Beys6fxERgP7ARq7PDdrrBWv/iIfM0dZk1p1oZTiyy9W6r2MHoHTmj66f3u4AxAHgbAMt5/r/krYumVbXI2QEkVxjojfXJmNv/3EBVemwp8DjYD696K7Mdmrdqpv/EMnTFJtI1mhEyaqtrF6ZxfllXIINHggLrslOQb88XoXlt6Zh9NGW5O22cuWrTv0XkLaYzUKyLCmj+7fnvQSNBJARKZo4iM3FbNly3a9l3AChAAj+5lw9kl2zJ0Y+82dBqqjDWe6Ye1ulQ6AMwt00CB1NpIYOngokJkJtMVfGrputxEXT+3iAeFGQLABpviiKMP7mPDodS60+WR88k0Am/aGsXlfCLuPSHD79Nf/Dh8+gtY2N5xp0B48GTGkoe7fnvR9ZRpAKdDk4bp/LNQ11Ot6fUEAil0iKopE9C8RMaTChOF9TCjIjs+jp8GDgKRs1v3OI+qm/tGhwwCSxkE6QQAdMgxkxRdxm9hd2/0tjAYPghgsgCEz7utk2gTMnWjD3HZBiyZ3BNU1EeytCWNfXQT7aiXsrQljf10E4QTJg5RS7N65G6NGq5NTOB1AAJcj/XT/9nAHIAba/BEE+cjNmGhrSUzjH6NIUJBtQN8iEf1KjEf/V0SfIhFWE5tfMA0d7lb3P4YsA/vrVer/A9TXyyc7dECVKgfgQKOIiExgELr6XVJQ324QWz/AwO6k7MowwJVhwKjKEyM9dS0R7D4s4WCDhAP1Eew6FMbuIxION7I/QNTVd92GmhMfWVYDzMbklH5YwR0AhQRCXPePh7Y2th3Lsh0C+hQbUVEooqJQRN+i6P8W52jpqdPoyT+GBjOHmw2dNKpRCCE9wgHAgIGqnh6WgEONAsryuvttyqC+XSC2SsCgfb1/fpYB+VkGAD/MUQiEKPbWhPHyZz68+ImXybXc7tTprpkqWIwCHGmq+7eHOwAKkClFk5dv/vEQDLEZt1peIOIvN7hQUagurB4zNAIa2AdIzTE9bY+C0HSXl3VmAfbUaUwTLzQjA8h0Am2xl+wdo7peVOAAAIAM6t8JYi4DjDlxX08NFhPBwDIT7rnIiM82BnCkSf19JRiIrekRp2sMAoErjXX/9qSxusGOJncEssxD/3qycJo98Zu/7Af1bYt58weAujZ1Py1SVKTq+akELVT3WuvaYjipURk0UA0aPAw9h3cQQuDKYHPClJO4yibVID1A929PD3mZ8dPqjyAQ5ll/emNV0paXGRQI1YF6tyvK9u8IX1DdT0vOL1D1/JSisFDV033BOL4boSOgvu2ArG4yISe9cNrSX/dvT8+Ic8RJMCzD4+Oh/x5FpA00cFD1xuAJqLyJ2Ozqnp9K2NW9Vm88DgAAyN5ohMdYAGIqAEj6a76czrGkWZ9/JXAHoBMilKLRE+mm1QsnbZD90c5xETZJi3GdSttjUT9DIFWgZgvUvFs+Nc4WlaPRgHA9iKkYMOWpWAknVelJun97uATQCVz372EIVhBTPiCw2XgDIZUOgLmLDnfphkpnx6/2vYYAiFmAMUulHU4qQgiQ04N0//b0PJdHAW5fBEGu+/c8xGwQMSuq/4cOR0+HcWIS1TmPJBzuOdGnkLosdrNRxTslZoGYewGC+rbNnNQk02qAqQfp/u3hDsBxBCWKtgDX/XsuBDAVgIhOUH81IMdXq22zqNy+g/ElH6YkAXWv1WaO470mxujGb8xWdW1OamMxpW+ffyX0wKBH50Qo0OSW9KwO4iQLggXEPgAwxqcJ2+PZlNpBfT5Vz08liF/da3XE6mwZHCD2gXzz7+EYBAKXvWefgXv2qz+OFreECNf9Od9BQCxlgGCJeaqczaRSAqiv6zkSQL3yDosdYbfEINUY80AsvQBVaYecVIcQICejZ+r+7enhL/973P4I/Fz353SEKR/EUh7TU3Iy1MlIpLZG1fNTihp1r9XlUPi7NRVEHTq++fd4Mq2GpB3xnEi4AwAgJFG08j7/miCKaRJkMuYc3TyU0VtRa9ouqG8AGLVRTmoCAZCmBlUmKvIVjOc2F4GYS1Vdh5Me9HTdvz093gGQZaDRI6HnxFsTSyajOeVJkZdhzANMyrrWleVFYFBzwKAyyK5dKgykBmTXDkCF7CYagF453ThbxpxojX8SEQhRHG5U4LgowGRKcIvsFEYQCFx2vvkfo8c7AM1eCZFIMuwu6QkrB2DN9uQYeELMJdGa8W4wixSFWSplgO1bVT0/FSDbt6l6flmuBLGr+7noALH0VnUNVrT5ZGzYHcIrn/tw9aMNaPawkRydWU4mdtIdAiDHYYAg8ND/MdIkPhsfbn8E/hDX/bXE5cpGdfV+1XbeXe1DXYuEkf3M6F1gQEWhEeUFIrIcifdhiaUc1LcFkLt2SioKJBxqVnHa2LQROHd+/M9PAci3G1U9v09BF04WMYJY+iKRmj+lFEeaIqiuiWD3kTD2HJGwt0bCniMSGtu0kRmdGWyc7HQnw2aA2djjz7w/oMc6AGGu+yeE/gMq8fXX3zCxtXZHCGt3/HDTzXIIKC8Qo38Ko396F4jonS9qN9SDGEDMvUH9O7t82IiKML7YFn9HP1JTA1K9F7S8Im4byQzZs1t1BcCoPp3nSRBLGUC0ucWFJIrqWgl7j27wuw9LqK4JY29N4g8V+QW5Cb1eKmI2ct2/I3qkAyBToMHNdf9EMGjgAE3tt3hkbPCEsGH3Dx0DQQCKsg3oXRh1Do5FDCpLReQ5GdwIxMxoTkC4vtOHjK8M4i/vOVRdhqxakb4OwFcrVduY2L+TKIzoUiTVKCUkUXy6MYDPNgawqTqM3YfDiCRB8NBqtaCiolznVSQ3AiHIcRh47UcH9EgHoMXD6/0TRXFxIVw52WhqbE7odWUZONQYwaHGCFZs/uEpsSDbgFGVZsyZYMWkwWaIcWbrEUsxqNQM0I6TuYaWhWEzU1WDgchXq4Cz5gKONAvzej0ga75SZSInQ0a/wo7eewJiZpP01+aT8c/3PHjlMy9avUmw4x/HgAGVMBj4ybYrXBlc9++MHieIeAIR+LjunzAIIZg+/WS9l/EDapsjeG+1D9f/qREzf1aL/3zihRRXIqgYHSPb2b8agJEVKpMXQ0EInyxXZyMJIf/7AAiqK3Oc2D8I0tF93ZgHCOqGKVFK8e+PvZh1Zy2efM+dlJs/AIwcOUzvJSQ1TpsBFq77d0qPemfCEkWrl+v+iWba1JNgSdLxtvWtETzwfAvOua8em/bGsVmb8rscJHPKEPW1/OTj5YCXzZjipKCtDcKnH6s2M31oR+8tATErK9XsjFavjJ8+1oQHl7Yk7cYPAFnOTEyYMFbvZSQtZqMAB9f9u6THOAAyBZo8Epf9dcBqs2H69Cl6L6NL9taEcfFDDXj2w1g3WgHEmN/pv54xMqB6MiACfgivv6rORhIhvPaK6tO/0yZj2uAObIiZAIm/Lr6+NYJLHmrAR+uTfxjTzNOmp0+jLcZw3V8ZPcYBaPFKCPN6f92YM2c2Cgs63yiTgbBE8dCLrXjkldbYnmjMBUjHJw2nTcbkKvU9DMiqFSA7tqu2ozdk106Qteq0fwCY3YljRYw5cdusa4lu/rsOh9UsLSG4crJxyrTJei8jaeG6vzJ6hAPgDcrwBZM3lNcTMJmMuOzyi1LiR/nk+x78/uU25U8ghqgT0AlnjfGrXxSlIC88CwQY2NIJ4vdBePZpJm0d547r4H0gRkCMrylOSKK48bEm7K9j051PSwghuOLyxUkrq+lNppXr/kpJ+3cpLFG0eJL/R90TqKzsiwULz9N7GYp4apkbb61UPqY2mgzY8c9p2uAg8p3qHVBSXw/huX+ptqMLlII8+wzQqK7vPwAMKg1jaNmJp3Ri7vwz6I7f/qcV3+xJjm6T3TFjxlQMHNhf72UkJWajgAwb1/2VktYOAKXRPv888J88nDpzGubMmaX3MhTxi2dbsOeIwnAwMUazzzvAJFJccrKXyZrIhq8hfPA+E1uJRHj/XZCNG5jYWnJaB+8lETt9/7tj3Y4gXvqUzeejNSNHDMOCBfP0XkZSwnX/2ElrB6DFK8VZ3sXRknPOOQvnzZsLIcmHcQfDFPc/3wqqMGQdzT7v+DUtnORDtp2NDEXeeh1kxRdMbCUC8tVKkHfeYmKrX6GEUwafmKDX1XvfFRH52GfMYHEaM3ToIFx73RW87r8TcrjuHzPJfQdWgS8ow8t1/6Rl9pmn4dZbb0CWM1PvpXTJmu1BvL9Goe7exSnUaqK4cIpySaFLKIXw7+dBvl7Lxp6GkHVrorIFox32utM9OMFvVHH6/2h9ICWS/qZOnYQf/ehqnvXfCZm8z39cpOU7JkUoWrxc9092BgyoxK9/cx8uuHB+UjsCj7/rUR4FMOWj4+40wOKpXrgyGDmlsgzh6SdAPvuEjT0NIJ8uh/DMPwHK5jUPKQvj1GEdnP67yL/ojmeWJXd/BavVgiXXXIZLL70QRiMf+9sRZpHwPv9xknbuJAXQ6JbUjBjnJBCz2YxTZ07DyVNOwjcbN2Hr1h04cOAgjtTUwe9jdGJWyY6DYXy1LYQJAxV0lxNMgMEBSO4T/inDSnHTWW7c829G41tlCuHFF0AbGyGffS5OPBrrRCQC8sarEJb/j5lJAwHumd/WwUsUuqzA6IqNe0JJm/hnMptw8tRJmDVrJrL4uN9OMRACV4bIdf84STsHgNf7pyYmswljx47C2LGjvvs7t9uNmpo61NTUora2HrW10f9fV9cASUpshOelT73KHAAARMwB7cABAIBzxvrx6korNlR33j0wVsj/lkHYuQPyVdcArvjr4JmspaUZ5MknQPbsYmr3gsk+DO7VQajemBP3xL+ly5Mv8S+/IA/jx43G9FNORqYzzeY/aIArwwAD1/3jJq0cAF9QhjfAdf90ISMjAxkZGais7PuDv5dlGY2NTaitrceRmlrU1dShprYWNbV1aG5qURyuj4XlGwJo9sjIdig4ZYtZiM6g76BRDQHunt+GC36fC5Z+Ktm3F4bfPgh69jzIEycDib4pyhTky88gvPU6wDhyk5cp48ezO3aoSJyn//rWCJat1a+ngiiKyM/PRWFhAQoK8lFcXIh+ffsgvyC+XIaeCNf91ZM2DoAkUzRz3b9HIAgC8vJykZeXiyFDBv7g30LBEPbs3Ye///0puN0dbxrxEJYo3l7pwyWnKhjvSwyAaAekjvXlgSUSrjnNg78tUzcq+AS8XpAXnoNh1ZeInLsA6NOHrf1OIHt2gbz6Mkj1Xua2BQH41YWtyLB04C0JJsBgi8vuS5/6EJa0jRQSQpDtykJhQT4KCwqQX5iPosICFBTkISfHlfRVMMkM1/3ZkBYOAAXQ1CalRCkPR1tMZhOqqipx660/xkMP/RE+hqfRpcu9uGiGAwYF921icIJ24gAAwLWne7B2twlrdrGTAr5jzx4Yfv9b0KqBkGedCVRq0zSG7NwO8t47INu3aWIfAK6Z6cFJVZ3MDRCz47IZlihe+oRd8p/BYECvslIUFxagoLAAhYX5KMjPQ0FBPkxmDT7fHg7X/dmRFg5Ai1dCiOv+nHaUlpZg+vQp+O9/lzGzebBewn9X+XD2SQpOnYauT/cGAjx0cQvmP5yLJo82J0GybSsM27YCBYWQx08EHTtOfY5AYwPI2tUQVq0E6mrZLLQTxvYL4bpZnW/URIxPI1+21o+GNjZSocFgwJ133oSKinIm9jjdw3V/dqS8A+Dnuj+nE6ZMnYR33/0Qsszu+/Hk+27MnWgF6aTU7zsMtqjg30VYKt8p47cXteK6J7IQkTW8odXWRLX5t14H8vJBqwaC9ukLFBSBFhYC5k6SGwMBkNpaoPYIyJ7dINu3AnV12q2zHYVZMv5vcQsMXb0tgj0u2y8wTP7r168P3/wTSIaV6/4sSWkHQJIpmn1c9+d0TG6OC+PHjcHKVauZ2dx9WMLq7SGMr+quIkAAiAWgXSeanVQVxC8vaMM9/3YmRsKqrwOprwP5/NPv/85mAyxW4NhwmUAgOnRIpzLMLLuMf1zbhLzMLhw3Yo4r+3/zPralf+PHj2Zmi9M1ZpEgk+v+TEldV4oCzW4JDA93nDTkzLNOY94e9D8fKzxBCsqmtZ0z1o8bOslyTwg+H9DUCBw+FP3T1Kjb5m8xUvz5ymb0LejGsVf43h7Pf1exy/wXRfEHZasc7TAQRHV/HvlnSso6AK3+CIIaZ/FyUp+iokKMGjmCqc3Pvg0gpOS7R5R3brtmphcXT02+uvREYhIpHrmsBSMrFLTmFeILXq7c0klCYRwMHz4ENlt8VQic2Mh2iFz314CUdAACYRluf0TvZXBShDPOmMnUXiBEFYWRiRBb69Y7znXjprN0jAToiM1M8ecrWzB1kMINOo7wf4tHZtr3/5RTpjKzxemcTKsBFlNKblVJT8q9qxGZosnDdX+OcsoreqN3715MbW7YpUBHJrHrlVfO8OLOeR21vE1fcjJkPPPjJkzqrNyvQ2J/gw41RJjlWZRX9MbAgdqUV3K+x8R1f01JqdsMpUCTh+v+nNg577yzmdo73KhdBOqiKT48eGErTGL6S1zleRKeu6ERg0pjPZnH/t4cbmJ3cFhw/jnMbHE6RhAAl0MEL/jXjpRyANr8EQTD6X9T5LCnpKSIqb2aZm0lqLlj/Fh6YyN65aav1DVzaAD/vqkRZXnxvMbYTwESo5yh4cMGY8CASia2OJ3jsosQu6wD5aglZRyAQIjr/pz4WfrCy0ztKZpFpHIM7sASCS/f0ohZI04cgZvKmESK289twx+uaEGGNc5NmcZ+LzCKbDaTrOz4OhBylJPBdf+EkBLvcESmaOJ9/jlx8tFHn+LrdRuY2hQV5KBRqj7hzGGR8btLWnDP/Lb4N8skYnCvMF64sQmLp6osM5Rjz+Z3ZbDRkvfs2ZvwaZQ9CZNI4OS6f0JICQegyRPhuj8nLqqr9+Oll15nbjfTpuCnw8ABAKINBRdO8uG/d9Zj7hh/StZCZ1ijp/4XbmpEVQmD9yUOB6BvMZu+ZwcOHMKLL73GxBbnh3DdP7EkvQPQ6osgGOa7Pyd2/D4f/v73pzQ5rSnaTCLsas6BaLb8ry9qxT+va2KziSYAg0Bxzlg/3r6zAYun+rpu7RsLNAzQ2D5Xp11ASQ6bk+Xyjz7D2nXrmdjifA/X/RNLUjsAwbAMD9f9OXHy9DMvoL6+QRPbA0q7qfGnMiBr001vfGUIr9zaiCeua8Kw3snpCIiGaCLjG7c34MFFrcjN0OB3HIm9Z8L0kVZml//X0y+gvk6b71dPhOv+iSdp3+0IpWj0ROIo9uFworr/Osa6/zGsJqH7WQCyF/GUqsXCxP4hvHBjI/6+pBlTBgbZna5VkGmTsWiKD+/cXY9fX9SKinztHPiuxi13xmmj2TkAPr9fswhTT4Pr/vqQtMOAmtwRyDLf/jmxo5Xuf4zJQ8ywmLrZbePYnOJlclUQk6uCqG8T8P4GC95eY8WWg7F1IVSDgQDjKkM4a4wfpw8PwGJK0O820hbzU0ZVmjCkwoRNe9kMBKretx8vvvQaLlq0gIm9noggADlc99eFpHQA2rjuz4mTRJzKLj2t+zG0VGru4G8NgGCKzggghu87BdIIgAgAOZo3EGfyYF6mjMVTfVg81Yc9tSJW7jBh9U4TVu8yw+1ne3ctdkUwsX8I4yuDmNA/BJdDze+VRIf7CGK0xS8lABGOvi9y9P2QgyeW/skBIOKLjl6OgavPcOCnjzWpWO8PWf7RZ6ga0B+jR7OdOdFTcNlFGJIhfNUDSToHIChRXu/PiZtnnl6qme4PABMHmTGyXzfh/0ggumEZ7IDgABEdgGCLbv5KoJHo82UvqNQa1bpj7CnQp0BCnwIJF03xIUKBbQeN2HFERHWdiH11BuyuE3G40YCg1PWN12qi6J0noSI/gvL8qM3BpeE4m/cchRgB0QliyAQMVkAwQ9Hxj4aBiA9U9gERLxDxgkpNIDE6ADNGWjCuyozV29glaT7z9FKU9SpFXn4uM5s9AYeF6/56klQOQIQCTW6J6/6cuNBS9wcAi4ng7kXO7h8oGEEyhiPuFBtiiJ5qDTYQY15084+0gYbq4wp7G0i0/n5wrxMjCxGZwBsgaAsQ+IIEBIDNQpFhpnBYZHYzCYgAiNkgpjxA6D6C0rGNo44D2n0GMVYCAAAhBL+4JAvn3lfHrLOoz+/HXx97AnfffSuMxsTJL6mMSSTIsnHdX0+SyvVqcUuIcN2fEwda6/4A8LMFTlQUKri5EwOY/rSIAIhZILZKEFsVIDpjGjXcFQaBItMmo9QVQf8iCZVFEkqyI8i0Mdr8iRHEVAxiHwpiKY9/8+/UfnxnmN75Iq6ZncF0KQcOHMJLL2v7HUwXuO6fHCSNA+D2R+Dnuj8nDhKh+5822oqF0xhvXvFgsINY+4E4hoHYBwOmwrimDmqOYAUxl4E4hgDmorg3ai258gwHs+ZAx1j+0WeaRqHShWyu+ycFSeEAhCSKVq77c+Lkuede1FT3L84R8YtLsjSzHzeCBcRcEj1dm0sB0k1ugtaI2SCWChDbYBD7IMCUhyS5xXSIUSS47+Is5p0Vtc5DSXUcVgOsXPdPCnT/FGQZaPRIWpdMc9KUjz/5HKu/WquZfZNI8IfrXHDadf+pdA4xAKYCEMdgEEtFzFnxqjHYQexVINY+gNEFGCyJvb4KRvc3Y95ktpEd3h+gc0wiQRav908adL+rNXklRCJ89+fETk1NLV56Udue7LcuyMTg8lRJ6iKA0QViO7oZC1pHBIRoBMI6gL22n0BumZ/JbFDQMaqr9+PVV99iajPVEQjX/ZMNXR0Ajz+CQIjr/pz4eOGFVxAKadcK99RRVlw03aGZfe0g0XC8bVA0R0CLO65gB3EctZ+K04na4bQLuG1BJnO7//vfx9ixYxdzu6lKtoPr/smGbg5AjlpZKAAAIABJREFUSKJo4bo/J0727KnG5s1bNbNfmifigcuTUPePBXL0hG4bEG20wwpTAYh9gP45BwyZM8GKCQPZvh5Zpnjh36/wjqaI9vnnun/yocsnIlOu+3PU8cknX2hmWzQQ/N/V2ciwpskNy2AHsQ0EjDnq7BASzew3lyLd4riEENy7OAtmI9vXdWD/QWxY/w1Tm6kG7/OfvOhyh2v2cN2fEz8+nw9r1qzTzP7PFmZieB+FXftSBSKAWHqDmIrjNGAAsfQ9mtmfnmjRGwAA/vfRp8xtpgpc909uEu4AeAIR+Lnuz1HB1q07NNP+U1f3VwIBzEUglt4xPk0AsfWNNiBKc648w4E+RWyTPnfs2IWmxo5mQ6Q/XPdPbhLanSMsUbR6ue7PUcfevfs0sVuaJ+KBy7TT/SMyxd4aCZurw6hvkdHml+H1yzCbCLIcAnrni+hfYkR5oQFEy8Q6Yy4ICGigWsGDCYilD2BgfzI+Rlii2LwvjN2Hw6hpltHQGgE9GiDMcggozjGgolDE8L4mmERtNxOjSHDf4ixc9rv679agFkoptu/ciYk549gYTBEcFq77JzsJcwBkCjR5eJ9/jnqqNXAATCLBI0tcyLCxv2HtrQnj8Xc8+N/XfviC3f8CcjINmDTYjEmDzThpkAWuTA1uosYcEBoGDR7q8mHEUqbJyd/tk7FsrR/vrPbjm90hRT35LSaCMf1NWHCyA6cMt7CbU3AcY/qbMG+yHa9+7mVmc9/e/Zg4oec4AEaRwGnnun+ykzAHoMUrIcx1fw4DmprYh1O1qvf/dGMANz7WhJCk/Lvf2BbBWyt9eGulD4IATBliwcUzHJg4yMQ2MmAqjI7UDTd28u/5gJHtdLuaJglPL/Pglc99CIRiux8EQhRfbArii01BlOWLuHtRFiYP0aYS4Zb5mfj4Gz+a2tjIlXurDzCxkwoQAuRmiFz2TwES4gB4gjJ8Qa77c9gQibCVkbTS/WubI7j3meaYNv/jkeWoE/HpxgAqikRcNN2Bs0+ywWZmc3sl5jLQiA+Q/T/8B8F2NNtfPZRSfLUthFc/9+HDr/0Iq3g/jrG/TsK1f2zA/Cl23HGBExYT2+3GaRdw63wn7nqKjbPpcbuZ2EkFsh0iDALf/lMBzR2AsETR6uEtMTnsiMhsncl7LmYf4v5iUxB3PtmMJje7te49IuHBpS3442ttmDfFhsUzHShyqQyzEgHEUg7q24bv63IJiLU31KZut/lkvPypFy995sPBevb3AEqBlz/z4utdQTx6bQ7zwT4sYe20JisOiwE2rvunDJr/Yhq57s9hjNVqQTNDFWDnIQk5mWz0yogM/OWNNvzzfTcY+ynf4fbL+NcHHiz9yIvZ46y4eX4m8pwq1m+wRcP9odrof5sKASH+eQJuv4zH3nLjlc+8inIe1LL7sISFD9bjnoudOPskNnMQqmsl/N9LrUxsAYDUAxwArvunHpq7ahLX/TmMKS4qYmrv1n80YcdB9WWFtc0RXP5wAx5/V7vNvz1ShOKtlT7MuacOr3zuU2WLmIsBYgSICGIqiNvO+2v8mPPzOjz7oSchm/8x/CEZdz3VjLufalZdZlzfGsE1jzSgxcPuQ3Q62bcaTiYEArgcXPdPNXishpNyFBUXMrXX7JFx6f81YPO+UNw2vtoWxIIH6rBuR5DhypTh9sm471/NuPdfLSocbgHElA9iKoxOF4yRiAw88mobbvlHE+pb9TvtvrHCh/MfqMeOQ/E5dB4/xXV/bMKhRravobiErdOabGQ5RBh5vX/KwR0ATspRWdmXuc02n4wljzbGHAmIyMAfXmvDVY80oIFRxni8vPq5Fzf8tSn+JDtTflyd/gIhimv/0Ign30uORLe9RyQs+lUD3lgRW1QkJFHc8NdGbN0fvyPYGcXF6esA2C0C1/1TFP6pcVKOgQMHIDubfeJerJGAYyH/JxIU8lfCZxsDuOup5jjXIyDWW4IUobj5701YsSUQzwU1wx+ScfdTzbjzSWWSgCwDd/yzGau3aRPBGTKoShO7emMUCbLsyZt8yeka7gBwUg5BIBg7drQmtpVGAr7YFMT8++t1Cfl3x7ur/XgiQafxB5e24tONybX5t+etlT4sfLAeuw53/Xn+9j+tWLbW3+Vj4qWkpAi9ytiUVCYTXPdPfbgDwElJpk+fCqORfeMeIBoJuOLhhg6dgGMh/+v+1IAmd/Jmdj/2lhub9rIPZbfn/TV+vPwZu255WnGsSqAzSeCf73qwdLlHs+tPSNMOgFl2rvunOtwB4KQkeXm5OPW0UzSz35ETkIwh/86QIhT3PtuiaSniA0tbtDGuAYEQxd1PNeOu46oE3lzhwx9eZ1fudzwZGRk4ZdokzezrhcMswGbm20eqw8UbTspy1pmnY8WXX6GlRZsbeLNHxuUPN+BnC6L5Bg+/3JbUp/7j2X4gjLdX+ZjVxrfnqfc8TMvkEsWbK3zYVB3CLfOd2HlQwp/fbGM29Kcjzj33TFht7N9/PTGKBE4H3zrSAe7CcVIWs9mM66+/EqKo3c2oxROtL7/rqeaU2vyP8djb7KMV3oCM5z/SLmSuNbsPS7j+T4149LVWTfuUlJeXYcqUkzSzrwdc908vuAPASWn69u2Dyy5fpO343BTmYL2ELzaxTdL78OuA5k1+8nJdsJi1GfSTCJyZGfjR9VdD0GpkoU5w3T+94HEcTsozccI41NbU4+2339N7KYqwWa24+OKFGFBViV279+C9dz5E9b79ml3vlc+9mDrMwszee6vVdR3sil6lRTjnrOk48/SpaGxqxUOPPomNm7Zrdj0tMBqN+NGPr4ErJ1vvpTDFznX/tIM7AJy04OyzZ6O1pRWffb5C76V0SXl5Ga699grk5UXH7I4ZPRKjRo7AF1+uxLvvfID6+gbm1/xycxCBEGUyMY9Sio171LdNPp5hg/vjwgVnYtTwgd/9XW5OFn57/0146dX38ex/3oIcSf6cA0EguPLKxejbt0LvpTDFKBJkcd0/7eCfKCctIIRg8SUXoM3txoYN3+q9nA6ZMeNkLFhw7gk5C4JAMHXKSZg8aQLWr9+IL1eswqZvtzKbIBcIUazaGsC04VbVtg7WR9DmY7MRE0IwasQgXHT+mRg8qF+HjzEIAhbOPwOlFf3wj78/jfqGRibX1oqFC+dj7NhRei+DKYTr/mkLdwA4aYMgCFiy5Ao8/PCfsXv3Hr2X8x02qxWXXX4RRo8e0eXjBEHA6NEjMHr0CLg9Hqz56musWfs1duzYpXoNm/dJmDZctRnsOqx+rK/ZbMKZs07G7FOnoFdp93MdGt0RVFSU495f3IHnnnsRq79aq3oNWjB79qmYOfNkvZfBnGyu+6ctXNDhpBUmkxE//ekSFDMeGBQv5eVluPe+27vd/I8nw+HA9BlTcfvtN2L8OPVdD6tr2ITtq2vVOwDjxwzFksvPV7T5t/kiCIajEQeb1Yol11yGK69YDIuFXU4DC06aNB7z5s3VexnMsVu47p/O8E+Wk3bY7XbcdOOPkJ2dpes6Zsw4GXfeefN3en+8DBs+RPVaqmvUb9wAGwcgV2FyXFCicPtPlEFOmjQe9953O8rLy1SvhQXDhg3GZZemXyUK7/Of/nAHgJOWuHKycdNNP4Ldbk/4ta1WC5YsuRyLFp3PpEdBYWGBahv76iKgDDresIgklJZ0f/KPUIomt4TOVlyQn4e7774Vc+fOhiDot/GWV/TGtddeAYMh9hHKyQzX/XsG3AHgpC0lJUX46U+vhclsStg1e/fuhXvvuR3jGITtj1FYmK/ahjcgo75VffIei0hCaXH3Dk2TO4KI3LXDIggCzj57Nm6+5QZNpkN2R35BHm78yXUwp3C/gs7g9f49A+4AcNKavn0rcO01l2s2OKg902dMxV133YL8gjymdi0WC7KcmartqN28PX6Khjb1TkRJNw6A2/+97q+EgVX9cd99dzCRSpSS5czELbfcgIxMR8KumSjsFgF2rvv3CPinzEl7ho8Yiptuuh4ZGRma2LdZrbj++qtw0aIFmrUlLmAgA6jV7/cx0P+tFjNyXJ2f1oMSRVsHun93ZGRk4Cc3LMGiRedr7uxlZztx8y03IDfHpel19EA0cN2/J8EdAE6PYMCAStx33x0YPLiKqd3+/fvhvl/eGXOWf6wUFKiXAdQ6AHtZ6P/FBZ0my0Uoorp/nKkKhBDMmHEyfv7zWzWrAimv6I277rwVJSVFmtjXE0KA3Ayu+/ckuKvH6TFkZztx880/xurV6/DmG++gprYublsuVzbOPecsTJg4LiFJaEwcAJUSAIsKgK7C/y1uqVvdXwmlpSW4557b8eqrb2D58s8gM7BpMBgwa9ZMzJ17hqbDp/Qkyy5C5Lp/jyI9v8kcTheMGzcaY8aMxLebtmLt6nVYv2Ej/P7uB+YIgoCqqkpMmjQBY8eOSmjmN4tEQLUOAAsJoKSkYwfA7Y/AH4Pu3x0mkxEXXng+Jk+aiFdfewubNm2NqwpCEAjGjBmFs+fORmGRehkmWbGZue7fE+EOAKdHIggChg8bjOHDBiMUCmPv3mocOVyDw0dq0Nra9t3jTGYTynqVoqysFGVlvWC16tOAhoUDcLBBghShcZ/ytKoACEkUrXHo/kroVVaKG2+8HocP12DFiq+wfsNG1NXWdRkVIISgT99yjB07GmPHjERWVuIrDBIJ1/17LvxT5/R4TCYjBgyoxIABlXovpVPy8nIhCAJkOf5TckQGDtRFUFEU+8+eUspEAuh1XA8AWQaaPBI6LfhnRHFxIebPPxvz55+NQCCA/fsP4sCBQwiFQt89xunMRHFRIQqLCpKu06BWEAA5DhE6tlLg6Ah3ADicFMBgMCAvNwe1dfWq7OyrC8flANS1yPAF1e/Sx+cANHmjUYlEYrFY0L9/P/Tv3/EAop5EtkOEUeS7f0+Fiz4cTorAQgbYWxNfqJ3F6d+V7YTN9v3J2hOIIBBK/hG/6YrNxPv893T4p8/hpAj5OpYCstb/QxJFi08b3Z/TPaKBIMvBA8A9He4AcDgpQhGLZkBx1vKzLAGUKdCYAN2f0zFc9+ccgzsAHE6KwKIb4JZ9YdS3xnbyDksUX27uvkyyO0qPlgA2eyREEqz7c74ny851f04UHgPicFIEFs2AfEGK8++vx+QhFogK2hhQAOt3BbH7MBsJwO2PwM91f92wmgTYLfzcx4nCHQAOJ0XIysqEw2GHx+NVZae+NYLXv1RnIx569y7VrN6f0z2igSCb6/6cdnBXkMNJEQghqKzso/cy4qK0pBAwZXLdXycIAFcG1/05P4Q7ABxOiiAKBJPHDdN7GXExeFAVkz7/nPjIsosw8T7/nOPgDgCHkwqQ6Alu8qRRMJu0HXerBUOGDdV7CT0Wq5nr/pyO4d8KDicFyLIZYBIJsjIzMPv0qXovJyZKS0swcGB/vZfRIxEFAhfv88/pBO4AcDhJjtUowGH5PmV/wbxZKRUFmH3GqSCEh58TDQHgyhTB33pOZ3AHgMNJYkThxMxtV7YT8+aeqtOKYqO0tARjx43Sexk9kiwH1/05XcMdAA4nWSFAdoYIoYNf6eIL52JQVXJXBIiiiKuvvgRCRy+Aoyk2swA77/PP6Qb+DeFwkhSn1QBzJx3bDAYBt990Fex2W4JXpZxzz52D0tISvZfR4xAFgmyu+3MUwB0ADicJsRgFZFi7btVXWJCLh+6/CZmZ9gStSjlTp07C6adP13sZPQ6u+3NigTsAHE6SYRAIXAo7tlX27Y3f/vJmODMdGq9KOVOnTsIll1zAE/90wMnr/TkxwB0ADieJIARwOTrW/Tujb0Uv/OGhOzCoqq92C1OAyWjEBRecxzd/nbCZBTh4vT8nBvi3hcNJIjJtBpiNsW+exUX5ePjXt+GKxfNgFBOv//ap6IWf33MbTj31FL756wDX/TnxwL8xHE6SYDEJyLAoGNHXCQZBwMLzZuH0GSfh7fc/xetvfwSv18dwhSfSr6IM58yZgcEjRkGmfOPXA677c+KFOwAcThJgYNixLSsrE4svmIN5c2bgi5Xr8fWGLVi/cSta2zyqbRsMAvr3K8eIYVUYO2oIBg/sh2aPBG+Qj/jVC97nnxMv3AHgcHSGECCnk3p/NdjtNpw+cxJOnzkJskxRV9+ApuY2tLS60drmBqXKhvMYjUbYbVbk5WajpKgANpvlu3/zBmS++esI7/PPUQN3ADgcncm0Rvv8a4kgEBQW5KGwII+ZTSlC0eKVmNnjxAbv889RC3cdORwdMSuo909GKIBGjwQ+4FcfCKJRI677c9TAHQAORycEQpDjSL3NHwCaPRLCEt/+9cJpN8CocdSIk/5wB4DD0QlXhgGCkHo3cX9Iho/r/rpx/HRIDideuAPA4eiA02aAxZh6Pz8pQtHs4bq/XoiGE6dDcjjxknp3IA4nxTEbBThSVPdvckuQeeRfH+LoEsnhdAX/KnE4CeSY7p96gX+gxSshFOG7v15k2bSvFuH0LLgDwOEkkJwU1f19QRneANf99YLr/hwt4A4Ah5Mgon3+U+8nJ8kUzbzeXzdEgev+HG1IvbsRh5OCmEWSsvX+TW0SFDYN5LCGANkadInkcADuAHA4mmMgBK4MMSV1/1YP1/31xGk1wMx1f45GcAeAw9EYV4YBhhTV/T283l83rCnaJZKTOnAHgMPRkAwr1/05sWPguj8nAaTenYnDSRFMIkFmCp7gKIBGN9f9dYPX+3MSBP+KcTgaIAiI6v6pF/lHqzfC+/zrSJbVALMxBb84nJSDOwAcjgZkO0SIKaj7+8MyPIGI3svosVhStEskJzXhDgCHw5gMqwHWVNX9eZ9/3TAIBC6u+3MSSOrdpTicJMYkEjhT8QRHgWa3BJkn/esC4bo/Rwf4143DYYQgRG/iqVjw3+KPIMh1f91w2rjuz0k83X7jBk2+WtVdoaioUM3TOZyUwSCQlEz6oxSI8BF/ukEIUrJPBEd/Dhw8our5mgtOR47UaH0JDofD4XA4McIlAA6Hw+FweiAKHQAeHuRwOBwOJ51Q6ABwfYrD4XA4nHSCSwAcDofD4fRAuAPA4XA4HE4PhDsAHA6Hw+H0QLgDwOFwOBxOD4Q7ABwOh8Ph9EC4A8DhcP6/vTuPs6q87zj+fc69swAzwDDMgCxhUwFHURHNCEisMa4xqVlqs9gkNS5tYtqkr5dtfKUtTVubJkZtjHFPYkxta9LWJqmmagphEVEQsQyb7DAwMMCs985dz9M/BhJcYGbuOfeee+79vF8v1GHu8zw/eek833POc54HQBkiAAAAUIYIAAAAlCECAAAAZYgAAABAGSIAAABQhggAAACUoWi+B/ibhXfmewgAAEIpMlyKjsrtwL3WjgO6/8Xv5zx23gPAtFFT8j0EAADhY6TqiUYmEszwPAIAACAA0RoFNvlLBAAAAArOGCk6Mrdb/34hAAAAUGCRGsnk/SH8qREAAAAoIONI0dHBXv1LBAAAAAoqWmdkimD2LYISAAAoD6ayf/FfMSAAAABQIJX1wd/6P44AAABAAURqJacy6Cp+iwAAAECemahUWQQL/05EAAAAIM8q6k3RzbgBv4UIIAjt8Xa92bFD+3vbdCh+WD2pHiWzSUlSVaRKtZU1ahzeoPEjGjVj9DSdVjM+4IqB8IqOlCLVQVfxTgQAoEzs7Nylla2r9drB9Trcd2RIbeuq63TeuHN0ycRmnV43I08VAqXHqSyOd/7fDQEAKGGudfXqgdf0i+3/o93de3LupyPRoSW7l2nJ7mWaWDtB1824Ss0TLpRTDC8zA0XKGKlirJEpzvmfAACUqi1H39SPNvyr9vbs87Xf1p79euj17+tn257TZ87+hGbXz/S1f6BUROuMnIqgqzg5AgBQYlLZtP5509Naume5rLV5G2d/7wF9Y/W9umTifN149g2qilTlbSwgbCIjpGht0FWcGgEAKCFtsUP6p7UPqrVnf0HGs9Zq2b6V2t61U1+aeyuLBQFJTlVxbfhzMjzAA0rEzs5d+rtV3yzY5H+i1p79+vpL/6g3O3YUfGygmJioVNVopOKf/wkAQCnY1rFdd718j7qTPYHVEEvH9a3V92lbx/bAagCCZIxU2Vh87/ufTEjKBHAye3v26e5Xvvub9/iDlMgmdc+aB3Sgty3oUoDCMlJlQ3Ev+ns7AgAQYrF0XPeteUjxTDzoUn6jNxXTvWseUCKTCLoUoGAqxhg5w4KuYmgIAECIPbb+CbXH24Mu4x3aYof0ww1PBV0GUBAVY0zRHPE7FAQAIKRW71+jtQdfD7qMk3qpdbXWHVwfdBlAXlWMNkX/ut/JEACAEEpkk/rnjU8HXcaAfrzxJ0q76aDLAPKiYrRRdFTQVeSOAACE0K92LVFnsivoMgbUHm/X0j3Lgy4D8F3YJ3+JAACETiqb1nM7Xwy6jEF7dscLyrrZoMsAfGEkVY4J/+QvsRMgEDpr29b5+r7/lPdM0NxzZ6tx7BhlravW1oNatXq9Orv9GeNI31GtO7Re88bP9aU/IDBGqmgwioRstf/JEACAkFneusqXfmaeMU1/9PkbNHvm9Hd87/bbXD37/DI98dR/qacn5nmslftWEwAQasbp3+THKaEjL3gEAIRIXyahjYc3e+7nA5ddrHv/4Y53nfwlKRJxdN3Vl+q7d9+pyZNO8zzeG+0blMqmPPcDBMFEparTSmvylwgAQKhsPrJFrnU99XH+nFn68hc/o0g0MuBnx49r0Df/9itqGDvG05hpN6OtR7d56gMIgjNMqj7NyJTg/XICABAiWz0etlNVVak7vnyTIs7g/9cfUzdKd/zp5zyNK0lbOggACA8jqWLUsYN9SnSmLNF/LaA07e894Kn9Fe9foDF1Q1++POfsmWq+cI6nsVt7vNUOFIqJSBXjjKKjQ3CknwcEACBE2mIHPbVf0Hx+zm0/cNl8T2N7rR0oBKe6/3l/pDroSvKvBJ9qAKUrlvK2In/a1Ik5t5115jRPY3engjuqGBiQI1WMMoqODLqQwiEAACGSyHo7YW/E8NxfYB41ytuG54lMn6f2QL44VVLl2NJc6HcqPAIAQiTjcUe9zs7unNt2dXm7gvdaO+A340iV9UZV48tv8pcIAECoVHt8MLl9x96c227a4u0NhGHRMnioitCIjpCqJhhFQniMr18IAECIDK/wtgfp0hWv5t52ee5tJWl4dLin9oAfnGqparxRxVgjM/BWGCWNAACESOPwBk/tl61Yo5279g253Zs79uil1es8jd04wlvtgBdOVKpsMKoaV3o7+uWKAACEyPiacZ7aZ11X37j3ccXig1+QF+9L6B+//Zhc13oa+7QR3moHcmGi/af3VU0winAT6i0IAECIzBg91XMfu3a36qt/fZ/aDx8d8LOdnd264y+/rb2tbZ7Hne5D7cBgOZVSRb1R9QSjSK36t/bDW5ThukcgvGbVz/Slny1v7tRtf/p1/d71V+naKxeppuatl0axWFwvLHlZP/63n/tyGqAknTXWn9qBU3Gq+t/nd0rkyN58IgAAIdIwrF4TayeotWe/5756e+P6/pP/oSeeekZnnj5V48eNlbVS++Gj2rJtlzLpjA8V95tcO0ljqr0dKAScjIlIkRopOsLIVARdTXgQAICQmT/hIv1kyzO+9ZfNutq0ZYfn1/xOZf6ki/LWN8qTMVJkmOTU9F/tc4d/6FgDAITMwknNijjheX8p6kQ1f8J7gy4DpcDpn/Qr6o2qJhlVNBhFmPxzNpgA4Gnpr7XeVg4DeKu66rpQTagLJzarrnp00GUgpEyFFB3Zfyxv9SSjykajaE3/Ln7lznibXu1g/gg9beCdNikvzQG8iw/OuDIUdwGiTlTXzrgy6DIQFkYylVK05tgK/on9q/gr6o7d5udS/y36MkkvzWODCQCeNgC3DSlVjjOKjpIcFmcAvjitZryunPr+oMsY0FXTL9e4EY1Bl4EiY9T/fr5TJUVqj93SP81o2GSj6tOMKuqPXeWzSu2UEilP1+c9A//xGvXIKucdPLri3Ro9dqQi1UYaLVlXsknJTUs2a2WzkrKStfL4sAEoL9c3XatX29aqPX4k6FLeVcOIBv3u7Gvk8EO8fESOPY83v/1lHElO/7a7TrR/UjcR8eDeBx19nq7PBxEAXNPj5UFDa2ebpoyd9JuvjSOZYTr2jib/BQC5qtIw/dnVt+prz3xTmax/r+z5IeJE9CdX3qRR4zkACMiXA525b9BlZbsH8QjA7sl5BEn7Og54aQ7gFGaMm6o/mP+xoMt4h88uvEEzx08PugygpO07mvv8amR2DhgAjMzWnEeQtHG/p+YABnD1OZfpw+cVz0K7D59/la46+9KgywBKWta62nxge87trbGbBwwAriNPM/ibbTuUzKS9dAFgAJ+6+CP60PlXBF2GrplzmT7ZfH3QZQAlb8eh3Yqn4jm3N67ZMvAjAOPtDkAqm9a63W946QLAAIwxuvHij+lTzR+RE8C7UhHj6NPzP6rPLfz9QMYHys0rO17z1N4dzB2A4TG7RpKnl/mXblnlpTmAQfrduVfprz70FY0aPrJgY46srtFXP3h7UT2GAEqZa62WbX3FSxe9I/qcNwbcSeTAgbXpxilzr5HM5FxHOtjdrktnXqwRVRzGDORb48ixumzWAsWSfdp52NMa3gFdPOMC3fnBL2lK/aSBPwzAF2t2r9eLG5d76eJXb6x+9MlBbSXWMOWCGZIuyXUka60y1tXcKefk2gWAIaiMVmre1DlqmjRLh3qOqL3H370Czp44S7df/oe67rwrVFVR5WvfAE7t/he/r45Yp4cezMPte9auGlQAGDdpXsQa3ehhNO090qpFM5u5CwAUUENtvX5n1nydN/ksWSsd7GpXxs1tz4DhldVadGazblr0SX103jUaW8vxvkChrdm5Xj9f/4KnPoyrP2/f+1rboFbrXHDBLRV9w+x+SWO9DHrh1PN0xzWWeVgAAAAL2ElEQVR/7KULAB4kM2ltPrBVb+zbpG1tO9Xa2aauk+wmNnJYrSaNHq8zxk3XnEmzNXPCGaqKsp83EJRkJq2v/OtiHepu99LN1o0rHp0pSYPapHPt2kfSTQtvftpKnmbvV3e9rpe3r1XzjAu8dAMgR1XRCp07uUnnTm76ze8l0kl1J3qVSCUkSdWV1RpZXaNqbu0DReWnr/7M6+QvGfvE8X8c/C7dxn1K1vF8+f7gkic1rXGKxtV6upkAwCfVFVVM9kCRe31Pi372+vNeu3Edk33y+BeDPlG5ZfnjL0neNgWSpHgqrnt++ZD60gmvXQEAUPLaug7p/hcfl2s9n5j3woZlP9h7/ItBBwBJ1sh+2+vokrSjfY+++ez3lC6yA0wAACgmXX09uusX31F3otdzX9Zx7jrx66EEAMWimR9J8uV0nw2tm3X3Lx9SKu1pjyEAAErS0ViHFj9ztw50HfKju+Wblj287MTfGNRrgMd17no90/ieC6KSLvejmgNdB9Wyf6vmTTtXVdFKP7oEACD09hxp1eL/ukcHvS76O8ZxzS2H9q59y+lBQwoAkvSehnnrMhX6tKTRfhR1pPeoVmx9Rac3TlVDbb0fXQIAEFpLt6zSt557UD0+3PaXJCO90LLy0cVv//0hB4ADB9amx065oM1Ivh1C3pdO6NdbX1YindDM8TMUjQz+5QQAAErB0ViHHvjfJ/Sfrz2nrJv1q9uEdZzrDu9ee/Tt38j12C7TtPDmJVZ6n8fC3mHMiDrdcNGH9L6ZzYo4Q84nAACESjwV13NvLNEz636pRDrpb+dWX9+48tG/frdv5Xxu51kLbm6S0RpJ1TkXdgoNtfW6+pzLdMmZ79XoAp5sBgBAIbR2HNCSzav0YsuvFUv15WOIlng0PW/X0h++63v3ng7unr3w5j820gNe+hhIxDg6e9IsnTN5ts6eOEtTxkzkEQEAIHSSmaS2H9yl/2vdrHW7N2h7++58DhczxrmoZfnDG0/2AU8BQJI5a8HN/ymjD3vsZ9Acx9G42rFqqK3XiKrhGl45TMYM6W1GAADyLu2mlUgl1Zvo1cGewzrc847H8HljrPlsy8pHnjjlZ7wOMuuiL9RHKlOvWmma174AAIBX5pGNKx65daBPeb503vzKA0eMaz4gyZedCgAAQG6s9IvG6IQvDOaznu8AHNd0yU0XWesskTTcrz4BAMCgrY4OT7z/jeefjA3mw749PG9Z/vgrxuoTknx+hwEAAJyKlV1jsu41g538JR8DgCS1rHz0Z47sVZJ6/OwXAACchNX/ptPD3t+y6vEhrTL07RHAiZrm33yhdfSspLH56B8AAEiy+vd4RfrTJ3vX/1TyEgAkafaiW8+Q6/7USHPyNQYAAGUqI5m/37hiwtelxW4uHeQtAEjS1Es/Wz0iHb3fGvP5fI4DAEC5MFKrtfYTG1c+ttxjP/nXtOCWz1hj75E0phDjAQBQop5OmcwXty3/gedzggsSACSp6eKbxthI5B8ke3MhxwUAIPSMthnr3N6y4uFf+tdlgTUt+vxl1ppvyOrCQo8NAEDIHDbS3cna6vu2PXe/r6/ZB3Yl3rTwloWu7N8a6dKgagAAoEgdksyDqXTVPdtW39+djwECvxU/e9Gti0zW/ZyMPiqpNuh6AAAIiGukX7nSkz3Zmp/uW3VvXs4IPi7wAHDcnCtuHJGOV3/Eka63/XcF6oKuCQCAPEtaaZWMfTabiT61ddVDrYUauGgCwFt8/OORptbRc+XoMivNlTTz2K/qgCsDACBXGUk7ZLTZWPt/rszSnmzNynxf6Z9McQaAd7XYmblo35SotQ2udUY6RqPkmhoZtyroyhBuCxY0XzJ9xrRPB10HcmOt1Juyvva5e+fOH697ZbWnd6xR3lyrrDFOt+OqS1Hba9LmaGVK29eufSQddG3HhSgAAPnx8tbULdbah4OuA7npTlr1pf0NAFbm1usvqH7E106BIuPrYUAAUEiule+TP1AuCAAAQivm861/oJwQAACEElf/gDcEAACh1Ju0YvoHckcAABA6WVfqyzD9A14QAACETk8qp+PPAZyAAAAgVJKZ/l8AvCEAAAgNa7n6B/xCAAAQGr0pqyzzP+ALAgCAUEhnreIs/AN8QwAAUPSspK6kFe/9Af4hAAAoet0Jbv0DfiMAAChqyYxVglv/gO8IAACKVtb2n/YHwH8EAABFyVqps8+Vy/wP5IUJugAgCLMW3nymY+zHZNVcN3pU05SpU6bPmD5N722ep/r6MUGXByt1Jt2Cbfhz+NAhbVj/uvbs2qV4rFexWHz9kYOH/s1a96lNLz2+uzBVAIVFAEBZmX75LaOq++x9xuhGK0Xe/v1IJKLLL3+frr/+OlVUVARRIiT1JK3iBTjpL5Ho0y/+/T/0+quvyrXvusowLdnvxKOZr+1a+sNE3gsCCogAgLJx5sW3TYxGsksknTHQZ2ecPk1fuv021dSMKEBlOFE8LfUk87/kv6uzS49/9zs63N4+4GeNsauyyarrNr/ywJG8FwYUyDuugIBSdPrVt1dVpNNLJJ01mM93HO3Ujh271Nw8T47DUplC6Utb9RRg0V8mk9Fj371fh9raBtnCTDZOprlx5Iyn2ts3ZvNaHFAg/GRDWajqSX5Z0rlDabN16zY9//ySPFWEt0tmrLpThVnxt3LpUrW1tg6tkTGLVFf3lfxUBBQeAQBlYLEj2S/m0vLZZ/9HyVTS74LwNn0Zq65EYXb6s67Vy8t/nVtb2a/OueJGnguhJBAAUPJmX7L/PCtNzKVtX19Cb6xv8bsknKA3ZdWdsAXb5Xf//lZ1dXbl2nxkJlZ9rZ/1AEEhAKDkOXKne2nf2rrfr1JwIit1JaxiBbrtf1zH4cOe2hujc3wqBQhUNOgCgPwzdV5ad3f3+lUIjnGt1NFnlQlgl5++vrin9lam0adSgEARAFD6rDW88Vo80q5VZ8LKDepwH8vWgoBEAABQKFaKZaxiycI97wdwcgQAAHnnulJX0iqVZeoHigUBAEBeJTNWXQmJ636guBAAAORF1kq9SatEhokfKEYEAAD+slI8I8VSHOULFDMCAADfpLL9J/kF8XofgKEhAADwLO1KsaSrJMfkAKFBAACQs4wrxVP9z/m55gfChQAAYMhSWSmedpXMBF0JgFwRAAAMilX/K32xlHjGD5QAAgCAU0pnrfoy6r/Nz7wPlAwCAIC3sJIyWatERkpmrbJB7dkPIK8IAADkWimVtUpm+p/vu1zqAyWPAACUGWv7n+GnXSmT7Z/42aIfKD8EAKAE2BP/6hq51sqVkev2T+6ulTLWKpsVkz0ASQQAYEDxtNXB3jA9CLdv+zsAvJMTdAEAAKDwCAAAAJQhAgAAAGWIAAAAQBkiAAAAUIYIAAAAlCECAAAAZYgAAABAGSIAAABQhggAAACUIQIAAABlyARdAErfzEWfnxZ1zW1WutZI0600LOiagBBKSGq1xq6QNT/etOLRF4MuCOFGAEA+mdkLb7nTyH5NUnXQxQAl5rmUyXxm2/IftAddCMKJAIA8WeyctXDfk5L5ZNCVACXLaJuJVFzSsvR7bUGXgvBhDQDyYvbC1ruY/IE8szrdzaT/RVzMIQeRoAtA6Tlr0U3nO9b8UARMIO+MNLVxytwN7Xte2xh0LQgXfkDDf67zF5ZwCRSMa80Xgq4B4cNtI/iqqenjlaob3clKf6CgMsP6zKi1ax+JB10IwoM7APDXyJHvYfIHCi4aG2YnBV0EwoUAAF9lHMutfyAAUddkg64B4UIAgK+iFdWtkjJB1wGUEyP12a6OvUHXgXAhAMBXLUu/1ytrXwq6DqCcWOnnLS0/SQVdB8KFAADfWcc8GHQNQBlxHet8K+giED4EAPhu0/KJT0taHnQdQDmw0rc2rHx4TdB1IHwIAMiDxa415gZJ24OuBCht9qlNKybeGXQVCCf2AUDezJl/W2PGyf5I0pVB1wKUmISV+btNKx65S5INuhiEEwEAeXf2/FuusI79lJUWSJooTgYEhsxIfVbaYaT/zjj2oS3LHtsZdE0It/8H65hzNjo/7VAAAAAASUVORK5CYII=;" parent="1" vertex="1">
          <mxGeometry x="115.50999999999998" y="549" width="61" height="61" as="geometry" />
        </mxCell>
        <mxCell id="ppfQhNkfrTPM0ce_duGg-12" value="" style="shape=image;verticalLabelPosition=bottom;labelBackgroundColor=default;verticalAlign=top;aspect=fixed;imageAspect=0;image=data:image/png,iVBORw0KGgoAAAANSUhEUgAAAT4AAACfCAMAAABX0UX9AAABLFBMVEX///8AZ7QAa7cApukAo+YAneIAmt/wqwAAi9IAlNqFw+UAqu8Aq+0AqOoAoeUAl90AdcAAhc0AW6/a5PAAgcoAfMUAcr4AfsfwqACLye2voIGSzO3XnBMpfcDY2tzNsHvhoADVz8Pi5ef08/HMoUsAYrPDkAXFu6Tr7fHfngDJmCzz+v1ordz08vAAkNvA2e26sqG8r5XDwLexmWYyktBio9Xj8vpyu+bN4/I1g8O3kT8wmsw0isBVqd7H3/CpyuUuerMpbqm/oWfLzMq7p4C5jiu3lU6XvNGr1/B5v+lEqeI0ndkuhr5Rodcgj9B2s96IuN6cwuJMjsgcZ6TJwbHDsIywp5K4mVfCn1q5tqytk12/mk6ziy7AwsDImC7UyralkGHg3dXDroTVsG98GK8XAAAQdklEQVR4nO2dC1/i2BmHD3R31Gk7xh0CGUAGI8GEYxFQEW1HWgPWGVdRO4O30d3Z/f7foeeSe95AYAQShv+vrZic65P3doK7Ra9/FP0XTUJ//UH0z39MBN/ffghNit6PgW9i9NDffwBNjt6PgO/N5Oihv8y9Jklv/vFNlN7c45ssPfTTfGvC9OYc388Tpjff+CZOD72ZX02B3jzjmwK9Ocb3agr00M/zqqnQm1t806E3r/hWp0NvTvFNix56NY+aGr25xLcyNXpB+FZXiFZf/fyGOMIK/xwbTZEegG91daX600HurNXEmDTAuNk8PssdnK9UV1YHQuScPQrbztAq1ffRq06RHlr1qlr9cNaEWuJWbvtVtbri62Fo5UPOrwN/85VPuXcB+vjx4MOnN1WqwGmGqfqvKdLz4que50B2plq5T0Fbq0IdcdWP7+OQJWFi7R8Dp4kUPRe+ler52fAeTUJwBTIqsPUHX8uVg1ALwzsfV0cnOGV6yBF3qish4DG1PpLGHlXhzme+hiHxUe188PceqGnTc+CrfsDhu+HcK+/S4d7YnyjC4yOmPhLAqdOz8VXfjdYx59nXdkC7A+/+q6PgI5Z+Hhrg9OlZ+AJ8L1BNz6aqrYCGLe/ul0fDBzyAQHqbI478/RqTnm9PrwJbeq1nZHw+Qw+iN3XbM/FVcyN2ay17mLwObPrO23RkfOhsLaL0OL7qh1G7ffIuPrhabH4/PvTaMwZEb/qeizi+5YCsGSyvOSzDRR/XJ/fex8HnHSMitofQMtHaqIEPrS67NXCEszV343HwNZcH69fZ0GP4zkftlFvzLn+Q+WJP23Hwode+KZ1Pbzaeixi+tVHzhs8U1oKKPq4D99bHwjfI/NZm5LmIW1+A6TR32EuTs52Wp8G21xJSQUUf13HKtdmx8HmfQSRsj+JbA9Muzp2nUqk1IvIjdbmdswm1Ut4NXA6Z5NK12x7Q4gPT9sE7+GUZOGsE6KEA322uuFdLIO69Ngiee+1gLbjo43IFLsjT8fKaoVTqPAd7QxTpkUWljv1XyXaAhabOz8jOznxmkBr4ihB5LAfEt+Ic7hKMBb6QwRvPlB6CN58L8JTUcq556bt6MXSWcyc+wHld+OAnitrQmlK/zpQeIv4C+EovtRYg4EZqeNnYdnaDrO/SPSSUzY79U8+cHgpYqhiED9LwMwt2bD01MPYZba78bZp+fDOnF4AP9TKh4aWgTOrVtr33MPjWgFyOvfhmb3tBzkuSpRjovx6J/kDvH3HHNudQ+AQgIPue2+zpkTWlYN9r7YV04D1/X6CStPmEwicCycMTH6NAD8EPmql9GcYCM9e+js20/4l8tKLBC+HLRIEewSfuBN7cuRAzwwhm/PRfC/5c3BJGwidA+JxLiQY9gi8DZDlLzas9YSDBFFD07WUAQnvmKGPHPqf1RYQeIgdaIHg51epdCsSL6dGX/Y/1gwkwtKaYyvi991o0ekBssXNIdsiGl2oqKvTomgKDn6XmFSUIatnf+lpIAb7XFEbAJwAegTPWbfHfEaFH8YlhCrdWLyVkUj5Bffcy4OV9o7s4HF8GKqYs/hGixzxCHGp+VPhsz2+Cwlt/O5Hu39//TBiEz/loMgL0zmDHxCdGxXOJMkTQhkC1zgUx45QIxM22QG4AAHDK6APjsyUsg29crgV2NyVEx/Y4vky6Hbb58Z7gxCf4iz50QQlDwavHu4r7/lt4TTQkCJfAmFTn/MkJEbI9A18G8MEgXYsOAxT9MQrzG0DqPA7Gh/a4LrbbQYEE896Rsj0TnwgUv0Fq2gYIkdgxtgkVbgy8AOEbLhYTokYPcZch/AZ/2+PSftrwtDRwYLkw8AHxgEevMfHtiRGkhyxDgvYbpF6a2ZEI5FecEZk1Q0mlybCPh++YThk5eki0lN4O/6ca2wIDAVR3O6ZlQt67J4yNj3aNHj0HPlHIhDdABiINJJx9wXwawGDtsfG105Gk58RHtrwXNgIyP4QOyynrYUD1SXpMfM1o2p4Hnyik96AvuQBdpcU0UKC10vZYQCygTj8OPmLskaTnwUc2lzxsh4mBWBAgPj0bH5SWd5Jj4SOpPh1Jej581ALF/RA+fJWEMKwJ9jjQUVAUxsAXXXoAPgowmeoNI9hSAOt6m3SMAhxJqM+Pig/fRJceEgKUTmb2B4dBEbh2lXYMkQT6txJCejR8rUxaiCy9QHyMoDCIIPS3BZcJi186rUDfAuyNhg9vJ4UI0xuEj9vg9Uh/99y6vlhPEwnr+9eg+7fTI+DDV2SkKNMbgo+64CinOSaMcTBynAyN73ifwos0veH4BCEx3hk/QPtgxvYIv23vizwQRJpeGHxCYtBXmaNqR4Hw7VhqX/cuDoVE0gii0aYXCp8A/NXA2MKQ8+K0kjCUTKbTdv6OOD0bXzqZhshx8wv/MnW4etBfU4rw5FGnh9Kmbpo3SjpIL2h9qHXjv4ZFcNpk1OlZ+BLkDHF8CAMME+xHEPRNG4gv+vRMfEluEjs3ShLYxkv6LjE//yUsxJOeic86wLZ6aSXpQqiAX1q/rCB8yf9Enx5yGR/X8dVNwpKyPtqxYzwB+OJgeyY+xXu2bR6TCqzd9v3zWBOSH1886HF8ycMZr8KHLyb0EGx805YXX1zoIV/km4k8+BJxoYdeyvjwzTVU3ry9CvW+BseUHnop42srJEnvX7VbJsRmq311ISpKqLCK08lY0kPJZPJFIt8hGShJ6hxFSSTJYTXJPiXotTA1N8FnKU70CL7ESxhfU0kGSAnjvQ58saJH8CkjHirASvAqEYQv1MtWG18iDmcNW2TBvZGOtG+h9004CB4R9I1cYP+Y0WOxT7kKD/Bagf4OfyfQd8NZN44pPcR3qPTC/XVu6+YXMJbdBPouGTzgb5WdMvApcaOHzMeu3Az/05bWPkmrkDEFJ45kuNSEY0oP2btUkvuBf5dNhNs3CrOxQ1Pr6+Q/TMIA4yNah3Xo+BRLz0UOfIygcthrAy9Z8PH1TUIxGCX8GggP7AGMEEPbc+PjBJXE+n7v6rrNvzZsX/du1hOKMgzRdyuOtufDZ1iL4tRQ6/px6YH4ZqBYei6KCr640osGvtjSiwS++NKLAr6YZg2mEDXZhBVj24uA9cXZ9mZvfbG2vZnjizm9GeOLO73Z4os9vZniiz+9WeKbA3ozxDcP9GaHby7ozQ7fXNCbFT7lf3NBb0b45sNziX6ZieaFHno7E80LvYUWWmihhRZaaKGFFlpooYUWWmiheAk3aveFWS8ijApPXHpBfbEx5caX9yfvt/Tx/2H+jiRJ5Rjwa+Q1U/nT+ossWM3mi5K0JElatzHuEN2lpaVi7SVWM1lllxyS8p1gE9ysZbP9EP9XwvJXyRowP6ZFxweftOQCeBRogA1tSQqxI/xAR5S0vEZ+FuUxl9XRpGIcnJfhO+l0Og+VIgN4FGQwjWIog9A1MojW0fVG/as0Nr7NxtbnGNBj+KQN+gk3jpjddAJahsT3RbLGwJ+Dxpob2fhIxHlg8cp46riwUa/Xtza4Ncp6n+CTsrquGxc2tshtv4mc0Kj15JuHDWa3VnWdfFY/17dktKmzX5Axj17YZJPrluWqdKrPtiGzqbcKjrxeoFc2xjX175ATH5LLlF+WflT7JZo/Sfqs9Mk61VON+XaRJOgv5LZ+UtboXSl/6waIT6CgL+/ywfIPRusTTSvL8hG5eIvrJPmXdX698EwmqBMbJte6HIfar9CpimZaU7NlPtaj0QcV+OjFcv2F4QyXCx+PhF2K68hOKdIu2X/FTi8nGNU0+1dPhH9PO5bd5qdXrNEMTiUy7NNXeuEr3qJLyPKW7HONj6KxgeVbs6/0O/29YK8sf8/6NPLWhanbnxtfga6ELrtAPVUqFtlStQZSbXzSCUJ3S47bp67quMasNN9x7KRAjVoqH+Vp8wq7UaKPiQ3XxWzSZ2ZazHYpBIqPRRHM6RHjIlkN0efKCqyjsmTGGVbkSN0jYpPajPEx79WIgRQ06Tn7JMs6Wz0xv/od3fFS6eTujrS+I057X5DlWt4RLLnUr0YJmbUu05Car6mqmqUPhXlYyTCXbp7AfzQmJZ3peLfYgY89DW23dr9blo6M9RazKlaZA5CFoQa9UiNX9E5g1TAxufGxZ1skZ4XN7L2RISrMwcinJ5p5ubughsmG7cZ9trB8ybRAal0cGj6lT4AOzPBJtwW1QNrUJLMBQ7GFbHx8QSyUFh6yxnIe2LAdiRtqn/wsG2FyEoQGyo0P3y15cVB3KlN8YOGiF439Oq9Zka7CTGrLrp9r5lYZvlNju8x7j+gcu6bRmfhkzQjGhjao/erW1NRm75n1TeffleeTx/oeXfgwxupuID76LwinJil58CG5k5fstMLiWVkvUNVMPCWn0+NH4zcWxk7pJRMfZSN9sYemVaX2xMZi3tDgYXqpeNKYvukh0Hl5GMJ6ffeo+8wSAYBP/tw57Xbz9LYPH9lSp8wBkji2ScdcKnLRT3S2kpUtqPqGz+rWwzDx0TvSb/bAu+6xaGN+SlwqVuqzrvuQzDIvXUbhVrNLFx8+3C8XrdsAPjJSltU2JIsbucSSZuKrWPgKGo9oWdM4LXz0irZhD/vgHotNLRuljNTVvauYuNz4Gmbdx2oNUiTnmX358GXZoyd380H4iN9RJtK9gS9v6cFMHTY+llLyKqZXH9kVJ76iF589Fn/BoZKHyZPV1I/JLnxsG6yCPeHxhNQmUOpgrwUqdb0gg7HPEKvQajyylclIhtg9Nz6eXRosRfMZBjlvXrfGMhOGunXEAJ68HJhwcuHjRZZu1H+8HIbwMZdiBwt9AD5qKaTS4cc4T2D34KPeK73fsnzXlTpYdWeIvZCAbAw37OJ7inLgU/usYqPUmB302bIsfE+aWZ0xG+CnB5/1bf5eM7bAS/CCsWXPcdSDj1nq85H1zCx8LK0aSBvk2f1WdON0yF7UFMXwbX37tnHf6fIsS+MvSyGsOmXFPcPHPLZbUL99M1wI0QOoN/bJxWK3/k1WZZ0lXHoOYGVdvsG4qHr2G/3pxVc3EhF/ZjY+zEb5Sty10NEq2Hgm/Amp3/q0xKrtsu9UWOCZifUtsXcnfAN5VvSpdHvF3cb9iV24MKT0mHXCqt+l59pTveLLvDJ9HFr5ucISLy8hWWWhPb6v//FnV+OAvPgKxlFFMxzTOrR9ZgvQKs+klCT4+HqLpff1L3+W8vRlBim1tcf6fe2uyF9uTFful/XFIyP387RJayvL+tgpicdnVh6S2xL5rwefWnYMp/H3KHLXPPZLpn158THvtX3X8crgwV5gl45/6xiLuXHHWAptMPXKr2+Xb1K+VLN21OGvpKTyPQFUZpdNCn/QuoZ3K+7+IXlSx+ey9YKpbBbZhduiNQtzelSSPPj4Oqyh7BdW6q5mDtdw/U7HohPo5hFHqky/7lOzu1zZ/obz/S3Wb5/L5eesjDqlkvEyTu6UKuXKCd2VnCUfy6cNrD+WTt2ZUK7dPpN7lbuabQu4sUtGK1eeb42LtcfSY9+9jscSmcgk2rglv2waK6F9K0d92VxZp8TGuuvziQtsLc+P/RmcOgZILfi+OceydYl8DFyuKgNdyTFVHvd7S9LV+U6AzO0aCwPzLbTQPOv/OXLKCuynrlIAAAAASUVORK5CYII=;" parent="1" vertex="1">
          <mxGeometry x="440.14" y="92" width="120" height="60" as="geometry" />
        </mxCell>
        <mxCell id="6P_Zupyn003xEf8hD23l-33" style="edgeStyle=orthogonalEdgeStyle;rounded=0;orthogonalLoop=1;jettySize=auto;html=1;exitX=1;exitY=0.5;exitDx=0;exitDy=0;entryX=0;entryY=0.5;entryDx=0;entryDy=0;" edge="1" parent="1" source="ppfQhNkfrTPM0ce_duGg-17" target="ppfQhNkfrTPM0ce_duGg-25">
          <mxGeometry relative="1" as="geometry" />
        </mxCell>
        <mxCell id="ppfQhNkfrTPM0ce_duGg-17" value="BigQuery" style="shape=image;verticalLabelPosition=bottom;labelBackgroundColor=default;verticalAlign=top;aspect=fixed;imageAspect=0;image=https://miro.medium.com/v2/resize:fit:300/0*9dT0cIdpktEpw_Pw.jpg;" parent="1" vertex="1">
          <mxGeometry x="760" y="296.21000000000004" width="102.08" height="76.22" as="geometry" />
        </mxCell>
        <mxCell id="ppfQhNkfrTPM0ce_duGg-21" value="" style="shape=image;verticalLabelPosition=bottom;labelBackgroundColor=default;verticalAlign=top;aspect=fixed;imageAspect=0;image=data:image/png,iVBORw0KGgoAAAANSUhEUgAAA4QAAAICCAMAAACgDvN4AAAAOVBMVEVMaXH7vARChfRChfQ0qFNeZGhfY2hab4ddZmddZmfuXizqQzX8vAPqQzXqQzVrYGRfY2hChfTqQzVEbBmZAAAAEHRSTlMA/blf/LzdI4tPQ92UiL77zubvgwAAAAlwSFlzAAALEwAACxMBAJqcGAAAF69JREFUeNrt3e1y3CqzhuGJFATYa1zjnP/BrnJsJ/ZYQAPdCDn39WNXrf3Gw0ijR91CX5cLAAAAAAAAAAAAAAAAAAAAAAAAAAAAAAAAAAAAAAAAAAAAAAAAAAAAAAAAAAAAAAAAAAAAAAAAAAAAAAAAAAAAAAAAAAAAAAAAAAAAAAAAAAAAAAAAAAAAAAAAAAAAAAAAAAAAAAAAAAAAAAAAAAAAAAAAAAAAAAAAAAAAAAAAAAAAAAAAAAAAAAAAAAAAAAAAAAAAAAAAAAAAAAAAAAAAAAAAAAAAAAAAAAAAAAAAAAAAAAAAAAAAAAAAAAAAAAAAzs+/YU0Ah4jB/fzNhcjaAIYn8C2A7wLlEBjah4afXxBDYGAZ/LmLphQYJPz8SQqBA7mfSYG1AxxYB6mFwJHHg6QQGMT/LGCOFDiwGeWwEDi6GaUUAtY+z4yG+HLl6N3FM5RCYNgRod+vj6wmYFA36sv/fwDKQiprgX4UGNKNulTUPv4vjhUFjDgk9OkayYoCDghh5KAQGCCmy50nhAAhBGhHCSFwXAiZmAGGhNClbln6GE9OUQB2Quq2QU7WA2NEQQY5JAQ0PLzb7TqzGeSQEOg98Hu4Pv766/H64O/i9ue/fYzex8BdvYBmCbw+/br3eH342I/GRAU8shv1X/Fb6q9TVuqIIvj4a9/jezkMpQweUgjj7QvmaHuFryuVLsfcNRXB1xi+daD5DB5TCAkhIfwejejTr7ynh8xszLFTo4SQEH6LDD7+Knl8KGbwoMeOEkJC+A2OBq+/BJ78nBkkhITwX8ng30ro58ogISSE5/dUl8HE40ePm8AmhITwn8jgp3mZONdbKAghITy5yl70dbMPM72nlxASwn8rg/7PgeHbnU3u8DdlE0JCeGqCcxOfMvjfjw81cZJLmQghITy1x7pzE//9+PHfdMtACAnhqQvhfuW7Xh8eHq5Pj1/r4I8fPx4IISGEGv/0K3fXxOXlvqanuwz++M8TQkIIu1mZx+vniD1c7zM4X0NKCAnhiT0VTkV88p5BQkgIoXdE+JiegvnSuf7J4HRHhYSQEH6fblRUB+crhYSQEH6fQijM4I8fhJAQQieEdxm8SjM4WT9KCAnhd+lGHzMHhJ8zOFk/SggJ4Wk9iQvhfSUkhIQQGvzdIWHuHPzDXSkkhIQQ+vMyT9l/fBdCTwgJIdRDeM3+45lnZgghITxtCMXnJwghISSEhJAQEkJCSAgJIWuFEBJCQkgICSEhhG4ImR0FIZwqhI/Zf8x5QkJICPXdXzGTq25cMUMICaEFrh0FITzYVXxL7wN3URBCQmhyUCi+n/CuEHI/ISGEycxM+qjwPoPcWU8IYdOPphrS+2aUZ8wQQpiVwv0U3meQp60RQqiRPXf0v7kLISEkhN9paub+baD77egDISSE0JJ4F8Xd9TB3j3niXRSEELal8PWtTNeHZD/KW5kIIUyPCveODv3MR4SzhdD/ceqxNUPoU1o/Q2UVyT5sxK+ZflPvNVEKHwhh6veKMYTgnHPb9vJ/QwhxVBT/jL19GHuWEIZtn/PyZfu9ZK9/9bJ0sXHp4tcvIRr395hmv+VDshTuT83Ml8EZQuhjcNtt12adxJexb+pjK4Yw9e0kH+hj2FJ/7hpiEaWbio9uf32a/IbXVAo/xm3iZvT4EProkhvK24/n4lFjb41jq4XQh9Q3i+U/La/Y4C1CmF6rWxyawqedUjhjBo8NoU+WoS/7bfWdaKZK3I1dvwPXCmFzBm1WrCSE+dVqtDu9lqdmLhNn8MAQenEM9JuZcv3t2gUohbA1g75yxeqFsDSyUQj9VTg1M2cGjwthdLdKam2prx67YkvVC2Eyg/kPq4rg68J5pRDG0shmBxbXR8nUzKQZPCqEVZWoMQpqEaweWyeEyToYNBrRhhgWQihIfzTboPbPVHw+Yf9wIYSSfXxJ/7FhUwSrCoZSCJvqYOvSibqMfAglQ0fDjepamJrxlwshVIhgfwy96xk7DgxhaPgSPWtWcN4xG8KguQLbiuFTvhQSwooDB8NDw+6x/agQuoZe1HctXfn8QSaEwvhH203rawwzz37SuozojCEMt26tJ759/9iyM139IWzpRXv3MMWIpEMobTCi9eb8cD9Ds7sdrOuyLMvzXy//ua7+HwlhXzvY9w39pjC06MiwO4QtczJhs967pUPobpOE8HcOr0+Pr1F8fLy/udCvn8J37yWK3z6EUSMHjZdeaI0taId7Q9hwflBn77b5phC620QhfFkZD28+95mFBL4HcXxJHBlCr5WDhhT6MHDsvhCmv6p1BgspTIUw3CYLYWolCSL4nsNvG8JwUxQrM6g4dDGFfSFsOB7UymB+6ikRwng7SQgv67PYMrIcjguhYi2q/kFVM1hOYVcIk6tpRAazKdwPYc2h9sEh9M/PU8ZwXAgFOXi9ne/3TYW6HengsXtCGC3q4J9lEyxcOoX7IQy3qUP46bBweX6uy+E3C2Eo3lfz+QrtzF2G1SkUjH138Bq2rWNz6ghhy7kJV3XDUnHFJlO4G8J4mzqE67L4pn70LYb+O4UwtNwiUbjMU5rC4WO3h7Alg7nFSy5caDhTsRfCuk54dAh/T8WsDVMzf41oSgeFMLaeesseSTafOpedb/C5ipGbwWgOYdM5ev0VG+UhjMn+9+UpGt6/PObibxM8OISvkVsuHaXwc4hPHcLMwXvxnlmfCfDWl//iKb/clppJYWsIY0sGt9arbNOzVYkTFXshDKL6+37v6NAQrjsp8g0htD80HBLCdAZFF4JmouDsx264vqQxhC11MLl4kit7kgvnhNvKtvPLpFbry01WA0P4ofNc2qdmxvSkQ0Loeu8Oary/NTdzKH5qRay/lrophL7h3EQyuJts6ZKXT4TaYwrJavVx3Lm39WPaWs9SjJqgGRHCqHA/RMNVJNnq4nz/2MnLS5pC2Hb/4Na5dImd1O6iCUIY5rhrz6/Jo7qlMYXruUOYKkZ1P1iqIOW3t8RGulWOvdXFoyWEoamv3Lr3MIkmI7SEcIuXOTJ4l7TeqRnrlnRACIPODUnJLDfs52s3ltQeIKqFMDb126E7g8l15OtD6Ca5ef1rzj5+sdYQGrak9iHcLyMtO81Emn3tX2z1a7Oma2sJYVsG92dlqltCJxw4dt0IdWAGNfpRyxSah9Bveo1LqO3X9MZOdG1OJ4SN805BKQtOVuXjWTP4aWqmuR+1S6F5CIPmpROu7sOC4oHLfi3cL4W1IWyrgxev1RPu7ihDXQinzqBSKbQ6cW8dwkTHpHqyw9WM3Tx5sL8kTiGEsXGu0VU253Xf4Ov+JZ7yeFBvasYshdYhDLp7Te/65kd6JvD2Uxi7Qxi3tuLiFVuMIBk+Tp9BvwrC45fZUmgcwv1Gxyt/4P4m4LW7pihdmKoQxtZrXoLi4u3t3L6Uwth2Q/7xdTBRCpc3h58wNA5hUN9rBvH+3920l01aWmtC2FoHd/cx7WEIgrUaZ71ZV9Jofryh6fez1da/Dzxc13UVZ9FgdsY2hHt1q/eMrjRbBmPvNsOhK4TNdXA3ElF10Zw0hJO8YN1L28j9xmldl4NSaBvCaDCNFrfmctQ/tqywy0PYXAdFqekshfd1Nc7djPr+6HhRDtVTaBtCpzV915DszWLJZMkWh7A9g8qFcD/UQRbCOc5OlOZbhMdyXjB5upwphN7kF9udRDDfSNM97tdSKA1hMoOuaXegfsDrRCHcpshg8fTfqpVm/SlS0xAGm9ZFlK9gs2ChceygWwd3m4yovVY3UQjnmJVZFWc1izFUbkgtQ7hXNjRaF8nhkHc2W0uULJMshMn7cSXTxzvfo/Nc3d4a84IQznFEqNSMSj9uOU0Io9UvFpsmEXTapiAIjSiEXXVQ643chVUWBCGc44hwUa5cpSma9SwhDFa/mC83RWZj72Tny9ysZPDY81yKvbLVfTNfcVOItTexzNKMNiWmUAz9SUK4mf1i5a3cmbVN5VlESQh75mQSP1v38pX6izjtOcJsYFqvccmncDlHCL3dRxebzb1DpnFrrBzC5INrhFGKFoV+awnhFN3oYnOd2TqoIY1Dk6L1i/lSkQ12k3g7Y2+1Ieyak9kfQeHREqWVFmd9osVqVbH8mBlSwxAGw+OHwvaycwuu2iSeLy9XKYS+a05mvyd29nvNeLNogm0LYeeTYXLTM+sJQrgXhFFfe2feQm9rib2zQr7veHD/E4L9thAnPSRcDY/c1hGl0DCEzvIXy3/taHnsUj7WzYewuxfdPeQNvlvpSDtOeki4WOYkUwuXE4TQ9BfLz35G02OXvhAqZHD3UiQFO1+qFMIJDglX25Ss9g2pXQhtg5A/MAumxy7F0x+5EMbu40Htdx5n+flDuBj3i6t5KbQLoeHcSPHALAy+U1kewvRD9X3XbsBKzK/zCa5ZW83Ppy/Wd9mPDKHxczNibiPVPHaJpenRdAjT71CqahM2QliOiNrsZfqs/UII0zkbHsIoC2HuxaM1DfM0ITz+DIUfcElLutjOHkLbIGRDmC+TxlU4E8L8a20rVs+wDH76UlOGcBlxcedqW23PGsLs6erxIQySEPpNXnVqJ57/1RD6MffdLqbl1iyEO3v9aBvCv+e0do68/PEhLGVQfoBFCIs1ahmUdT93CLeZQrgdH0JfPpBz7T/avxrCZdAzek3HOW0Iw3EhvJRu0dgLoZdMpkRCqFOhFvWBFsOBvlEIbzOH0IlO7W2eEKp0o/pfazEciRAqTwpdui5ocYRQIxrLuLivhPC7hVA2gzwwhHOfJ0w1ieu4oRZCeJpjQinRhTOEMF+eTF7madj5Mjs6VwhFa39gCP0ZQ2jzKk+7qvuPnCc8/BTFbtVrbUj3bpeMNi4zhzDVIvqTJX7kFTPGIZz6ipm9tMXWhtQfc0vRWUK4XEaGcDlXCAMh/PwnrvFKbkJ4QDearLv/bgjzF3DbVuFiBoIsg6mLaMrriRDmQujPNhy3Mqmss+oQhsTBqyxRN9su49whXAaHcP13Q3g71029ia8T2hrSjRCm5ysXq+H8+UIYv+3jLVqeMZOKzNZ0nsIdkoaThHA1G+9bhND0QU+bl/6vvbbeEH5450tbQ0oIMzMl6+DQLxOH0Jv2TPkgmO4Amp47mlwNoeVKbsuHm58+hH50CP3EIbR8+G8hCKY7gPKThUPF5aG+pSGNh0yPThdCy+e+jJwIGvsuCsNu9POD5i37tfLLZkLNJdqx4TxFPGRmZrYQrmPnZU4ZQsvddell2JZvZSq+VjobwiAJdbF/Nn3FACGsKr1nC6Haqw9Lr0YzfBmF4EXcQTQnk0t1aV0505knQljV/84cwsvNbEspfmu/jeyynTiEQbg0pb1GuB3QjxLCE4bQmfWE5U92VvOjXrBUofKW3fqG9JA8EMIThtDuNqlby2FZsFqoTRrCUNFd57dw7w6YHyWEJwzh3ralsqUIOsJYzqlaIXSyypbZC9Q3pEf0o4TwhCG8OJsP3wt3EIQl2GyIXz83aBzj5RvSuI2fmiGEZwyh0QvtgqTKBZtpISf52FB94s9X31roxpdCQnjGEF5uFp++Vwg30XFjMNmtOFEIQ/1hbvavgmQlVO9iAiGsDuEyeQiDQSncLRpBVCr6y/Am6hlbDthC+WlnpX60eycTbrcteEJYOeDkIdwrWr2/WxRe7xwNyrDwM1tCWNuQeqfeb7/+WukYcu3oKUN4cepN4e50fuj5h51jR6Wpy9prSPV3Mu8/ViqG3EVxzhDG1ufbVsV6/xPDTblW7BarvU9sO39Q2ZCq72Q+/FZbiOcNIfcTtmemPdW3xJ57u+luNeJJz7YQJhrS5H4j6K7az5V4rxpyZ/3p7qzPNFnt9SjWbKbxplorQvER1X0hTDWkrqYUNl+R8HUX4OI5Q8gzZmS799Yh9re7oPKvm/K//2mtl7NUNqSuoisortm9Ux5h8hDytLWubdcpZjBdV+NNL4WxYuzma8q2qgtnNHcyklb7X3/u6HK+547md+9OLYO5rc6ppbBq7rI5hIlrSF3Vqm2phUGyh+EJ3Kd7AnfrfENtDraG6HidPUlqVbVfXV136bdvfY6+oBfdaYN5F8Xp3kVR2rBqU5gIVP4qmOr7GRIfU9cntofQ1w1UWTkrmxV/0hDyVibxfvbLcX/ThxS27kStqJvKT31IcuyO+4wqby00XLyvO8nzvCR0ZOLPEcLUhpW9TvH+a6ZyUKqn0XBsd9EPYWXt1li8TToib+o925t6BV2TuBj6RDso2eUnHzXhonDsW/XYXXfcJhbVWy1eYjx3gpP1lm/PlRbCqd9ZL9tUblv07TEQ3RaR/mvBdpqOf27srhCm5p/80MUTXhI/aQgN+tFUIVxPE8LkUVV5W/Ex97cdzbCgacuOnfnbvmdPqMyQinrSzOKd4dpR42iI4q4yCTQmhNkUZjYWH7MPs5ZtApkU5ipxYWy7BxKm1lVsWDyXbjRyRV78aMajQ5hsEv2gtKvU3L2HhwUNd79+dlO5bW4vh9Fl/0i8BcRb9di+a+zOpzBVNqS+sHh7OfQhu3zhcpIQJgvUeqZx8htohy+XW2zFv3AhxDchuOK/d90TgB8+q3bs2oYyKPwornXx3tes92/LV/j34XKaEJpWqA87rWfDbnRcCAVJePmrV6IBovJS1oztTUNY2ZBKXs/9Z/EEy+f8eUJ4eR5RClNdr1LWx4VQlsKOz++rhTVKm173Q0F95TKrLp47y+Mtsn2iagpX20EGhjA3GVe/pVTevaq5mRa3vP4n89Zebqe4eK7mppTjQ5jMh+LcTHIMpefZjAxhfo5UNweGewDXEqHKEFZeQ6qYwhM9ba1QCtUOC5MHhFrVdmgIhUcvgi2lZVXqjL21PS2m9htXp1BpBxcrT2cdH8J0mfLWMT9pCFVSuLXdt6qSQtF0kMaLIkJtGVZJ4ake/lvMiDdOuVatHR3CwglDm1ZUr2eTja3ythZXHZNovHSThjATEm/68WpzP8ND2FuQttCxZnuLYWyuYvUhTJ2D92Y7meJVbnOGMFMKFVI4IIMHhLAvCqH3+d1uQPx13lsWGspVRwzL882zhjCTk8Xys/2ZQ3jxraMK7rkoF8Otdeye+DSEsPaUfd+RoWAPM2sIM6WwNymZDCqeiDwkhI1RcEovvDYfW+kNnk0P9Giq9bIiP20Ic1HpSqHZB08RQsEl0qILkVtj6Cq30bqxtV6j29KQ/r79Y6tdvNZtZY4Q5krh87KaZFDzipzDQlgXQ+l2Io5hRb2oH1vtXdb1M6Rvv2pFDOWHuvOG0C8Gccl/qOYV4geG8CK4W+m9CFr8cMKxdZ7i2Xhqs6khrVizVXPN84YwX7PaUpjPoOqlqQeH8GWn7RpuNVRa+NLYoa0FVgthY0P6p+neVLvsiUN4ySemviX1+Vjr3qRxeAjfjmLc13tsts2FaP4j++DUx9YLYXND+rfc7y+da+jvZw5hoW7Vdo+r7scVt0ErlT+Pf7njNITg3MsNtuHlDtRhP/Dvm10Vx447DxpQ/n0a1uzbF2lfOt/3PY5sSF9ql1eLoN07Z4AzKwVH3JP64icZvgIRODFBdgTV0K+Sj2FtA60pXJZcDv0qiSDNKJDM0LPEsqxrRwLJINCdwvck+r+k+SODQMH6XGN5U/VHHBACiilsQR0Ejk0hdRA4NIUcDwIHp5A6CByaQuogIE3hQgaBY/mFDALfrSVdOBwEDm1JKYPAsS0pZRA4tCWlDAKtxVClJ+VoEDi0J11WyiDQ15MudKLAaXvShU4UOLQaEkHgyBySQODItpTZGMAoh6InWZBAwLYervnXqJFAYEwS108PeHr5j5X8AYOT+BkrBAAAAAAAAAAAAAAAAAAAAAAAAAAAAAAAAAAAAAAAAAAAAAAAAAAAAAAAAAAAAAAAAAAAAAAAAAAAAAAAAAAAAAAAAAAAAAAAAAAAAAAAAAAAAAAAAAAAAAAAAAAAAAAAAAAAAAAAAAAAAAAAAAAAAAAAAAAAAAAAAAAAAAAAAAAAAAAAAAAAAAAAAAAAAAAAAAAAAAAAAAAAAAAAAAAAAAAAAAAAAAAAAAAAAAAAAAAAAAAAAAAAAAAAAAAAAAAAAMAw/wMrXNX8bbI0IwAAAABJRU5ErkJggg==;" parent="1" vertex="1">
          <mxGeometry x="1207.5" y="119.99999999999997" width="170" height="97.08" as="geometry" />
        </mxCell>
        <mxCell id="6P_Zupyn003xEf8hD23l-34" style="edgeStyle=orthogonalEdgeStyle;rounded=0;orthogonalLoop=1;jettySize=auto;html=1;entryX=0.5;entryY=0;entryDx=0;entryDy=0;" edge="1" parent="1" source="ppfQhNkfrTPM0ce_duGg-25" target="ppfQhNkfrTPM0ce_duGg-26">
          <mxGeometry relative="1" as="geometry" />
        </mxCell>
        <mxCell id="ppfQhNkfrTPM0ce_duGg-25" value="raw table" style="shape=image;verticalLabelPosition=bottom;labelBackgroundColor=default;verticalAlign=top;aspect=fixed;imageAspect=0;image=https://cdn-icons-png.flaticon.com/512/5958/5958912.png;" parent="1" vertex="1">
          <mxGeometry x="910" y="103.99999999999999" width="72" height="72" as="geometry" />
        </mxCell>
        <mxCell id="6P_Zupyn003xEf8hD23l-35" style="edgeStyle=orthogonalEdgeStyle;rounded=0;orthogonalLoop=1;jettySize=auto;html=1;exitX=0.5;exitY=1;exitDx=0;exitDy=0;" edge="1" parent="1" source="ppfQhNkfrTPM0ce_duGg-26" target="ppfQhNkfrTPM0ce_duGg-27">
          <mxGeometry relative="1" as="geometry" />
        </mxCell>
        <mxCell id="ppfQhNkfrTPM0ce_duGg-26" value="trusted table" style="shape=image;verticalLabelPosition=bottom;labelBackgroundColor=default;verticalAlign=top;aspect=fixed;imageAspect=0;image=https://cdn-icons-png.flaticon.com/512/5958/5958912.png;" parent="1" vertex="1">
          <mxGeometry x="910" y="307" width="72" height="72" as="geometry" />
        </mxCell>
        <mxCell id="6P_Zupyn003xEf8hD23l-93" style="edgeStyle=orthogonalEdgeStyle;rounded=0;orthogonalLoop=1;jettySize=auto;html=1;" edge="1" parent="1" source="ppfQhNkfrTPM0ce_duGg-27">
          <mxGeometry relative="1" as="geometry">
            <mxPoint x="1120" y="548.9999999999998" as="targetPoint" />
          </mxGeometry>
        </mxCell>
        <mxCell id="ppfQhNkfrTPM0ce_duGg-27" value="refined table" style="shape=image;verticalLabelPosition=bottom;labelBackgroundColor=default;verticalAlign=top;aspect=fixed;imageAspect=0;image=https://cdn-icons-png.flaticon.com/512/5958/5958912.png;" parent="1" vertex="1">
          <mxGeometry x="910" y="513" width="72" height="72" as="geometry" />
        </mxCell>
        <mxCell id="6P_Zupyn003xEf8hD23l-2" value="" style="group" vertex="1" connectable="0" parent="1">
          <mxGeometry x="560.14" y="689.35" width="590" height="140" as="geometry" />
        </mxCell>
        <mxCell id="ppfQhNkfrTPM0ce_duGg-23" value="" style="rounded=0;whiteSpace=wrap;html=1;fillColor=#dae8fc;strokeColor=#6c8ebf;" parent="6P_Zupyn003xEf8hD23l-2" vertex="1">
          <mxGeometry width="590" height="140" as="geometry" />
        </mxCell>
        <mxCell id="ppfQhNkfrTPM0ce_duGg-28" value="&lt;b&gt;&lt;font style=&quot;font-size: 17px;&quot;&gt;GovernanÃ§a e monitoramento&lt;/font&gt;&lt;/b&gt;" style="text;html=1;align=left;verticalAlign=middle;whiteSpace=wrap;rounded=0;" parent="6P_Zupyn003xEf8hD23l-2" vertex="1">
          <mxGeometry x="22.08" y="10" width="280" height="30" as="geometry" />
        </mxCell>
        <mxCell id="ppfQhNkfrTPM0ce_duGg-29" value="&lt;ul&gt;&lt;li&gt;Cloud Monitoring e Cloud Logging&lt;/li&gt;&lt;li&gt;Projetos dedicados a dados sensÃ­veis&lt;/li&gt;&lt;li&gt;Cloud Data Catalog&lt;/li&gt;&lt;li&gt;Uso de service accounts&lt;/li&gt;&lt;li&gt;Cloud IAM&lt;/li&gt;&lt;/ul&gt;" style="text;html=1;whiteSpace=wrap;overflow=hidden;rounded=0;" parent="6P_Zupyn003xEf8hD23l-2" vertex="1">
          <mxGeometry x="22.08" y="30" width="350" height="95" as="geometry" />
        </mxCell>
        <mxCell id="6P_Zupyn003xEf8hD23l-50" value="" style="endArrow=classic;html=1;rounded=0;entryX=0.367;entryY=0.127;entryDx=0;entryDy=0;entryPerimeter=0;" edge="1" parent="1">
          <mxGeometry width="50" height="50" relative="1" as="geometry">
            <mxPoint x="232" y="118" as="sourcePoint" />
            <mxPoint x="419.65999999999985" y="118.0100000000001" as="targetPoint" />
          </mxGeometry>
        </mxCell>
        <mxCell id="6P_Zupyn003xEf8hD23l-51" value="" style="endArrow=none;dashed=1;html=1;rounded=0;entryX=0.134;entryY=0.78;entryDx=0;entryDy=0;entryPerimeter=0;" edge="1" parent="1" target="6P_Zupyn003xEf8hD23l-90">
          <mxGeometry width="50" height="50" relative="1" as="geometry">
            <mxPoint x="224" y="80" as="sourcePoint" />
            <mxPoint x="224" y="640" as="targetPoint" />
          </mxGeometry>
        </mxCell>
        <mxCell id="6P_Zupyn003xEf8hD23l-53" value="" style="group" vertex="1" connectable="0" parent="1">
          <mxGeometry x="346" y="170.48" width="289.99999999999994" height="125.73000000000002" as="geometry" />
        </mxCell>
        <mxCell id="6P_Zupyn003xEf8hD23l-5" value="" style="rounded=1;whiteSpace=wrap;html=1;" vertex="1" parent="6P_Zupyn003xEf8hD23l-53">
          <mxGeometry x="-1" y="26" width="290" height="95.73" as="geometry" />
        </mxCell>
        <mxCell id="ppfQhNkfrTPM0ce_duGg-15" value="Dataproc" style="shape=image;verticalLabelPosition=bottom;labelBackgroundColor=default;verticalAlign=top;aspect=fixed;imageAspect=0;image=https://miro.medium.com/v2/resize:fit:310/1*PFhkWXXBd4P7bYVdJhtqXA.png;" parent="6P_Zupyn003xEf8hD23l-53" vertex="1">
          <mxGeometry x="27.79000000000002" y="43.08000000000001" width="47.61" height="41.46" as="geometry" />
        </mxCell>
        <mxCell id="6P_Zupyn003xEf8hD23l-9" value="Batch" style="text;html=1;align=center;verticalAlign=middle;whiteSpace=wrap;rounded=0;" vertex="1" parent="6P_Zupyn003xEf8hD23l-53">
          <mxGeometry y="-2" width="60" height="30" as="geometry" />
        </mxCell>
        <mxCell id="6P_Zupyn003xEf8hD23l-11" value="Dataflow" style="shape=image;verticalLabelPosition=bottom;labelBackgroundColor=default;verticalAlign=top;aspect=fixed;imageAspect=0;image=https://codelabs.developers.google.com/static/codelabs/cloud-dataflow-starter/img/62b0919755804bea.png;" vertex="1" parent="6P_Zupyn003xEf8hD23l-53">
          <mxGeometry x="210" y="41.08000000000001" width="48" height="48" as="geometry" />
        </mxCell>
        <mxCell id="6P_Zupyn003xEf8hD23l-54" value="" style="group" vertex="1" connectable="0" parent="1">
          <mxGeometry x="340" y="304" width="910" height="385.35" as="geometry" />
        </mxCell>
        <mxCell id="6P_Zupyn003xEf8hD23l-7" value="&lt;span style=&quot;color: rgba(0, 0, 0, 0); font-family: monospace; font-size: 0px; text-align: start; text-wrap: nowrap;&quot;&gt;%3CmxGraphModel%3E%3Croot%3E%3CmxCell%20id%3D%220%22%2F%3E%3CmxCell%20id%3D%221%22%20parent%3D%220%22%2F%3E%3CmxCell%20id%3D%222%22%20value%3D%22Pub%2FSub%22%20style%3D%22shape%3Dimage%3BverticalLabelPosition%3Dbottom%3BlabelBackgroundColor%3Ddefault%3BverticalAlign%3Dtop%3Baspect%3Dfixed%3BimageAspect%3D0%3Bimage%3Ddata%3Aimage%2Fpng%2CiVBORw0KGgoAAAANSUhEUgAAAO4AAADUCAMAAACs0e%2FbAAAA4VBMVEX%2F%2F%2F9EhvlEhvhEhvdDh%2FxAe99EhfVDh%2FtEhfRFhfNAe91Ae95EhvpEhvZGg%2BtFhfI%2FfOTs8v88fumkvvM0gf2XsOHk7P1jkeg4ddkyffXt7e36%2FP86gfb%2F%2F%2FxGhOvw9f4rct8udOO2yvP08u61y%2FrX4vh9oukrcNkrffxjmPvV4v6Wt%2Ft9qPpSjvlpm%2Fiyx%2FPC1ftrl%2BmXtO6IrfaMrOtTh%2BHa4Oqkwf7C1f5nm%2F2yy%2F52pPzL2%2F2Kr%2FwmceSRtPl3n%2Bmsv%2BfL1ezQ2eu8yudok%2BCnvOWDo%2BFYjuxaidxmlu2rT3AHAAAQdElEQVR4nO2di3bauBaGMWACBIK5lFhFg00aYkJCLjQ0mZa06UynzfT9H%2Bj4jmxv2bIk25m1zl9WcCQh6%2FOWtaVtkdZq%2F1dezYxh0TJmVUN6Gp4%2Fb5qTEtS8eVxXDft0ubIbUpImq8nVtELY8%2BaqLNSQ%2BNqoCHa6KRvWA%2F5cCe1TFbCOVl8qoH2sitY28GXpw3SFtDbvpmTeynqyz%2FtnqbTT0pwPjfeqTNxNxbT2eFXilONz1ca11SiNdvYGaJuTx7Jwn98CbnNS0vRqWu2oHGjyXA7un7hqUk%2BrZRm0e6pxjySysNR1WQZu322L8zqKvJpHUAacSuTBqUwZq6fiaR8nR29FzaPCaY1Js2rKg4p3Rte4akZCzcmwWNrlqnnkm5e0cjN2AOQ1k9lgUjP6aUqe%2F4YLXvpeYriZ4TF4EVKT4OwmW%2FFip85Pq%2FTzl67mpkjc9MstcxBjrWtyXhztI3LunyZ5%2BzaPDkm%2BZyQ6e7x4mEgkRT8RJDXJ2unFm01cWGDDWBFOvhl%2F5cyApyKZc5RE7ZNvReFe42bP%2Bef%2BaDbJt15TafYUP08B8vxjhajhqOl9KiiqOEmKn60QNRzyyOLB26qgSPt65V1Pt7HutXVb7Fx098R2hpPnX%2FeeP%2FP189yyR%2F4H%2FSQ31fvEUeQTDnGi9vCEseJFOaNNr0Qp7EVX%2ByJozyfFwYmpCGc0w37ladcdyMswU9on2GpTepMCHqN8Q%2BntrlLy4zjTN9uVbWHpcZwbnH3W6iQ7jrNfVU2UKiw5jlOqE%2BLQ5E4m7Zi8c5XIG3GsxIukF48onp2zeK8ukdbAObx%2BNUIS4zjPWClbvbwfQNKc0XRVBJBk4WtZuH%2FmvtRVSJYzuptUTcKkniRn1PhPGFdR5MRxHlHVHIzq9STEcYz%2FRld2hCRs2LiW7oR6aDJZTSZIvndbCT9UWMs2bm%2ByeVxPjeHy6RohyaOCeBxnI7lF6IbwF49YsoVF4zjnecapemaJ3iT6SNa4odWfXRdYv1gcZ9ZT6rCAdCUzT8GJqcA1Yqxfyaja%2BwUJxXGuMO0kLC1MCAEPsG7w4aNpNSiU42iSggSc0ZBy6TkFrlpmrZ7Mc%2BCP%2FLhfsMyWKPBGt1vE1nkYNeF%2BqLBfyWxHHVF2jpy0ZPLiG17cjdRuVqfdVtuFVN4JpzP6LPfOpc4BlouRTF6lz0U7w1LvqTqmhVdmX0eaTF6%2BOM5HqeOUjUtdn2mj0agl70RccZyp3HGKPlLVanMbd9SWZ1%2BeOM6Nb9wGUQ9wHE%2BiF6Fb16HVRu3IJxqsJ4zJTcofx7lD9YaruvejnjwGktKKp9y7mjbSNK3tF20Eb0BtbElK7jhOJzylLCk0h7heaJ5a0s5Jv3FgPSJZZybaQBlBHgLckTTeer5vKhhIunEbtN48W4w0TbZ9ca44zjWWdFpSlGnVdqFp8nlRjjjOsgjj2pccchBTwrjeeCXnXDniOJeKnHPGhcaJU820CK08%2B0Jra1hPBYxTfhviwQbjNUYrzb4KcxxHKaQrO6qj6Op7PUrQ2rxyzoUYHypcFTFOBcL4YODp%2FVeAVhZvnW1z6BA1%2Bn37dVAj%2BoIznF%2FrGCGE66nFG4c9jK8LCNbldYtjuzqMG1mnpWVgps2hX3AC0H%2FBSWEGRpfjp%2F3T4wYpRGqseKOPQtxT0LY%2BbwPh5%2FP9%2FvxZQY3U0yZOEGTUEUMcZ436XGqg66D25U1aHSy4WhsrYaf%2FrCh8TaJOWwlt6py05DR1jOL9LCfu4pWYcRo3mI8XZcZxPqNYd%2BnT%2BxHRmxoouuZ6QtQPseCOTqOtusHwadP7db%2FeyaCdKXSzpF7HuEP9RjMIG25sUJ1hvj4HzGvirfQHtsPA14gkNaCkesKnzxaNRHHvjQF3cRuv7hbRT%2B43EmwiTo3jTFHDH9%2Bir%2BjYl8xDyU1r40Vw%2BmhZJusmWzZv9eEmpTc0fXPojeKN5Z6jDt%2F6ZFI%2F8OOHbOgi2lP%2FxEddEbg04z4kW%2FYwaveJE8YrpTYXpcRx9pyT5ToULFloI7AwA%2B5Zsrazhdbug%2FWlKy2Os2lx4kKrrbkG8zLgAv7DifBw8dLjOGPs4vY9aO%2B4cUgij%2F18P6kOLWRfNZc3UZwBF1i7uQGtTj%2BtPf1EkpdMoTVQi1dwZ3Z4%2B4myDLjAbt07t7p2srpM0SKgz5gbF1h8TL9qMG827ggYqrbeKM7DC8dxlvzGbQGztVt%2FuTNq5MbV1GTr5n4WBy%2F8UOGyzo9bT07GD7aKNZABN9mb78K1Yic%2FLxTHeRIwrl1jvIHjw1o2xsuAq81pxuWzLxDHEYGNQLjakyv3KC8L7ug%2B2rh7cv6V377JOM4j%2FzjlCZO379nXaOsPDayjTjhyXCxMane%2BJwa%2F2X007JGfNz6UDoW6siv0ENRpXMSjMiEvuiTvI2O7oE2bR%2FPw9tjP44Vy88bjONcC41RY5%2BLlbD1d394DDB4vbsVvceOFFq%2FSFvPtfrncb%2BdAiU47X9Pa0XttLW5cRyNzYQu2lt1AfAMsx86ovJrpVAf397y8UdexabXb7Zb78hQeHI6B7FhSq0VtuWNfykP15deUT1HVYWgPmUTODM5RrET0OFEBPYnePnVEe2qzpts3RYPEyVupTSSc0YDMF1KafalR7jEPrzrI17LDyugJyaJ1eFW4edCqLtCOA9fmzWWkwzLmUppxU3jv6bS1JVd3zmnfYCo5lGhcKi%2B0hhU0b077Br73HEvFhXm7abS1M%2Br0Sh5vMFg91%2BXiQrzmNhXX4OrNOfuzvxVmI%2FPW9ZTgNTMeX%2FD15ny83s07a8nHTdjXzHgY98KJm4fX27ZnJG7dDvEzkpQhslCM18zYlbnlu3ltXG0QOXtKQ72glYE7nTbxctSGXnAGpbjDaxOrqv%2FKeJI%2BNjW3OPEJLf6CM1xesj1g252MA658efZVfSOrZgbu1lS1gCAwmxbWAOSRSYM2U5M83FmLrXRuYK8tXpPNjF1dDwEhCRalUokiZGGVldffFcJ4cbh4g6anzzLCOI4ahSN%2Bj12MSLbKxou9xfaXVjG4BK%2B5yxiZ7XuX5MjXmRn7s7%2FEfyzk5nUVtCrxvDah4QvXsjcUAy%2FyzrRGheG661%2FzgWmD03JHOiPKukqAtxVEF3BBN68jbXHP%2FLWtM80MxyMSF0AHkrJ4cbDgvSqsN7fxIM%2BXmGYPIj06nbcdBl%2BH8nqzM685COOMrSAJDe8jPVrN1akHaS0jNnR%2FhMbmQeQtmZFExRi1Bxhhv7Y2%2BsjxhZ69dwvbmJa5UFXTtFhp1TTeNrGfwp42uxAD5zXoHI4PgGQ2kGS%2FcOtqP3P%2Bo627a4zt39El53ctb12ntNiNp05103HIT84sSD91SPKaFCXwfo%2Fs1h%2FjgaBaLaLfGt9s4MRTPOMC8kfGfeLunj2Y5imxhWR9aqqMstlAddqRMwzaYrT4Mtpvp8lH5mPHJSVS16pmJsfuZezC3H7VxHhRdHfLHRKjzdz5v%2B%2FaXVS11OhphxeO3Rg8817Mvu34boqblgBt%2BzWjtdN70zeP2R0HtjT2L36qbfesedetEG9id9VUwLydjK9U2vfioS%2FaA656evHw8LIzyVRzl%2BGgL1i7M8DbSj6u%2Bcg%2FWlG%2F3ecbxtJiTQ3dKpkG3MKkDJObtwNs6pu1KINapjrttDtvvWNtZ8Yt%2FMCMG%2BcFJzufec3bTvm67PCF%2BZ5z%2Bnna0mmZo6YIb2cA1rfhdEaY%2BjcaZ1tmB%2BLL7NLjAMc56jkheCl71vcpoxXQ0cMk6jccpra58tE6wMAeMk%2F3eSo7OXQ%2B2jcSvrRCCvKnMwuLJLmzsjC%2Fg2lxqHWs%2BzE1V3uh4cbG5vjwl%2BR129qhWmPI54xatAFmmuNuOzSbat0cY5Wjkd86%2BreJrrhGK2brsuG%2B0Fr3kvPO8Ppziz4nmHH5ouRfZfJ1xoOrnlJqq53mHQgc%2B%2BK0v%2Bh0xmNe6hqefSJEivZ8xch%2F8UaDTvr3PF857Esd%2BiweWtWk%2BLU7jr4yyvji1JJntKL05js%2BXI3Sm0956krbIuHommOu0f4NVtXlorXNC1qEfQlIVvUpA9fgunuBr4bUtnzGtdUFPNuM5%2BJZVKcWiiuOA3xbh%2BdW8wV151xTqrCi95m4NVq4J1Wd%2BFSXzwn5sl7ijXrh6Srm92xazjgOiq5ltiK0qqpHH6FNdzpPLbs%2FGHBrN3yTjV3oQIxblfu%2BDWQ%2BhMDTC75rZ%2F7FQssbx%2BmY3Yvbu%2F3Z%2BN7KgrVMJ1quqsCSLkzSze6DXd3tw85MMe0x5Vh1ZqNMxnUeKnDxDjTdskwrs9%2BZu9u%2Flsu7Cz3rquj2ZcmujnqaLCcUdkbeuIbGsAK3woD5bCzc5dPO846RVuChQjZvZPvclHcmwqBjBicUaMOJm8kbiydzTR6YZP5gp02N44jw6i%2BxE3FFAFj0L%2BM45ek3bxQ2nTe53%2BiCeyhKlfl3HlqRhwopvPpF4kTDQsyr%2F8pl3Frtiv%2BZEZ3XAtY6O7honigrgMvqhALNuGkHA%2FX42H45P1T%2Fh%2FfbMRSo%2BKXHS3nHcA0qWeRw7BcOkqx3OY3r7GHn59WOYenAym6sUwrzS%2B1%2ByEtbq72K2LcLNqMk3FxOKNBa5Ak3bF9KZ5Ys%2FZ%2FcXdnRtcgTbtC%2B8FAlG9fKO055GgrtT4F4QUckmza3Ewr0KGJekBeaZkimVfUck%2BWoRGhBXv2f2BmW0o1r%2FeQ0bq12J7bdCuC1ot8nMlTZd66643BCgX4HLT8hKE5oSSfxIi6vz%2By%2FWb%2BI6pd6SEtemS7we0xAtvfGGLGBxfVQId2%2BerjFxthadCuBjjtV7ic4nVCgj6MTATnzyW5cqqX%2Fut2fbf%2B19ETeQcnPMYnTCQUy8CDBQDkGf7ftC6DoumXpKg3rOHGQehXIJI7JclRjLGJeGxjiLUrHXW4nFGieMG9OlchrfRc0bq22FzRvifZV%2FxVwQoF%2BC41WZfJafwsbt1abipq3LF7uyXJU30TNWw7vce6IDazZSHS0KoVXF3VCgc6Fu3MpvBLGKU%2FCzuikeH9k%2FZBkXOev0ojjFsyr%2FyPNuLXai%2FBoVTSvFCcUaCjDvEXySnJCgbYyzFsgL3%2FEBpYU3MJ4BSI2sJ6kdOeCeI93ko3r%2FKnst8sr0QkFWsoxbxG8xzKdUCCxOE6RvIIRG1iGJFzpvPq7Aoxbq41l8XKG3aiSPk55mkvClctrfS%2FEuM6f5X2LvDIiNrCE4zgF8Foijw3SNZVmXmm8%2BkVhxpURx5HNKyliA0uaM5LFW5ATCnT%2B1ngLckKBpDkjKbzWj0KNKymOI423iMlyVNcSu7Mor5VvoyeP5MRxpPDqvwo3rqw4jgxe2REbUDOpuAK8%2Bs8SjFurnb0RXvkRG1iS4jiCvIU7oUCy4jhCvFIfG6RLykMFQV7rU2m4MqfOrjiMW%2BxkOaozyd05P29Z45Sni4rtq5fXlV1Bo7PI8mGei7a0UTnQ7HXk882Dt5P5PPzNP5gHb4fLcSgefMpPyEP7%2FUOpfdnR%2FWguV%2Bw9%2Ba%2FyaZ3%2FeeWkCl79308f3pfcl11NTyUDs8BaPz%2B8f1%2BBcR3d%2FV6MZBJnserdd58cWqY%2F%2BFyEptvXxUie9BRZ3Ysf7x3YqozrabY8ux3L0juafv749MFjrZZWsv6gquqW%2FQf1P8IyctylYwhvAAAAAElFTkSuQmCC%3B%22%20vertex%3D%221%22%20parent%3D%221%22%3E%3CmxGeometry%20x%3D%22297.09%22%20y%3D%22510%22%20width%3D%2267.36%22%20height%3D%2260%22%20as%3D%22geometry%22%2F%3E%3C%2FmxCell%3E%3C%2Froot%3E%3C%2FmxGraphModel%3E&lt;/span&gt;" style="rounded=1;whiteSpace=wrap;html=1;" vertex="1" parent="6P_Zupyn003xEf8hD23l-54">
          <mxGeometry y="27" width="290" height="217.57" as="geometry" />
        </mxCell>
        <mxCell id="6P_Zupyn003xEf8hD23l-12" value="Streaming" style="text;html=1;align=center;verticalAlign=middle;whiteSpace=wrap;rounded=0;" vertex="1" parent="6P_Zupyn003xEf8hD23l-54">
          <mxGeometry x="10" y="-2" width="60" height="30" as="geometry" />
        </mxCell>
        <mxCell id="6P_Zupyn003xEf8hD23l-14" value="Dataflow" style="shape=image;verticalLabelPosition=bottom;labelBackgroundColor=default;verticalAlign=top;aspect=fixed;imageAspect=0;image=https://codelabs.developers.google.com/static/codelabs/cloud-dataflow-starter/img/62b0919755804bea.png;" vertex="1" parent="6P_Zupyn003xEf8hD23l-54">
          <mxGeometry x="116" y="58.56999999999999" width="48" height="48" as="geometry" />
        </mxCell>
        <mxCell id="6P_Zupyn003xEf8hD23l-15" value="Datastream" style="shape=image;verticalLabelPosition=bottom;labelBackgroundColor=default;verticalAlign=top;aspect=fixed;imageAspect=0;image=https://www.svgrepo.com/show/375422/datastream.svg;" vertex="1" parent="6P_Zupyn003xEf8hD23l-54">
          <mxGeometry x="26.090000000000032" y="55.56999999999999" width="51" height="51" as="geometry" />
        </mxCell>
        <mxCell id="6P_Zupyn003xEf8hD23l-16" value="DataprocÂ &#xa;(Spark Streaming)&#xa;" style="shape=image;verticalLabelPosition=bottom;labelBackgroundColor=default;verticalAlign=top;aspect=fixed;imageAspect=0;image=https://miro.medium.com/v2/resize:fit:310/1*PFhkWXXBd4P7bYVdJhtqXA.png;" vertex="1" parent="6P_Zupyn003xEf8hD23l-54">
          <mxGeometry x="210.00000000000006" y="56.56999999999999" width="47.61" height="41.46" as="geometry" />
        </mxCell>
        <mxCell id="6P_Zupyn003xEf8hD23l-23" value="GKE" style="shape=image;verticalLabelPosition=bottom;labelBackgroundColor=default;verticalAlign=top;aspect=fixed;imageAspect=0;image=https://static-00.iconduck.com/assets.00/google-gke-icon-512x457-q6s0e3iu.png;" vertex="1" parent="6P_Zupyn003xEf8hD23l-54">
          <mxGeometry x="194" y="161.41000000000003" width="57.89" height="51.67" as="geometry" />
        </mxCell>
        <mxCell id="6P_Zupyn003xEf8hD23l-24" value="" style="shape=image;verticalLabelPosition=bottom;labelBackgroundColor=default;verticalAlign=top;aspect=fixed;imageAspect=0;image=https://miro.medium.com/v2/resize:fit:724/1*-Yxrt1a7RPMzPrYHul1npw.jpeg;" vertex="1" parent="6P_Zupyn003xEf8hD23l-54">
          <mxGeometry x="17.129999999999995" y="161.41000000000003" width="134.98" height="55" as="geometry" />
        </mxCell>
        <mxCell id="6P_Zupyn003xEf8hD23l-25" value="&lt;font style=&quot;font-size: 23px;&quot;&gt;+&lt;/font&gt;" style="text;html=1;align=center;verticalAlign=middle;whiteSpace=wrap;rounded=0;" vertex="1" parent="6P_Zupyn003xEf8hD23l-54">
          <mxGeometry x="134" y="175.57999999999998" width="60" height="30" as="geometry" />
        </mxCell>
        <mxCell id="ppfQhNkfrTPM0ce_duGg-13" value="Pub/Sub" style="shape=image;verticalLabelPosition=bottom;labelBackgroundColor=default;verticalAlign=top;aspect=fixed;imageAspect=0;image=data:image/png,iVBORw0KGgoAAAANSUhEUgAAAO4AAADUCAMAAACs0e/bAAAA4VBMVEX///9EhvlEhvhEhvdDh/xAe99EhfVDh/tEhfRFhfNAe91Ae95EhvpEhvZGg+tFhfI/fOTs8v88fumkvvM0gf2XsOHk7P1jkeg4ddkyffXt7e36/P86gfb///xGhOvw9f4rct8udOO2yvP08u61y/rX4vh9oukrcNkrffxjmPvV4v6Wt/t9qPpSjvlpm/iyx/PC1ftrl+mXtO6IrfaMrOtTh+Ha4Oqkwf7C1f5nm/2yy/52pPzL2/2Kr/wmceSRtPl3n+msv+fL1ezQ2eu8yudok+CnvOWDo+FYjuxaidxmlu2rT3AHAAAQdElEQVR4nO2di3bauBaGMWACBIK5lFhFg00aYkJCLjQ0mZa06UynzfT9H+j4jmxv2bIk25m1zl9WcCQh6/OWtaVtkdZq/1dezYxh0TJmVUN6Gp4/b5qTEtS8eVxXDft0ubIbUpImq8nVtELY8+aqLNSQ+NqoCHa6KRvWA/5cCe1TFbCOVl8qoH2sitY28GXpw3SFtDbvpmTeynqyz/tnqbTT0pwPjfeqTNxNxbT2eFXilONz1ca11SiNdvYGaJuTx7Jwn98CbnNS0vRqWu2oHGjyXA7un7hqUk+rZRm0e6pxjySysNR1WQZu322L8zqKvJpHUAacSuTBqUwZq6fiaR8nR29FzaPCaY1Js2rKg4p3Rte4akZCzcmwWNrlqnnkm5e0cjN2AOQ1k9lgUjP6aUqe/4YLXvpeYriZ4TF4EVKT4OwmW/Fip85Pq/Tzl67mpkjc9MstcxBjrWtyXhztI3LunyZ5+zaPDkm+ZyQ6e7x4mEgkRT8RJDXJ2unFm01cWGDDWBFOvhl/5cyApyKZc5RE7ZNvReFe42bP+ef+aDbJt15TafYUP08B8vxjhajhqOl9KiiqOEmKn60QNRzyyOLB26qgSPt65V1Pt7HutXVb7Fx098R2hpPnX/eeP/P189yyR/4H/SQ31fvEUeQTDnGi9vCEseJFOaNNr0Qp7EVX+yJozyfFwYmpCGc0w37ladcdyMswU9on2GpTepMCHqN8Q+ntrlLy4zjTN9uVbWHpcZwbnH3W6iQ7jrNfVU2UKiw5jlOqE+LQ5E4m7Zi8c5XIG3GsxIukF48onp2zeK8ukdbAObx+NUIS4zjPWClbvbwfQNKc0XRVBJBk4WtZuH/mvtRVSJYzuptUTcKkniRn1PhPGFdR5MRxHlHVHIzq9STEcYz/Rld2hCRs2LiW7oR6aDJZTSZIvndbCT9UWMs2bm+yeVxPjeHy6RohyaOCeBxnI7lF6IbwF49YsoVF4zjnecapemaJ3iT6SNa4odWfXRdYv1gcZ9ZT6rCAdCUzT8GJqcA1Yqxfyaja+wUJxXGuMO0kLC1MCAEPsG7w4aNpNSiU42iSggSc0ZBy6TkFrlpmrZ7Mc+CP/LhfsMyWKPBGt1vE1nkYNeF+qLBfyWxHHVF2jpy0ZPLiG17cjdRuVqfdVtuFVN4JpzP6LPfOpc4BlouRTF6lz0U7w1LvqTqmhVdmX0eaTF6+OM5HqeOUjUtdn2mj0agl70RccZyp3HGKPlLVanMbd9SWZ1+eOM6Nb9wGUQ9wHE+iF6Fb16HVRu3IJxqsJ4zJTcofx7lD9YaruvejnjwGktKKp9y7mjbSNK3tF20Eb0BtbElK7jhOJzylLCk0h7heaJ5a0s5Jv3FgPSJZZybaQBlBHgLckTTeer5vKhhIunEbtN48W4w0TbZ9ca44zjWWdFpSlGnVdqFp8nlRjjjOsgjj2pccchBTwrjeeCXnXDniOJeKnHPGhcaJU820CK08+0Jra1hPBYxTfhviwQbjNUYrzb4KcxxHKaQrO6qj6Op7PUrQ2rxyzoUYHypcFTFOBcL4YODp/VeAVhZvnW1z6BA1+n37dVAj+oIznF/rGCGE66nFG4c9jK8LCNbldYtjuzqMG1mnpWVgps2hX3AC0H/BSWEGRpfjp/3T4wYpRGqseKOPQtxT0LY+bwPh5/P9/vxZQY3U0yZOEGTUEUMcZ436XGqg66D25U1aHSy4WhsrYaf/rCh8TaJOWwlt6py05DR1jOL9LCfu4pWYcRo3mI8XZcZxPqNYd+nT+xHRmxoouuZ6QtQPseCOTqOtusHwadP7db/eyaCdKXSzpF7HuEP9RjMIG25sUJ1hvj4HzGvirfQHtsPA14gkNaCkesKnzxaNRHHvjQF3cRuv7hbRT+43EmwiTo3jTFHDH9+ir+jYl8xDyU1r40Vw+mhZJusmWzZv9eEmpTc0fXPojeKN5Z6jDt/6ZFI/8OOHbOgi2lP/xEddEbg04z4kW/YwaveJE8YrpTYXpcRx9pyT5ToULFloI7AwA+5Zsrazhdbug/WlKy2Os2lx4kKrrbkG8zLgAv7DifBw8dLjOGPs4vY9aO+4cUgij/18P6kOLWRfNZc3UZwBF1i7uQGtTj+tPf1EkpdMoTVQi1dwZ3Z4+4myDLjAbt07t7p2srpM0SKgz5gbF1h8TL9qMG827ggYqrbeKM7DC8dxlvzGbQGztVt/uTNq5MbV1GTr5n4WBy/8UOGyzo9bT07GD7aKNZABN9mb78K1Yic/LxTHeRIwrl1jvIHjw1o2xsuAq81pxuWzLxDHEYGNQLjakyv3KC8L7ug+2rh7cv6V377JOM4j/zjlCZO379nXaOsPDayjTjhyXCxMane+Jwa/2X007JGfNz6UDoW6siv0ENRpXMSjMiEvuiTvI2O7oE2bR/Pw9tjP44Vy88bjONcC41RY5+LlbD1d394DDB4vbsVvceOFFq/SFvPtfrncb+dAiU47X9Pa0XttLW5cRyNzYQu2lt1AfAMsx86ovJrpVAf397y8UdexabXb7Zb78hQeHI6B7FhSq0VtuWNfykP15deUT1HVYWgPmUTODM5RrET0OFEBPYnePnVEe2qzpts3RYPEyVupTSSc0YDMF1KafalR7jEPrzrI17LDyugJyaJ1eFW4edCqLtCOA9fmzWWkwzLmUppxU3jv6bS1JVd3zmnfYCo5lGhcKi+0hhU0b077Br73HEvFhXm7abS1M+r0Sh5vMFg91+XiQrzmNhXX4OrNOfuzvxVmI/PW9ZTgNTMeX/D15ny83s07a8nHTdjXzHgY98KJm4fX27ZnJG7dDvEzkpQhslCM18zYlbnlu3ltXG0QOXtKQ72glYE7nTbxctSGXnAGpbjDaxOrqv/KeJI+NjW3OPEJLf6CM1xesj1g252MA658efZVfSOrZgbu1lS1gCAwmxbWAOSRSYM2U5M83FmLrXRuYK8tXpPNjF1dDwEhCRalUokiZGGVldffFcJ4cbh4g6anzzLCOI4ahSN+j12MSLbKxou9xfaXVjG4BK+5yxiZ7XuX5MjXmRn7s7/Efyzk5nUVtCrxvDah4QvXsjcUAy/yzrRGheG661/zgWmD03JHOiPKukqAtxVEF3BBN68jbXHP/LWtM80MxyMSF0AHkrJ4cbDgvSqsN7fxIM+XmGYPIj06nbcdBl+H8nqzM685COOMrSAJDe8jPVrN1akHaS0jNnR/hMbmQeQtmZFExRi1Bxhhv7Y2+sjxhZ69dwvbmJa5UFXTtFhp1TTeNrGfwp42uxAD5zXoHI4PgGQ2kGS/cOtqP3P+o627a4zt39El53ctb12ntNiNp05103HIT84sSD91SPKaFCXwfo/s1h/jgaBaLaLfGt9s4MRTPOMC8kfGfeLunj2Y5imxhWR9aqqMstlAddqRMwzaYrT4Mtpvp8lH5mPHJSVS16pmJsfuZezC3H7VxHhRdHfLHRKjzdz5v+/aXVS11OhphxeO3Rg8817Mvu34boqblgBt+zWjtdN70zeP2R0HtjT2L36qbfesedetEG9id9VUwLydjK9U2vfioS/aA656evHw8LIzyVRzl+GgL1i7M8DbSj6u+cg/WlG/3ecbxtJiTQ3dKpkG3MKkDJObtwNs6pu1KINapjrttDtvvWNtZ8Yt/MCMG+cFJzufec3bTvm67PCF+Z5z+nna0mmZo6YIb2cA1rfhdEaY+jcaZ1tmB+LL7NLjAMc56jkheCl71vcpoxXQ0cMk6jccpra58tE6wMAeMk/3eSo7OXQ+2jcSvrRCCvKnMwuLJLmzsjC/g2lxqHWs+zE1V3uh4cbG5vjwl+R129qhWmPI54xatAFmmuNuOzSbat0cY5Wjkd86+reJrrhGK2brsuG+0Fr3kvPO8Ppziz4nmHH5ouRfZfJ1xoOrnlJqq53mHQgc++K0v+h0xmNe6hqefSJEivZ8xch/8UaDTvr3PF857Esd+iweWtWk+LU7jr4yyvji1JJntKL05js+XI3Sm0956krbIuHommOu0f4NVtXlorXNC1qEfQlIVvUpA9fgunuBr4bUtnzGtdUFPNuM5+JZVKcWiiuOA3xbh+dW8wV151xTqrCi95m4NVq4J1Wd+FSXzwn5sl7ijXrh6Srm92xazjgOiq5ltiK0qqpHH6FNdzpPLbs/GHBrN3yTjV3oQIxblfu+DWQ+hMDTC75rZ/7FQssbx+mY3Yvbu/3Z+N7KgrVMJ1quqsCSLkzSze6DXd3tw85MMe0x5Vh1ZqNMxnUeKnDxDjTdskwrs9+Zu9u/lsu7Cz3rquj2ZcmujnqaLCcUdkbeuIbGsAK3woD5bCzc5dPO846RVuChQjZvZPvclHcmwqBjBicUaMOJm8kbiydzTR6YZP5gp02N44jw6i+xE3FFAFj0L+M45ek3bxQ2nTe53+iCeyhKlfl3HlqRhwopvPpF4kTDQsyr/8pl3Frtiv+ZEZ3XAtY6O7honigrgMvqhALNuGkHA/X42H45P1T/h/fbMRSo+KXHS3nHcA0qWeRw7BcOkqx3OY3r7GHn59WOYenAym6sUwrzS+1+yEtbq72K2LcLNqMk3FxOKNBa5Ak3bF9KZ5Ys/Z/cXdnRtcgTbtC+8FAlG9fKO055GgrtT4F4QUckmza3Ewr0KGJekBeaZkimVfUck+WoRGhBXv2f2BmW0o1r/eQ0bq12J7bdCuC1ot8nMlTZd66643BCgX4HLT8hKE5oSSfxIi6vz+y/Wb+I6pd6SEtemS7we0xAtvfGGLGBxfVQId2+erjFxthadCuBjjtV7ic4nVCgj6MTATnzyW5cqqX/ut2fbf+19ETeQcnPMYnTCQUy8CDBQDkGf7ftC6DoumXpKg3rOHGQehXIJI7JclRjLGJeGxjiLUrHXW4nFGieMG9OlchrfRc0bq22FzRvifZV/xVwQoF+C41WZfJafwsbt1abipq3LF7uyXJU30TNWw7vce6IDazZSHS0KoVXF3VCgc6Fu3MpvBLGKU/CzuikeH9k/ZBkXOev0ojjFsyr/yPNuLXai/BoVTSvFCcUaCjDvEXySnJCgbYyzFsgL3/EBpYU3MJ4BSI2sJ6kdOeCeI93ko3r/Knst8sr0QkFWsoxbxG8xzKdUCCxOE6RvIIRG1iGJFzpvPq7Aoxbq41l8XKG3aiSPk55mkvClctrfS/EuM6f5X2LvDIiNrCE4zgF8Foijw3SNZVmXmm8+kVhxpURx5HNKyliA0uaM5LFW5ATCnT+1ngLckKBpDkjKbzWj0KNKymOI423iMlyVNcSu7Mor5VvoyeP5MRxpPDqvwo3rqw4jgxe2REbUDOpuAK8+s8SjFurnb0RXvkRG1iS4jiCvIU7oUCy4jhCvFIfG6RLykMFQV7rU2m4MqfOrjiMW+xkOaozyd05P29Z45Sni4rtq5fXlV1Bo7PI8mGei7a0UTnQ7HXk882Dt5P5PPzNP5gHb4fLcSgefMpPyEP7/UOpfdnR/WguV+w9+a/yaZ3/eeWkCl79308f3pfcl11NTyUDs8BaPz+8f1+BcR3d/V6MZBJnserdd58cWqY/+FyEptvXxUie9BRZ3Ysf7x3YqozrabY8ux3L0juafv749MFjrZZWsv6gquqW/Qf1P8IyctylYwhvAAAAAElFTkSuQmCC;" parent="6P_Zupyn003xEf8hD23l-54" vertex="1">
          <mxGeometry x="152.11" y="261" width="42.66" height="38" as="geometry" />
        </mxCell>
        <mxCell id="6P_Zupyn003xEf8hD23l-106" value="" style="endArrow=classic;html=1;rounded=0;entryX=0.476;entryY=0.731;entryDx=0;entryDy=0;entryPerimeter=0;" edge="1" parent="6P_Zupyn003xEf8hD23l-54">
          <mxGeometry width="50" height="50" relative="1" as="geometry">
            <mxPoint x="61.16999999999996" y="328" as="sourcePoint" />
            <mxPoint x="380.1999999999998" y="327.9580000000001" as="targetPoint" />
          </mxGeometry>
        </mxCell>
        <mxCell id="6P_Zupyn003xEf8hD23l-60" value="&lt;font style=&quot;font-size: 19px;&quot;&gt;Origem&lt;/font&gt;" style="text;html=1;align=center;verticalAlign=middle;whiteSpace=wrap;rounded=0;fontStyle=1" vertex="1" parent="1">
          <mxGeometry x="100" y="44" width="75" height="30" as="geometry" />
        </mxCell>
        <mxCell id="6P_Zupyn003xEf8hD23l-61" value="&lt;font style=&quot;font-size: 19px;&quot;&gt;Processamento&lt;/font&gt;" style="text;html=1;align=center;verticalAlign=middle;whiteSpace=wrap;rounded=0;fontStyle=1" vertex="1" parent="1">
          <mxGeometry x="447.49" y="43" width="75" height="30" as="geometry" />
        </mxCell>
        <mxCell id="6P_Zupyn003xEf8hD23l-62" value="" style="endArrow=none;dashed=1;html=1;rounded=0;" edge="1" parent="1">
          <mxGeometry width="50" height="50" relative="1" as="geometry">
            <mxPoint x="743" y="100" as="sourcePoint" />
            <mxPoint x="743" y="660" as="targetPoint" />
          </mxGeometry>
        </mxCell>
        <mxCell id="6P_Zupyn003xEf8hD23l-63" value="" style="endArrow=classic;html=1;rounded=0;entryX=0.303;entryY=0.68;entryDx=0;entryDy=0;entryPerimeter=0;" edge="1" parent="1" target="6P_Zupyn003xEf8hD23l-90">
          <mxGeometry width="50" height="50" relative="1" as="geometry">
            <mxPoint x="230" y="588" as="sourcePoint" />
            <mxPoint x="417.65999999999985" y="588.0100000000001" as="targetPoint" />
          </mxGeometry>
        </mxCell>
        <mxCell id="6P_Zupyn003xEf8hD23l-64" value="" style="endArrow=classic;html=1;rounded=0;entryX=0.367;entryY=0.127;entryDx=0;entryDy=0;entryPerimeter=0;" edge="1" parent="1">
          <mxGeometry width="50" height="50" relative="1" as="geometry">
            <mxPoint x="530" y="121.41" as="sourcePoint" />
            <mxPoint x="717.6599999999999" y="121.4200000000001" as="targetPoint" />
          </mxGeometry>
        </mxCell>
        <mxCell id="6P_Zupyn003xEf8hD23l-65" value="" style="endArrow=classic;html=1;rounded=0;entryX=0.367;entryY=0.127;entryDx=0;entryDy=0;entryPerimeter=0;" edge="1" parent="1">
          <mxGeometry width="50" height="50" relative="1" as="geometry">
            <mxPoint x="560" y="585" as="sourcePoint" />
            <mxPoint x="717.6599999999999" y="585.4200000000001" as="targetPoint" />
          </mxGeometry>
        </mxCell>
        <mxCell id="6P_Zupyn003xEf8hD23l-73" value="" style="group" vertex="1" connectable="0" parent="1">
          <mxGeometry x="230" y="238" width="100" height="212" as="geometry" />
        </mxCell>
        <mxCell id="6P_Zupyn003xEf8hD23l-58" value="" style="endArrow=none;html=1;rounded=0;" edge="1" parent="6P_Zupyn003xEf8hD23l-73">
          <mxGeometry width="50" height="50" relative="1" as="geometry">
            <mxPoint x="60" y="212" as="sourcePoint" />
            <mxPoint x="60" y="82" as="targetPoint" />
          </mxGeometry>
        </mxCell>
        <mxCell id="6P_Zupyn003xEf8hD23l-59" value="" style="group" vertex="1" connectable="0" parent="6P_Zupyn003xEf8hD23l-73">
          <mxGeometry width="100" height="210.0000000000001" as="geometry" />
        </mxCell>
        <mxCell id="6P_Zupyn003xEf8hD23l-52" value="" style="endArrow=classic;html=1;rounded=0;" edge="1" parent="6P_Zupyn003xEf8hD23l-59">
          <mxGeometry width="50" height="50" relative="1" as="geometry">
            <mxPoint x="60" as="sourcePoint" />
            <mxPoint x="100" as="targetPoint" />
          </mxGeometry>
        </mxCell>
        <mxCell id="6P_Zupyn003xEf8hD23l-55" value="" style="endArrow=classic;html=1;rounded=0;exitX=0.551;exitY=0.524;exitDx=0;exitDy=0;exitPerimeter=0;" edge="1" parent="6P_Zupyn003xEf8hD23l-59">
          <mxGeometry width="50" height="50" relative="1" as="geometry">
            <mxPoint x="60" y="210.0000000000001" as="sourcePoint" />
            <mxPoint x="100" y="210" as="targetPoint" />
          </mxGeometry>
        </mxCell>
        <mxCell id="6P_Zupyn003xEf8hD23l-56" value="" style="endArrow=none;html=1;rounded=0;" edge="1" parent="6P_Zupyn003xEf8hD23l-59">
          <mxGeometry width="50" height="50" relative="1" as="geometry">
            <mxPoint x="60" y="89.76999999999998" as="sourcePoint" />
            <mxPoint x="60" as="targetPoint" />
          </mxGeometry>
        </mxCell>
        <mxCell id="6P_Zupyn003xEf8hD23l-57" value="" style="endArrow=none;html=1;rounded=0;" edge="1" parent="6P_Zupyn003xEf8hD23l-59">
          <mxGeometry width="50" height="50" relative="1" as="geometry">
            <mxPoint y="88.06" as="sourcePoint" />
            <mxPoint x="60" y="88.06" as="targetPoint" />
          </mxGeometry>
        </mxCell>
        <mxCell id="6P_Zupyn003xEf8hD23l-75" value="" style="endArrow=none;html=1;rounded=0;" edge="1" parent="1">
          <mxGeometry width="50" height="50" relative="1" as="geometry">
            <mxPoint x="681" y="452" as="sourcePoint" />
            <mxPoint x="681" y="322" as="targetPoint" />
          </mxGeometry>
        </mxCell>
        <mxCell id="6P_Zupyn003xEf8hD23l-78" value="" style="endArrow=classic;html=1;rounded=0;exitX=0.551;exitY=0.524;exitDx=0;exitDy=0;exitPerimeter=0;" edge="1" parent="1">
          <mxGeometry width="50" height="50" relative="1" as="geometry">
            <mxPoint x="681" y="343.4100000000001" as="sourcePoint" />
            <mxPoint x="721" y="343.40999999999997" as="targetPoint" />
          </mxGeometry>
        </mxCell>
        <mxCell id="6P_Zupyn003xEf8hD23l-79" value="" style="endArrow=none;html=1;rounded=0;" edge="1" parent="1">
          <mxGeometry width="50" height="50" relative="1" as="geometry">
            <mxPoint x="681" y="329.77" as="sourcePoint" />
            <mxPoint x="681" y="240" as="targetPoint" />
          </mxGeometry>
        </mxCell>
        <mxCell id="6P_Zupyn003xEf8hD23l-81" value="" style="endArrow=none;html=1;rounded=0;" edge="1" parent="1">
          <mxGeometry width="50" height="50" relative="1" as="geometry">
            <mxPoint x="641" y="241" as="sourcePoint" />
            <mxPoint x="681" y="240" as="targetPoint" />
          </mxGeometry>
        </mxCell>
        <mxCell id="6P_Zupyn003xEf8hD23l-82" value="" style="endArrow=none;html=1;rounded=0;" edge="1" parent="1">
          <mxGeometry width="50" height="50" relative="1" as="geometry">
            <mxPoint x="640" y="450" as="sourcePoint" />
            <mxPoint x="680" y="450" as="targetPoint" />
          </mxGeometry>
        </mxCell>
        <mxCell id="6P_Zupyn003xEf8hD23l-83" value="&lt;font style=&quot;font-size: 19px;&quot;&gt;Armazenamento&lt;/font&gt;" style="text;html=1;align=center;verticalAlign=middle;whiteSpace=wrap;rounded=0;fontStyle=1" vertex="1" parent="1">
          <mxGeometry x="900" y="44" width="75" height="30" as="geometry" />
        </mxCell>
        <mxCell id="6P_Zupyn003xEf8hD23l-84" value="" style="endArrow=none;dashed=1;html=1;rounded=0;" edge="1" parent="1">
          <mxGeometry width="50" height="50" relative="1" as="geometry">
            <mxPoint x="1120" y="100" as="sourcePoint" />
            <mxPoint x="1120" y="660" as="targetPoint" />
          </mxGeometry>
        </mxCell>
        <mxCell id="6P_Zupyn003xEf8hD23l-85" value="&lt;font style=&quot;font-size: 19px;&quot;&gt;Consumo&lt;/font&gt;" style="text;html=1;align=center;verticalAlign=middle;whiteSpace=wrap;rounded=0;fontStyle=1" vertex="1" parent="1">
          <mxGeometry x="1267.1" y="44" width="75" height="30" as="geometry" />
        </mxCell>
        <mxCell id="6P_Zupyn003xEf8hD23l-87" value="" style="shape=image;verticalLabelPosition=bottom;labelBackgroundColor=default;verticalAlign=top;aspect=fixed;imageAspect=0;image=https://1000logos.net/wp-content/uploads/2022/03/Tableau-Logo.jpg;" vertex="1" parent="1">
          <mxGeometry x="1180" y="228.08000000000004" width="240.62" height="135.35" as="geometry" />
        </mxCell>
        <mxCell id="6P_Zupyn003xEf8hD23l-88" value="" style="shape=image;verticalLabelPosition=bottom;labelBackgroundColor=default;verticalAlign=top;aspect=fixed;imageAspect=0;image=https://www.meltone.com/wp-content/uploads/2023/03/Sans-titre-2023-03-31T162210.850.png;" vertex="1" parent="1">
          <mxGeometry x="1210" y="372.43" width="189.21" height="106.43" as="geometry" />
        </mxCell>
        <mxCell id="6P_Zupyn003xEf8hD23l-89" value="" style="shape=image;verticalLabelPosition=bottom;labelBackgroundColor=default;verticalAlign=top;aspect=fixed;imageAspect=0;image=https://steadyagency.com/wp-content/uploads/2019/01/qlik-sense-logo-2.png;" vertex="1" parent="1">
          <mxGeometry x="1238.66" y="513" width="131.89" height="90" as="geometry" />
        </mxCell>
        <mxCell id="6P_Zupyn003xEf8hD23l-91" value="" style="endArrow=none;html=1;rounded=0;" edge="1" parent="1">
          <mxGeometry width="50" height="50" relative="1" as="geometry">
            <mxPoint x="45" y="80" as="sourcePoint" />
            <mxPoint x="1465" y="81" as="targetPoint" />
          </mxGeometry>
        </mxCell>
        <mxCell id="6P_Zupyn003xEf8hD23l-104" value="Dataproc" style="shape=image;verticalLabelPosition=bottom;labelBackgroundColor=default;verticalAlign=top;aspect=fixed;imageAspect=0;image=https://miro.medium.com/v2/resize:fit:310/1*PFhkWXXBd4P7bYVdJhtqXA.png;" vertex="1" parent="1">
          <mxGeometry x="346" y="610" width="47.61" height="41.46" as="geometry" />
        </mxCell>
        <mxCell id="6P_Zupyn003xEf8hD23l-105" value="" style="endArrow=classic;html=1;rounded=0;entryX=0.269;entryY=0.743;entryDx=0;entryDy=0;entryPerimeter=0;exitX=0.338;exitY=0.743;exitDx=0;exitDy=0;exitPerimeter=0;" edge="1" parent="1">
          <mxGeometry width="50" height="50" relative="1" as="geometry">
            <mxPoint x="330.0499999999999" y="632.1439999999999" as="sourcePoint" />
            <mxPoint x="229.99999999999972" y="632.1439999999999" as="targetPoint" />
          </mxGeometry>
        </mxCell>
        <mxCell id="6P_Zupyn003xEf8hD23l-107" value="" style="rounded=0;whiteSpace=wrap;html=1;fillColor=#e1d5e7;strokeColor=#9673a6;" vertex="1" parent="1">
          <mxGeometry x="109.78999999999996" y="689.35" width="330" height="140" as="geometry" />
        </mxCell>
        <mxCell id="6P_Zupyn003xEf8hD23l-108" style="edgeStyle=orthogonalEdgeStyle;rounded=0;orthogonalLoop=1;jettySize=auto;html=1;" edge="1" parent="1" source="6P_Zupyn003xEf8hD23l-109" target="6P_Zupyn003xEf8hD23l-111">
          <mxGeometry relative="1" as="geometry" />
        </mxCell>
        <mxCell id="6P_Zupyn003xEf8hD23l-109" value="Composer" style="shape=image;verticalLabelPosition=bottom;labelBackgroundColor=default;verticalAlign=top;aspect=fixed;imageAspect=0;image=https://res.cloudinary.com/apideck/image/upload/v1637801605/icons/google-cloud-composer.png;" vertex="1" parent="1">
          <mxGeometry x="164.05999999999995" y="740" width="53.53" height="53.53" as="geometry" />
        </mxCell>
        <mxCell id="6P_Zupyn003xEf8hD23l-110" value="&lt;b&gt;&lt;font style=&quot;font-size: 17px;&quot;&gt;Orquestrador&lt;/font&gt;&lt;/b&gt;" style="text;html=1;align=left;verticalAlign=middle;whiteSpace=wrap;rounded=0;" vertex="1" parent="1">
          <mxGeometry x="119.78999999999996" y="700" width="280" height="30" as="geometry" />
        </mxCell>
        <mxCell id="6P_Zupyn003xEf8hD23l-111" value="Apache Airflow" style="shape=image;verticalLabelPosition=bottom;labelBackgroundColor=default;verticalAlign=top;aspect=fixed;imageAspect=0;image=https://static-00.iconduck.com/assets.00/airflow-icon-2048x2048-ptyvisqh.png;" vertex="1" parent="1">
          <mxGeometry x="329.78999999999996" y="737" width="58.66" height="58.66" as="geometry" />
        </mxCell>
      </root>
    </mxGraphModel>
  </diagram>
</mxfile>
